adventprofmm_thn_it_krn.ufo
<glyph name="exclam" format="1">
  <advance width="162"/>
  <unicode hex="0021"/>
  <outline>
    <contour>
      <point x="121" y="627" type="curve" smooth="yes"/>
      <point x="38" y="109" type="line"/>
      <point x="52" y="109" type="line"/>
      <point x="150" y="627" type="line" smooth="yes"/>
      <point x="152" y="638"/>
      <point x="149" y="644"/>
      <point x="140" y="644" type="curve" smooth="yes"/>
      <point x="132" y="644"/>
      <point x="123" y="638"/>
    </contour>
    <contour>
      <point x="43" y="16" type="curve"/>
      <point x="45" y="24"/>
      <point x="39" y="31"/>
      <point x="31" y="31" type="curve" smooth="yes"/>
      <point x="22" y="31"/>
      <point x="14" y="24"/>
      <point x="12" y="16" type="curve"/>
      <point x="11" y="7"/>
      <point x="17" y="0"/>
      <point x="26" y="0" type="curve" smooth="yes"/>
      <point x="34" y="0"/>
      <point x="42" y="7"/>
    </contour>
  </outline>
</glyph>
<glyph name="quotedbl" format="1">
  <advance width="192"/>
  <unicode hex="0022"/>
  <outline>
    <contour>
      <point x="153" y="655" type="curve" smooth="yes"/>
      <point x="137" y="534" type="line"/>
      <point x="152" y="534" type="line"/>
      <point x="179" y="655" type="line"/>
      <point x="182" y="674"/>
      <point x="156" y="674"/>
    </contour>
    <contour>
      <point x="30" y="655" type="curve" smooth="yes"/>
      <point x="14" y="534" type="line"/>
      <point x="29" y="534" type="line"/>
      <point x="56" y="655" type="line"/>
      <point x="59" y="674"/>
      <point x="33" y="674"/>
    </contour>
  </outline>
</glyph>
<glyph name="numbersign" format="1">
  <advance width="552"/>
  <unicode hex="0023"/>
  <outline>
    <contour>
      <point x="539" y="376" type="line"/>
      <point x="542" y="392" type="line"/>
      <point x="412" y="392" type="line"/>
      <point x="511" y="635" type="line"/>
      <point x="494" y="635" type="line"/>
      <point x="395" y="392" type="line"/>
      <point x="223" y="392" type="line"/>
      <point x="321" y="635" type="line"/>
      <point x="304" y="635" type="line"/>
      <point x="206" y="392" type="line"/>
      <point x="44" y="392" type="line"/>
      <point x="41" y="376" type="line"/>
      <point x="198" y="376" type="line"/>
      <point x="134" y="221" type="line"/>
      <point x="13" y="221" type="line"/>
      <point x="11" y="205" type="line"/>
      <point x="128" y="205" type="line"/>
      <point x="44" y="0" type="line"/>
      <point x="61" y="0" type="line"/>
      <point x="145" y="205" type="line"/>
      <point x="319" y="205" type="line"/>
      <point x="235" y="0" type="line"/>
      <point x="252" y="0" type="line"/>
      <point x="336" y="205" type="line"/>
      <point x="509" y="205" type="line"/>
      <point x="511" y="221" type="line"/>
      <point x="341" y="221" type="line"/>
      <point x="406" y="376" type="line"/>
    </contour>
    <contour>
      <point x="215" y="376" type="line"/>
      <point x="388" y="376" type="line"/>
      <point x="324" y="221" type="line"/>
      <point x="151" y="221" type="line"/>
    </contour>
  </outline>
</glyph>
<glyph name="dollar" format="1">
  <advance width="479"/>
  <unicode hex="0024"/>
  <outline>
    <contour>
      <point x="460" y="592" type="curve"/>
      <point x="469" y="608" type="line"/>
      <point x="431" y="631"/>
      <point x="381" y="643"/>
      <point x="331" y="643" type="curve" smooth="yes"/>
      <point x="281" y="643"/>
      <point x="231" y="632"/>
      <point x="191" y="608" type="curve" smooth="yes"/>
      <point x="149" y="584"/>
      <point x="118" y="547"/>
      <point x="106" y="497" type="curve" smooth="yes"/>
      <point x="88" y="417"/>
      <point x="150" y="378"/>
      <point x="225" y="346" type="curve" smooth="yes"/>
      <point x="255" y="332"/>
      <point x="287" y="320"/>
      <point x="317" y="307" type="curve" smooth="yes"/>
      <point x="384" y="276"/>
      <point x="438" y="238"/>
      <point x="426" y="162" type="curve" smooth="yes"/>
      <point x="418" y="113"/>
      <point x="394" y="77"/>
      <point x="361" y="52" type="curve" smooth="yes"/>
      <point x="318" y="19"/>
      <point x="254" y="6"/>
      <point x="215" y="6" type="curve" smooth="yes"/>
      <point x="157" y="6"/>
      <point x="103" y="22"/>
      <point x="77" y="43" type="curve" smooth="yes"/>
      <point x="31" y="79"/>
      <point x="24" y="129"/>
      <point x="24" y="129" type="curve"/>
      <point x="11" y="120" type="line"/>
      <point x="11" y="120"/>
      <point x="17" y="68"/>
      <point x="66" y="29" type="curve" smooth="yes"/>
      <point x="94" y="6"/>
      <point x="149" y="-12"/>
      <point x="211" y="-12" type="curve" smooth="yes"/>
      <point x="267" y="-12"/>
      <point x="328" y="6"/>
      <point x="371" y="39" type="curve" smooth="yes"/>
      <point x="411" y="69"/>
      <point x="437" y="110"/>
      <point x="445" y="161" type="curve" smooth="yes"/>
      <point x="460" y="244"/>
      <point x="399" y="288"/>
      <point x="326" y="323" type="curve" smooth="yes"/>
      <point x="296" y="337"/>
      <point x="264" y="349"/>
      <point x="235" y="362" type="curve" smooth="yes"/>
      <point x="137" y="403"/>
      <point x="113" y="439"/>
      <point x="122" y="493" type="curve" smooth="yes"/>
      <point x="131" y="539"/>
      <point x="166" y="579"/>
      <point x="202" y="598" type="curve" smooth="yes"/>
      <point x="244" y="619"/>
      <point x="288" y="628"/>
      <point x="329" y="627" type="curve" smooth="yes"/>
      <point x="382" y="627"/>
      <point x="429" y="612"/>
    </contour>
    <contour>
      <point x="353" y="741" type="line"/>
      <point x="336" y="741" type="line"/>
      <point x="187" y="-103" type="line"/>
      <point x="204" y="-103" type="line"/>
    </contour>
  </outline>
</glyph>
<glyph name="percent" format="1">
  <advance width="644"/>
  <unicode hex="0025"/>
  <outline>
    <contour>
      <point x="634" y="635" type="line"/>
      <point x="610" y="635" type="line"/>
      <point x="11" y="0" type="line"/>
      <point x="35" y="0" type="line"/>
    </contour>
    <contour>
      <point x="220" y="647" type="curve" smooth="yes"/>
      <point x="147" y="647"/>
      <point x="77" y="588"/>
      <point x="64" y="515" type="curve" smooth="yes"/>
      <point x="51" y="442"/>
      <point x="100" y="383"/>
      <point x="173" y="383" type="curve" smooth="yes"/>
      <point x="246" y="383"/>
      <point x="315" y="442"/>
      <point x="328" y="515" type="curve" smooth="yes"/>
      <point x="341" y="588"/>
      <point x="293" y="647"/>
    </contour>
    <contour>
      <point x="216" y="629" type="curve" smooth="yes"/>
      <point x="279" y="629"/>
      <point x="321" y="578"/>
      <point x="310" y="515" type="curve" smooth="yes"/>
      <point x="299" y="452"/>
      <point x="239" y="401"/>
      <point x="176" y="401" type="curve" smooth="yes"/>
      <point x="113" y="401"/>
      <point x="71" y="452"/>
      <point x="82" y="515" type="curve" smooth="yes"/>
      <point x="93" y="578"/>
      <point x="153" y="629"/>
    </contour>
    <contour>
      <point x="477" y="251" type="curve" smooth="yes"/>
      <point x="405" y="251"/>
      <point x="335" y="192"/>
      <point x="322" y="119" type="curve" smooth="yes"/>
      <point x="310" y="46"/>
      <point x="358" y="-13"/>
      <point x="430" y="-13" type="curve" smooth="yes"/>
      <point x="503" y="-13"/>
      <point x="573" y="46"/>
      <point x="585" y="119" type="curve" smooth="yes"/>
      <point x="598" y="192"/>
      <point x="550" y="251"/>
    </contour>
    <contour>
      <point x="474" y="233" type="curve" smooth="yes"/>
      <point x="537" y="233"/>
      <point x="579" y="182"/>
      <point x="567" y="119" type="curve" smooth="yes"/>
      <point x="556" y="56"/>
      <point x="497" y="6"/>
      <point x="434" y="6" type="curve" smooth="yes"/>
      <point x="372" y="6"/>
      <point x="329" y="56"/>
      <point x="340" y="119" type="curve" smooth="yes"/>
      <point x="352" y="182"/>
      <point x="412" y="233"/>
    </contour>
  </outline>
</glyph>
<glyph name="ampersand" format="1">
  <advance width="499"/>
  <unicode hex="0026"/>
  <outline>
    <contour>
      <point x="439" y="619" type="curve"/>
      <point x="451" y="638" type="line"/>
      <point x="451" y="638"/>
      <point x="351" y="638"/>
      <point x="298" y="638" type="curve" smooth="yes"/>
      <point x="213" y="638"/>
      <point x="156" y="581"/>
      <point x="145" y="503" type="curve" smooth="yes"/>
      <point x="138" y="452"/>
      <point x="160" y="396"/>
      <point x="221" y="366" type="curve"/>
      <point x="217" y="366"/>
      <point x="209" y="366"/>
      <point x="204" y="366" type="curve" smooth="yes"/>
      <point x="82" y="366"/>
      <point x="50" y="289"/>
      <point x="40" y="231" type="curve"/>
      <point x="40" y="231"/>
      <point x="25" y="146"/>
      <point x="25" y="146" type="curve"/>
      <point x="0" y="4"/>
      <point x="108" y="-8"/>
      <point x="176" y="-4" type="curve" smooth="yes"/>
      <point x="233" y="0"/>
      <point x="304" y="33"/>
      <point x="337" y="98" type="curve"/>
      <point x="333" y="42"/>
      <point x="358" y="9"/>
      <point x="414" y="-8" type="curve"/>
      <point x="421" y="8" type="line"/>
      <point x="364" y="28"/>
      <point x="345" y="57"/>
      <point x="356" y="124" type="curve" smooth="yes"/>
      <point x="396" y="347" type="line"/>
      <point x="478" y="347" type="line"/>
      <point x="489" y="366" type="line"/>
      <point x="399" y="366" type="line"/>
      <point x="415" y="459" type="line"/>
      <point x="400" y="459" type="line"/>
      <point x="384" y="366" type="line"/>
      <point x="340" y="366"/>
      <point x="295" y="366"/>
      <point x="287" y="366" type="curve" smooth="yes"/>
      <point x="236" y="366"/>
      <point x="151" y="417"/>
      <point x="166" y="504" type="curve" smooth="yes"/>
      <point x="175" y="571"/>
      <point x="227" y="619"/>
      <point x="298" y="619" type="curve" smooth="yes"/>
      <point x="335" y="619"/>
      <point x="439" y="619"/>
    </contour>
    <contour>
      <point x="381" y="347" type="curve"/>
      <point x="347" y="157" type="line" smooth="yes"/>
      <point x="334" y="83"/>
      <point x="267" y="18"/>
      <point x="179" y="12" type="curve" smooth="yes"/>
      <point x="80" y="5"/>
      <point x="25" y="43"/>
      <point x="43" y="145" type="curve" smooth="yes"/>
      <point x="44" y="150"/>
      <point x="57" y="225"/>
      <point x="58" y="228" type="curve"/>
      <point x="70" y="296"/>
      <point x="106" y="347"/>
      <point x="200" y="347" type="curve" smooth="yes"/>
      <point x="216" y="347"/>
      <point x="302" y="347"/>
    </contour>
  </outline>
</glyph>
<glyph name="quotesingle" format="1">
  <advance width="69"/>
  <unicode hex="0027"/>
  <outline>
    <contour>
      <point x="29" y="656" type="curve" smooth="yes"/>
      <point x="14" y="534" type="line"/>
      <point x="28" y="534" type="line"/>
      <point x="56" y="656" type="line"/>
      <point x="59" y="674"/>
      <point x="32" y="674"/>
    </contour>
  </outline>
</glyph>
<glyph name="parenleft" format="1">
  <advance width="250"/>
  <unicode hex="0028"/>
  <outline>
    <contour>
      <point x="240" y="725" type="curve"/>
      <point x="234" y="739" type="line"/>
      <point x="159" y="696"/>
      <point x="126" y="657"/>
      <point x="111" y="568" type="curve" smooth="yes"/>
      <point x="22" y="63" type="line" smooth="yes"/>
      <point x="6" y="-26"/>
      <point x="25" y="-65"/>
      <point x="84" y="-108" type="curve"/>
      <point x="97" y="-92" type="line"/>
      <point x="74" y="-73"/>
      <point x="20" y="-45"/>
      <point x="38" y="59" type="curve" smooth="yes"/>
      <point x="52" y="139"/>
      <point x="78" y="287"/>
      <point x="129" y="577" type="curve" smooth="yes"/>
      <point x="144" y="662"/>
      <point x="183" y="690"/>
    </contour>
  </outline>
</glyph>
<glyph name="parenright" format="1">
  <advance width="250"/>
  <unicode hex="0029"/>
  <outline>
    <contour>
      <point x="155" y="725" type="curve"/>
      <point x="167" y="739" type="line"/>
      <point x="226" y="696"/>
      <point x="245" y="657"/>
      <point x="230" y="568" type="curve" smooth="yes"/>
      <point x="141" y="63" type="line" smooth="yes"/>
      <point x="125" y="-26"/>
      <point x="92" y="-65"/>
      <point x="17" y="-108" type="curve"/>
      <point x="11" y="-92" type="line"/>
      <point x="41" y="-73"/>
      <point x="105" y="-45"/>
      <point x="123" y="59" type="curve" smooth="yes"/>
      <point x="137" y="139"/>
      <point x="163" y="287"/>
      <point x="214" y="577" type="curve" smooth="yes"/>
      <point x="229" y="662"/>
      <point x="200" y="690"/>
    </contour>
  </outline>
</glyph>
<glyph name="asterisk" format="1">
  <advance width="285"/>
  <unicode hex="002A"/>
  <outline>
    <contour>
      <point x="121" y="496" type="line"/>
      <point x="32" y="400" type="line"/>
      <point x="47" y="388" type="line"/>
      <point x="134" y="487" type="line"/>
      <point x="191" y="388" type="line"/>
      <point x="208" y="400" type="line"/>
      <point x="150" y="496" type="line"/>
      <point x="275" y="538" type="line"/>
      <point x="273" y="556" type="line"/>
      <point x="146" y="510" type="line"/>
      <point x="169" y="635" type="line"/>
      <point x="149" y="635" type="line"/>
      <point x="128" y="510" type="line"/>
      <point x="22" y="556" type="line"/>
      <point x="12" y="538" type="line"/>
    </contour>
  </outline>
</glyph>
<glyph name="plus" format="1">
  <advance width="316"/>
  <unicode hex="002B"/>
  <outline>
    <contour>
      <point x="152" y="344" type="line"/>
      <point x="15" y="344" type="line"/>
      <point x="12" y="328" type="line"/>
      <point x="149" y="328" type="line"/>
      <point x="125" y="190" type="line"/>
      <point x="142" y="190" type="line"/>
      <point x="166" y="328" type="line"/>
      <point x="302" y="328" type="line"/>
      <point x="305" y="344" type="line"/>
      <point x="169" y="344" type="line"/>
      <point x="193" y="480" type="line"/>
      <point x="176" y="480" type="line"/>
    </contour>
  </outline>
</glyph>
<glyph name="comma" format="1">
  <advance width="82"/>
  <unicode hex="002C"/>
  <outline>
    <contour>
      <point x="11" y="-52" type="curve"/>
      <point x="18" y="-58" type="line"/>
      <point x="18" y="-58"/>
      <point x="57" y="-36"/>
      <point x="66" y="12" type="curve"/>
      <point x="67" y="21"/>
      <point x="62" y="27"/>
      <point x="53" y="27" type="curve" smooth="yes"/>
      <point x="45" y="27"/>
      <point x="37" y="20"/>
      <point x="36" y="12" type="curve"/>
      <point x="34" y="5"/>
      <point x="38" y="0"/>
      <point x="43" y="-3" type="curve"/>
      <point x="40" y="-16"/>
      <point x="31" y="-35"/>
    </contour>
  </outline>
</glyph>
<glyph name="period" format="1">
  <advance width="60"/>
  <unicode hex="002E"/>
  <outline>
    <contour>
      <point x="30" y="27" type="curve" smooth="yes"/>
      <point x="22" y="27"/>
      <point x="14" y="20"/>
      <point x="13" y="12" type="curve"/>
      <point x="11" y="3"/>
      <point x="17" y="-4"/>
      <point x="25" y="-4" type="curve" smooth="yes"/>
      <point x="34" y="-4"/>
      <point x="42" y="3"/>
      <point x="44" y="12" type="curve"/>
      <point x="45" y="20"/>
      <point x="39" y="27"/>
    </contour>
  </outline>
</glyph>
<glyph name="one" format="1">
  <advance width="129"/>
  <unicode hex="0031"/>
  <outline>
    <contour>
      <point x="-4" y="551" type="curve"/>
      <point x="-2" y="536" type="line"/>
      <point x="45" y="547"/>
      <point x="90" y="573"/>
      <point x="126" y="604" type="curve"/>
      <point x="20" y="0" type="line"/>
      <point x="38" y="0" type="line"/>
      <point x="149" y="635" type="line"/>
      <point x="131" y="635" type="line"/>
      <point x="102" y="598"/>
      <point x="45" y="564"/>
    </contour>
  </outline>
</glyph>
<glyph name="two" format="1">
  <advance width="373"/>
  <unicode hex="0032"/>
  <outline>
    <contour>
      <point x="81" y="535" type="curve"/>
      <point x="97" y="528" type="line"/>
      <point x="123" y="584"/>
      <point x="176" y="626"/>
      <point x="253" y="626" type="curve" smooth="yes"/>
      <point x="329" y="626"/>
      <point x="378" y="566"/>
      <point x="363" y="492" type="curve" smooth="yes"/>
      <point x="356" y="458"/>
      <point x="338" y="421"/>
      <point x="306" y="384" type="curve" smooth="yes"/>
      <point x="195" y="260"/>
      <point x="87" y="139"/>
      <point x="-21" y="18" type="curve"/>
      <point x="-24" y="0" type="line"/>
      <point x="293" y="0" type="line"/>
      <point x="296" y="18" type="line"/>
      <point x="-1" y="18" type="line"/>
      <point x="157" y="195"/>
      <point x="238" y="285"/>
      <point x="317" y="374" type="curve" smooth="yes"/>
      <point x="353" y="416"/>
      <point x="374" y="457"/>
      <point x="382" y="496" type="curve" smooth="yes"/>
      <point x="399" y="580"/>
      <point x="337" y="644"/>
      <point x="262" y="644" type="curve" smooth="yes"/>
      <point x="179" y="644"/>
      <point x="120" y="607"/>
    </contour>
  </outline>
</glyph>
<glyph name="three" format="1">
  <advance width="371"/>
  <unicode hex="0033"/>
  <outline>
    <contour>
      <point x="191" y="375" type="curve" smooth="yes"/>
      <point x="152" y="375" type="line"/>
      <point x="376" y="616" type="line"/>
      <point x="379" y="635" type="line"/>
      <point x="116" y="635" type="line"/>
      <point x="113" y="616" type="line"/>
      <point x="354" y="616" type="line"/>
      <point x="115" y="357" type="line"/>
      <point x="193" y="357" type="line" smooth="yes"/>
      <point x="235" y="357"/>
      <point x="271" y="339"/>
      <point x="302" y="307" type="curve" smooth="yes"/>
      <point x="331" y="276"/>
      <point x="342" y="237"/>
      <point x="334" y="188" type="curve" smooth="yes"/>
      <point x="325" y="140"/>
      <point x="302" y="97"/>
      <point x="263" y="61" type="curve" smooth="yes"/>
      <point x="225" y="24"/>
      <point x="178" y="6"/>
      <point x="121" y="6" type="curve" smooth="yes"/>
      <point x="64" y="6"/>
      <point x="21" y="33"/>
      <point x="-5" y="85" type="curve"/>
      <point x="-22" y="75" type="line"/>
      <point x="3" y="22"/>
      <point x="58" y="-11"/>
      <point x="123" y="-11" type="curve" smooth="yes"/>
      <point x="177" y="-11"/>
      <point x="226" y="8"/>
      <point x="269" y="45" type="curve" smooth="yes"/>
      <point x="313" y="82"/>
      <point x="340" y="128"/>
      <point x="349" y="181" type="curve" smooth="yes"/>
      <point x="359" y="235"/>
      <point x="348" y="281"/>
      <point x="318" y="318" type="curve" smooth="yes"/>
      <point x="287" y="355"/>
      <point x="245" y="375"/>
    </contour>
  </outline>
</glyph>
<glyph name="four" format="1">
  <advance width="366"/>
  <unicode hex="0034"/>
  <outline>
    <contour>
      <point x="307" y="357" type="line"/>
      <point x="368" y="357" type="line"/>
      <point x="377" y="375" type="line"/>
      <point x="311" y="375" type="line"/>
      <point x="356" y="635" type="line"/>
      <point x="338" y="635" type="line"/>
      <point x="293" y="375" type="line"/>
      <point x="24" y="375" type="line"/>
      <point x="213" y="635" type="line"/>
      <point x="195" y="635" type="line"/>
      <point x="-10" y="357" type="line"/>
      <point x="289" y="357" type="line"/>
      <point x="228" y="0" type="line"/>
      <point x="245" y="0" type="line"/>
    </contour>
  </outline>
</glyph>
<glyph name="five" format="1">
  <advance width="374"/>
  <unicode hex="0035"/>
  <outline>
    <contour>
      <point x="85" y="374" type="curve"/>
      <point x="154" y="616" type="line"/>
      <point x="379" y="616" type="line"/>
      <point x="382" y="635" type="line"/>
      <point x="141" y="635" type="line"/>
      <point x="63" y="357" type="line"/>
      <point x="169" y="357" type="line" smooth="yes"/>
      <point x="312" y="357"/>
      <point x="351" y="270"/>
      <point x="335" y="181" type="curve" smooth="yes"/>
      <point x="316" y="69"/>
      <point x="217" y="6"/>
      <point x="130" y="6" type="curve" smooth="yes"/>
      <point x="50" y="6"/>
      <point x="-11" y="54"/>
      <point x="-11" y="54" type="curve"/>
      <point x="-21" y="38" type="line"/>
      <point x="-21" y="38"/>
      <point x="42" y="-11"/>
      <point x="128" y="-11" type="curve" smooth="yes"/>
      <point x="232" y="-11"/>
      <point x="332" y="67"/>
      <point x="352" y="180" type="curve" smooth="yes"/>
      <point x="371" y="289"/>
      <point x="320" y="375"/>
      <point x="172" y="375" type="curve" smooth="yes"/>
      <point x="163" y="375"/>
      <point x="95" y="374"/>
    </contour>
  </outline>
</glyph>
<glyph name="six" format="1">
  <advance width="389"/>
  <unicode hex="0036"/>
  <outline>
    <contour>
      <point x="290" y="617" type="curve" smooth="yes"/>
      <point x="325" y="617" type="line"/>
      <point x="328" y="634" type="line"/>
      <point x="297" y="634" type="line" smooth="yes"/>
      <point x="216" y="634"/>
      <point x="145" y="602"/>
      <point x="105" y="558" type="curve" smooth="yes"/>
      <point x="66" y="516"/>
      <point x="46" y="470"/>
      <point x="38" y="420" type="curve" smooth="yes"/>
      <point x="-4" y="184" type="line" smooth="yes"/>
      <point x="-14" y="130"/>
      <point x="-3" y="84"/>
      <point x="29" y="47" type="curve" smooth="yes"/>
      <point x="59" y="10"/>
      <point x="102" y="-9"/>
      <point x="155" y="-9" type="curve" smooth="yes"/>
      <point x="209" y="-9"/>
      <point x="257" y="10"/>
      <point x="301" y="48" type="curve" smooth="yes"/>
      <point x="345" y="85"/>
      <point x="372" y="130"/>
      <point x="382" y="184" type="curve" smooth="yes"/>
      <point x="391" y="237"/>
      <point x="380" y="283"/>
      <point x="349" y="320" type="curve" smooth="yes"/>
      <point x="318" y="357"/>
      <point x="276" y="376"/>
      <point x="222" y="376" type="curve" smooth="yes"/>
      <point x="153" y="376"/>
      <point x="78" y="343"/>
      <point x="28" y="262" type="curve"/>
      <point x="54" y="409" type="line" smooth="yes"/>
      <point x="68" y="491"/>
      <point x="103" y="544"/>
      <point x="150" y="574" type="curve" smooth="yes"/>
      <point x="193" y="602"/>
      <point x="239" y="617"/>
    </contour>
    <contour>
      <point x="220" y="359" type="curve" smooth="yes"/>
      <point x="317" y="359"/>
      <point x="381" y="280"/>
      <point x="364" y="183" type="curve" smooth="yes"/>
      <point x="347" y="86"/>
      <point x="255" y="8"/>
      <point x="158" y="8" type="curve" smooth="yes"/>
      <point x="61" y="8"/>
      <point x="-3" y="86"/>
      <point x="14" y="183" type="curve" smooth="yes"/>
      <point x="31" y="280"/>
      <point x="123" y="359"/>
    </contour>
  </outline>
</glyph>
<glyph name="seven" format="1">
  <advance width="390"/>
  <unicode hex="0037"/>
  <outline>
    <contour>
      <point x="434" y="635" type="line"/>
      <point x="78" y="635" type="line"/>
      <point x="75" y="616" type="line"/>
      <point x="410" y="616" type="line"/>
      <point x="-23" y="0" type="line"/>
      <point x="-4" y="0" type="line"/>
      <point x="431" y="616" type="line"/>
    </contour>
  </outline>
</glyph>
<glyph name="eight" format="1">
  <advance width="390"/>
  <unicode hex="0038"/>
  <outline>
    <contour>
      <point x="264" y="643" type="curve" smooth="yes"/>
      <point x="220" y="643"/>
      <point x="181" y="628"/>
      <point x="147" y="598" type="curve" smooth="yes"/>
      <point x="114" y="568"/>
      <point x="92" y="531"/>
      <point x="84" y="487" type="curve" smooth="yes"/>
      <point x="79" y="459"/>
      <point x="84" y="431"/>
      <point x="98" y="404" type="curve" smooth="yes"/>
      <point x="112" y="378"/>
      <point x="132" y="360"/>
      <point x="159" y="350" type="curve"/>
      <point x="121" y="339"/>
      <point x="80" y="316"/>
      <point x="49" y="283" type="curve" smooth="yes"/>
      <point x="19" y="250"/>
      <point x="-1" y="213"/>
      <point x="-8" y="174" type="curve" smooth="yes"/>
      <point x="-17" y="121"/>
      <point x="-7" y="77"/>
      <point x="23" y="42" type="curve" smooth="yes"/>
      <point x="53" y="6"/>
      <point x="95" y="-11"/>
      <point x="149" y="-11" type="curve" smooth="yes"/>
      <point x="202" y="-11"/>
      <point x="250" y="6"/>
      <point x="291" y="42" type="curve" smooth="yes"/>
      <point x="332" y="77"/>
      <point x="359" y="121"/>
      <point x="368" y="174" type="curve" smooth="yes"/>
      <point x="375" y="211"/>
      <point x="368" y="247"/>
      <point x="349" y="282" type="curve" smooth="yes"/>
      <point x="330" y="316"/>
      <point x="301" y="339"/>
      <point x="262" y="350" type="curve"/>
      <point x="294" y="360"/>
      <point x="322" y="378"/>
      <point x="343" y="400" type="curve" smooth="yes"/>
      <point x="368" y="426"/>
      <point x="383" y="456"/>
      <point x="388" y="487" type="curve" smooth="yes"/>
      <point x="396" y="531"/>
      <point x="389" y="568"/>
      <point x="365" y="598" type="curve" smooth="yes"/>
      <point x="342" y="628"/>
      <point x="308" y="643"/>
    </contour>
    <contour>
      <point x="213" y="355" type="curve" smooth="yes"/>
      <point x="170" y="355"/>
      <point x="136" y="376"/>
      <point x="116" y="407" type="curve" smooth="yes"/>
      <point x="102" y="430"/>
      <point x="96" y="459"/>
      <point x="102" y="490" type="curve" smooth="yes"/>
      <point x="115" y="565"/>
      <point x="187" y="625"/>
      <point x="261" y="625" type="curve" smooth="yes"/>
      <point x="336" y="625"/>
      <point x="385" y="565"/>
      <point x="372" y="490" type="curve" smooth="yes"/>
      <point x="367" y="460"/>
      <point x="353" y="433"/>
      <point x="332" y="410" type="curve" smooth="yes"/>
      <point x="302" y="377"/>
      <point x="258" y="355"/>
    </contour>
    <contour>
      <point x="150" y="5" type="curve" smooth="yes"/>
      <point x="56" y="5"/>
      <point x="-6" y="80"/>
      <point x="10" y="172" type="curve" smooth="yes"/>
      <point x="17" y="212"/>
      <point x="37" y="249"/>
      <point x="66" y="277" type="curve" smooth="yes"/>
      <point x="104" y="315"/>
      <point x="156" y="339"/>
      <point x="209" y="339" type="curve" smooth="yes"/>
      <point x="265" y="339"/>
      <point x="310" y="313"/>
      <point x="333" y="272" type="curve"/>
      <point x="351" y="244"/>
      <point x="357" y="210"/>
      <point x="350" y="172" type="curve" smooth="yes"/>
      <point x="334" y="80"/>
      <point x="244" y="5"/>
    </contour>
  </outline>
</glyph>
<glyph name="nine" format="1">
  <advance width="386"/>
  <unicode hex="0039"/>
  <outline>
    <contour>
      <point x="235" y="642" type="curve" smooth="yes"/>
      <point x="181" y="642"/>
      <point x="132" y="623"/>
      <point x="89" y="585" type="curve" smooth="yes"/>
      <point x="45" y="548"/>
      <point x="18" y="503"/>
      <point x="9" y="449" type="curve" smooth="yes"/>
      <point x="-1" y="396"/>
      <point x="10" y="350"/>
      <point x="41" y="313" type="curve" smooth="yes"/>
      <point x="71" y="276"/>
      <point x="114" y="257"/>
      <point x="168" y="257" type="curve" smooth="yes"/>
      <point x="238" y="257"/>
      <point x="312" y="290"/>
      <point x="363" y="371" type="curve"/>
      <point x="337" y="224" type="line" smooth="yes"/>
      <point x="323" y="147"/>
      <point x="286" y="89"/>
      <point x="241" y="59" type="curve" smooth="yes"/>
      <point x="198" y="31"/>
      <point x="151" y="18"/>
      <point x="100" y="18" type="curve" smooth="yes"/>
      <point x="65" y="18" type="line"/>
      <point x="61" y="-1" type="line"/>
      <point x="93" y="-1" type="line" smooth="yes"/>
      <point x="173" y="-1"/>
      <point x="242" y="30"/>
      <point x="282" y="75" type="curve" smooth="yes"/>
      <point x="320" y="117"/>
      <point x="343" y="164"/>
      <point x="352" y="213" type="curve" smooth="yes"/>
      <point x="394" y="449" type="line" smooth="yes"/>
      <point x="403" y="503"/>
      <point x="392" y="549"/>
      <point x="362" y="586" type="curve" smooth="yes"/>
      <point x="331" y="623"/>
      <point x="288" y="642"/>
    </contour>
    <contour>
      <point x="232" y="625" type="curve" smooth="yes"/>
      <point x="329" y="625"/>
      <point x="394" y="547"/>
      <point x="377" y="450" type="curve" smooth="yes"/>
      <point x="360" y="353"/>
      <point x="267" y="274"/>
      <point x="170" y="274" type="curve" smooth="yes"/>
      <point x="73" y="274"/>
      <point x="9" y="353"/>
      <point x="26" y="450" type="curve" smooth="yes"/>
      <point x="43" y="547"/>
      <point x="135" y="625"/>
    </contour>
  </outline>
</glyph>
<glyph name="colon" format="1">
  <advance width="93"/>
  <unicode hex="003A"/>
  <outline>
    <contour>
      <point x="43" y="130" type="curve"/>
      <point x="45" y="139"/>
      <point x="39" y="145"/>
      <point x="31" y="145" type="curve" smooth="yes"/>
      <point x="22" y="145"/>
      <point x="14" y="139"/>
      <point x="12" y="130" type="curve"/>
      <point x="11" y="122"/>
      <point x="17" y="115"/>
      <point x="26" y="115" type="curve" smooth="yes"/>
      <point x="34" y="115"/>
      <point x="42" y="122"/>
    </contour>
    <contour>
      <point x="82" y="349" type="curve"/>
      <point x="83" y="357"/>
      <point x="78" y="364"/>
      <point x="70" y="364" type="curve" smooth="yes"/>
      <point x="61" y="364"/>
      <point x="52" y="357"/>
      <point x="51" y="349" type="curve"/>
      <point x="49" y="340"/>
      <point x="55" y="334"/>
      <point x="64" y="334" type="curve" smooth="yes"/>
      <point x="72" y="334"/>
      <point x="80" y="340"/>
    </contour>
  </outline>
</glyph>
<glyph name="semicolon" format="1">
  <advance width="117"/>
  <unicode hex="003B"/>
  <outline>
    <contour>
      <point x="11" y="62" type="curve"/>
      <point x="19" y="57" type="line"/>
      <point x="19" y="57"/>
      <point x="57" y="79"/>
      <point x="66" y="127" type="curve"/>
      <point x="67" y="136"/>
      <point x="63" y="142"/>
      <point x="54" y="142" type="curve" smooth="yes"/>
      <point x="46" y="142"/>
      <point x="37" y="135"/>
      <point x="36" y="127" type="curve" smooth="yes"/>
      <point x="35" y="120"/>
      <point x="38" y="114"/>
      <point x="43" y="112" type="curve"/>
      <point x="40" y="99"/>
      <point x="32" y="79"/>
    </contour>
    <contour>
      <point x="106" y="349" type="curve"/>
      <point x="107" y="357"/>
      <point x="102" y="364"/>
      <point x="94" y="364" type="curve" smooth="yes"/>
      <point x="85" y="364"/>
      <point x="76" y="357"/>
      <point x="75" y="349" type="curve"/>
      <point x="73" y="340"/>
      <point x="79" y="334"/>
      <point x="88" y="334" type="curve" smooth="yes"/>
      <point x="96" y="334"/>
      <point x="104" y="340"/>
    </contour>
  </outline>
</glyph>
<glyph name="equal" format="1">
  <advance width="332"/>
  <unicode hex="003D"/>
  <outline>
    <contour>
      <point x="321" y="374" type="line"/>
      <point x="31" y="374" type="line"/>
      <point x="28" y="357" type="line"/>
      <point x="318" y="357" type="line"/>
    </contour>
    <contour>
      <point x="305" y="279" type="line"/>
      <point x="15" y="279" type="line"/>
      <point x="12" y="262" type="line"/>
      <point x="302" y="262" type="line"/>
    </contour>
  </outline>
</glyph>
<glyph name="greater" format="1">
  <advance width="328"/>
  <unicode hex="003E"/>
  <outline>
    <contour>
      <point x="11" y="85" type="line"/>
      <point x="21" y="72" type="line"/>
      <point x="318" y="325" type="line"/>
      <point x="110" y="577" type="line"/>
      <point x="96" y="566" type="line"/>
      <point x="297" y="324" type="line"/>
    </contour>
  </outline>
</glyph>
<glyph name="question" format="1">
  <advance width="354"/>
  <unicode hex="003F"/>
  <outline>
    <contour>
      <point x="12" y="482" type="curve"/>
      <point x="29" y="482" type="line"/>
      <point x="47" y="581"/>
      <point x="128" y="626"/>
      <point x="198" y="626" type="curve" smooth="yes"/>
      <point x="285" y="626"/>
      <point x="330" y="560"/>
      <point x="317" y="486" type="curve" smooth="yes"/>
      <point x="309" y="438"/>
      <point x="286" y="405"/>
      <point x="237" y="357" type="curve" smooth="yes"/>
      <point x="160" y="282"/>
      <point x="115" y="266"/>
      <point x="98" y="170" type="curve" smooth="yes"/>
      <point x="88" y="108" type="line"/>
      <point x="105" y="108" type="line"/>
      <point x="105" y="108"/>
      <point x="112" y="153"/>
      <point x="116" y="175" type="curve" smooth="yes"/>
      <point x="129" y="246"/>
      <point x="154" y="262"/>
      <point x="240" y="339" type="curve" smooth="yes"/>
      <point x="287" y="381"/>
      <point x="322" y="421"/>
      <point x="333" y="487" type="curve" smooth="yes"/>
      <point x="351" y="587"/>
      <point x="281" y="641"/>
      <point x="201" y="643" type="curve" smooth="yes"/>
      <point x="121" y="644"/>
      <point x="32" y="593"/>
    </contour>
    <contour>
      <point x="82" y="27" type="curve" smooth="yes"/>
      <point x="73" y="27"/>
      <point x="65" y="20"/>
      <point x="64" y="12" type="curve"/>
      <point x="62" y="3"/>
      <point x="68" y="-4"/>
      <point x="77" y="-4" type="curve" smooth="yes"/>
      <point x="85" y="-4"/>
      <point x="93" y="3"/>
      <point x="95" y="12" type="curve"/>
      <point x="96" y="20"/>
      <point x="90" y="27"/>
    </contour>
  </outline>
</glyph>
<glyph name="at" format="1">
  <advance width="679"/>
  <unicode hex="0040"/>
  <outline>
    <contour>
      <point x="669" y="429" type="curve"/>
      <point x="662" y="440" type="line"/>
      <point x="624" y="415"/>
      <point x="618" y="397"/>
      <point x="607" y="337" type="curve" smooth="yes"/>
      <point x="593" y="256"/>
      <point x="582" y="198"/>
      <point x="574" y="153" type="curve" smooth="yes"/>
      <point x="553" y="32"/>
      <point x="400" y="-44"/>
      <point x="270" y="-44" type="curve" smooth="yes"/>
      <point x="94" y="-44"/>
      <point x="21" y="48"/>
      <point x="44" y="180" type="curve" smooth="yes"/>
      <point x="51" y="217"/>
      <point x="58" y="257"/>
      <point x="67" y="307" type="curve" smooth="yes"/>
      <point x="93" y="455"/>
      <point x="213" y="510"/>
      <point x="322" y="510" type="curve" smooth="yes"/>
      <point x="432" y="510"/>
      <point x="480" y="462"/>
      <point x="485" y="402" type="curve"/>
      <point x="485" y="402"/>
      <point x="331" y="402"/>
      <point x="316" y="402" type="curve" smooth="yes"/>
      <point x="244" y="402"/>
      <point x="172" y="371"/>
      <point x="153" y="262" type="curve" smooth="yes"/>
      <point x="142" y="202" type="line" smooth="yes"/>
      <point x="129" y="127"/>
      <point x="153" y="55"/>
      <point x="275" y="55" type="curve" smooth="yes"/>
      <point x="342" y="55"/>
      <point x="444" y="63"/>
      <point x="444" y="63" type="curve"/>
      <point x="444" y="63"/>
      <point x="496" y="361"/>
      <point x="500" y="385" type="curve"/>
      <point x="551" y="385" type="line"/>
      <point x="563" y="402" type="line"/>
      <point x="500" y="402" type="line"/>
      <point x="497" y="486"/>
      <point x="418" y="526"/>
      <point x="325" y="526" type="curve" smooth="yes"/>
      <point x="168" y="526"/>
      <point x="70" y="428"/>
      <point x="48" y="303" type="curve" smooth="yes"/>
      <point x="42" y="268"/>
      <point x="34" y="224"/>
      <point x="27" y="183" type="curve" smooth="yes"/>
      <point x="-1" y="28"/>
      <point x="96" y="-61"/>
      <point x="263" y="-61" type="curve" smooth="yes"/>
      <point x="407" y="-61"/>
      <point x="566" y="20"/>
      <point x="590" y="155" type="curve" smooth="yes"/>
      <point x="624" y="351" type="line" smooth="yes"/>
      <point x="633" y="402"/>
      <point x="643" y="410"/>
    </contour>
    <contour>
      <point x="309" y="385" type="curve" smooth="yes"/>
      <point x="310" y="385"/>
      <point x="464" y="385"/>
      <point x="485" y="385" type="curve"/>
      <point x="431" y="79" type="line"/>
      <point x="431" y="79"/>
      <point x="341" y="72"/>
      <point x="277" y="72" type="curve" smooth="yes"/>
      <point x="182" y="72"/>
      <point x="142" y="118"/>
      <point x="158" y="206" type="curve" smooth="yes"/>
      <point x="167" y="259" type="line" smooth="yes"/>
      <point x="181" y="338"/>
      <point x="229" y="385"/>
    </contour>
  </outline>
</glyph>
<glyph name="C" format="1">
  <advance width="361"/>
  <unicode hex="0043"/>
  <outline>
    <contour>
      <point x="373" y="598" type="curve"/>
      <point x="383" y="614" type="line"/>
      <point x="349" y="634"/>
      <point x="308" y="644"/>
      <point x="259" y="644" type="curve" smooth="yes"/>
      <point x="221" y="644"/>
      <point x="187" y="636"/>
      <point x="158" y="621" type="curve" smooth="yes"/>
      <point x="99" y="588"/>
      <point x="66" y="548"/>
      <point x="50" y="457" type="curve" smooth="yes"/>
      <point x="-1" y="166" type="line" smooth="yes"/>
      <point x="-15" y="90"/>
      <point x="6" y="38"/>
      <point x="46" y="14" type="curve" smooth="yes"/>
      <point x="86" y="-9"/>
      <point x="130" y="-9"/>
      <point x="149" y="-9" type="curve" smooth="yes"/>
      <point x="195" y="-9"/>
      <point x="246" y="1"/>
      <point x="301" y="21" type="curve"/>
      <point x="298" y="37" type="line"/>
      <point x="241" y="16"/>
      <point x="193" y="6"/>
      <point x="157" y="6" type="curve" smooth="yes"/>
      <point x="122" y="6"/>
      <point x="82" y="11"/>
      <point x="58" y="29" type="curve" smooth="yes"/>
      <point x="24" y="53"/>
      <point x="2" y="96"/>
      <point x="16" y="168" type="curve" smooth="yes"/>
      <point x="68" y="465" type="line" smooth="yes"/>
      <point x="78" y="520"/>
      <point x="106" y="563"/>
      <point x="132" y="585" type="curve" smooth="yes"/>
      <point x="159" y="607"/>
      <point x="204" y="626"/>
      <point x="259" y="626" type="curve" smooth="yes"/>
      <point x="296" y="626"/>
      <point x="333" y="617"/>
    </contour>
  </outline>
</glyph>
<glyph name="F" format="1">
  <advance width="355"/>
  <unicode hex="0046"/>
  <outline>
    <contour>
      <point x="-15" y="0" type="line"/>
      <point x="3" y="0" type="line"/>
      <point x="65" y="357" type="line"/>
      <point x="265" y="357" type="line"/>
      <point x="275" y="374" type="line"/>
      <point x="68" y="374" type="line"/>
      <point x="111" y="616" type="line"/>
      <point x="396" y="616" type="line"/>
      <point x="399" y="635" type="line"/>
      <point x="96" y="635" type="line"/>
    </contour>
  </outline>
</glyph>
<glyph name="I" format="1">
  <advance width="105"/>
  <unicode hex="0049"/>
  <outline>
    <contour>
      <point x="-3" y="0" type="line"/>
      <point x="14" y="0" type="line"/>
      <point x="125" y="635" type="line"/>
      <point x="30" y="635" type="line"/>
      <point x="27" y="617" type="line"/>
      <point x="105" y="615" type="line"/>
    </contour>
  </outline>
</glyph>
<glyph name="J" format="1">
  <advance width="165"/>
  <unicode hex="004A"/>
  <outline>
    <contour>
      <point x="94" y="111" type="curve" smooth="yes"/>
      <point x="186" y="635" type="line"/>
      <point x="93" y="635" type="line"/>
      <point x="90" y="617" type="line"/>
      <point x="167" y="615" type="line"/>
      <point x="77" y="107" type="line" smooth="yes"/>
      <point x="64" y="32"/>
      <point x="28" y="-9"/>
      <point x="-28" y="-17" type="curve"/>
      <point x="-25" y="-34" type="line"/>
      <point x="10" y="-28"/>
      <point x="36" y="-14"/>
      <point x="55" y="11" type="curve" smooth="yes"/>
      <point x="74" y="34"/>
      <point x="86" y="66"/>
    </contour>
  </outline>
</glyph>
<glyph name="O" format="1">
  <advance width="432"/>
  <unicode hex="004F"/>
  <outline>
    <contour>
      <point x="54" y="460" type="curve" smooth="yes"/>
      <point x="2" y="168" type="line" smooth="yes"/>
      <point x="-19" y="51"/>
      <point x="55" y="-10"/>
      <point x="162" y="-10" type="curve" smooth="yes"/>
      <point x="275" y="-10"/>
      <point x="363" y="57"/>
      <point x="382" y="168" type="curve" smooth="yes"/>
      <point x="433" y="459" type="line" smooth="yes"/>
      <point x="454" y="577"/>
      <point x="398" y="649"/>
      <point x="279" y="649" type="curve" smooth="yes"/>
      <point x="159" y="649"/>
      <point x="75" y="584"/>
    </contour>
    <contour>
      <point x="19" y="167" type="curve" smooth="yes"/>
      <point x="71" y="460" type="line" smooth="yes"/>
      <point x="89" y="565"/>
      <point x="159" y="630"/>
      <point x="274" y="630" type="curve" smooth="yes"/>
      <point x="389" y="630"/>
      <point x="435" y="567"/>
      <point x="417" y="462" type="curve" smooth="yes"/>
      <point x="365" y="167" type="line" smooth="yes"/>
      <point x="346" y="60"/>
      <point x="262" y="7"/>
      <point x="165" y="7" type="curve" smooth="yes"/>
      <point x="67" y="7"/>
      <point x="2" y="70"/>
    </contour>
  </outline>
</glyph>
<glyph name="P" format="1">
  <advance width="452"/>
  <unicode hex="0050"/>
  <outline>
    <contour>
      <point x="322" y="635" type="curve" smooth="yes"/>
      <point x="96" y="635" type="line"/>
      <point x="-15" y="0" type="line"/>
      <point x="2" y="0" type="line"/>
      <point x="46" y="255" type="line"/>
      <point x="118" y="255"/>
      <point x="194" y="255"/>
      <point x="249" y="255" type="curve" smooth="yes"/>
      <point x="371" y="255"/>
      <point x="435" y="322"/>
      <point x="457" y="447" type="curve" smooth="yes"/>
      <point x="478" y="565"/>
      <point x="437" y="635"/>
    </contour>
    <contour>
      <point x="49" y="272" type="curve"/>
      <point x="110" y="616" type="line"/>
      <point x="320" y="616" type="line" smooth="yes"/>
      <point x="425" y="616"/>
      <point x="458" y="554"/>
      <point x="439" y="447" type="curve" smooth="yes"/>
      <point x="419" y="334"/>
      <point x="362" y="272"/>
      <point x="251" y="272" type="curve" smooth="yes"/>
      <point x="201" y="272"/>
      <point x="129" y="272"/>
    </contour>
  </outline>
</glyph>
<glyph name="S" format="1">
  <advance width="436"/>
  <unicode hex="0053"/>
  <outline>
    <contour>
      <point x="431" y="592" type="curve"/>
      <point x="440" y="609" type="line"/>
      <point x="403" y="631"/>
      <point x="353" y="643"/>
      <point x="302" y="643" type="curve" smooth="yes"/>
      <point x="253" y="643"/>
      <point x="202" y="632"/>
      <point x="162" y="608" type="curve" smooth="yes"/>
      <point x="121" y="585"/>
      <point x="89" y="548"/>
      <point x="78" y="497" type="curve" smooth="yes"/>
      <point x="60" y="418"/>
      <point x="121" y="379"/>
      <point x="196" y="346" type="curve" smooth="yes"/>
      <point x="226" y="333"/>
      <point x="258" y="321"/>
      <point x="288" y="307" type="curve" smooth="yes"/>
      <point x="356" y="276"/>
      <point x="410" y="239"/>
      <point x="397" y="162" type="curve" smooth="yes"/>
      <point x="389" y="113"/>
      <point x="365" y="77"/>
      <point x="333" y="52" type="curve" smooth="yes"/>
      <point x="289" y="20"/>
      <point x="231" y="6"/>
      <point x="173" y="6" type="curve" smooth="yes"/>
      <point x="114" y="6"/>
      <point x="75" y="23"/>
      <point x="48" y="44" type="curve" smooth="yes"/>
      <point x="3" y="80"/>
      <point x="-4" y="129"/>
      <point x="-4" y="129" type="curve"/>
      <point x="-18" y="121" type="line"/>
      <point x="-18" y="121"/>
      <point x="-12" y="68"/>
      <point x="37" y="29" type="curve" smooth="yes"/>
      <point x="65" y="7"/>
      <point x="107" y="-11"/>
      <point x="170" y="-11" type="curve" smooth="yes"/>
      <point x="239" y="-11"/>
      <point x="299" y="7"/>
      <point x="343" y="40" type="curve" smooth="yes"/>
      <point x="382" y="69"/>
      <point x="408" y="110"/>
      <point x="416" y="161" type="curve" smooth="yes"/>
      <point x="432" y="244"/>
      <point x="370" y="289"/>
      <point x="297" y="323" type="curve" smooth="yes"/>
      <point x="268" y="337"/>
      <point x="236" y="350"/>
      <point x="206" y="362" type="curve" smooth="yes"/>
      <point x="108" y="404"/>
      <point x="85" y="439"/>
      <point x="95" y="494" type="curve" smooth="yes"/>
      <point x="103" y="540"/>
      <point x="137" y="579"/>
      <point x="173" y="598" type="curve" smooth="yes"/>
      <point x="215" y="620"/>
      <point x="259" y="628"/>
      <point x="300" y="628" type="curve" smooth="yes"/>
      <point x="353" y="627"/>
      <point x="401" y="612"/>
    </contour>
  </outline>
</glyph>
<glyph name="T" format="1">
  <advance width="311"/>
  <unicode hex="0054"/>
  <outline>
    <contour>
      <point x="362" y="635" type="line"/>
      <point x="-3" y="635" type="line"/>
      <point x="-6" y="616" type="line"/>
      <point x="166" y="616" type="line"/>
      <point x="59" y="0" type="line"/>
      <point x="75" y="0" type="line"/>
      <point x="183" y="616" type="line"/>
      <point x="359" y="616" type="line"/>
    </contour>
  </outline>
</glyph>
<glyph name="V" format="1">
  <advance width="400"/>
  <unicode hex="0056"/>
  <outline>
    <contour>
      <point x="124" y="0" type="line"/>
      <point x="440" y="635" type="line"/>
      <point x="423" y="635" type="line"/>
      <point x="117" y="24" type="line"/>
      <point x="24" y="635" type="line"/>
      <point x="7" y="635" type="line"/>
      <point x="104" y="0" type="line"/>
    </contour>
  </outline>
</glyph>
<glyph name="W" format="1">
  <advance width="604"/>
  <unicode hex="0057"/>
  <outline>
    <contour>
      <point x="80" y="33" type="line"/>
      <point x="30" y="635" type="line"/>
      <point x="11" y="635" type="line"/>
      <point x="66" y="0" type="line"/>
      <point x="85" y="0" type="line"/>
      <point x="321" y="592" type="line"/>
      <point x="348" y="0" type="line"/>
      <point x="367" y="0" type="line"/>
      <point x="642" y="635" type="line"/>
      <point x="622" y="635" type="line"/>
      <point x="363" y="32" type="line"/>
      <point x="337" y="635" type="line"/>
      <point x="318" y="635" type="line"/>
    </contour>
  </outline>
</glyph>
<glyph name="X" format="1">
  <advance width="503"/>
  <unicode hex="0058"/>
  <outline>
    <contour>
      <point x="102" y="635" type="line"/>
      <point x="252" y="330" type="line"/>
      <point x="-26" y="0" type="line"/>
      <point x="-3" y="0" type="line"/>
      <point x="259" y="314" type="line"/>
      <point x="414" y="0" type="line"/>
      <point x="437" y="0" type="line"/>
      <point x="274" y="330" type="line"/>
      <point x="530" y="635" type="line"/>
      <point x="508" y="635" type="line"/>
      <point x="265" y="346" type="line"/>
      <point x="122" y="635" type="line"/>
    </contour>
  </outline>
</glyph>
<glyph name="Z" format="1">
  <advance width="492"/>
  <unicode hex="005A"/>
  <outline>
    <contour>
      <point x="95" y="617" type="line"/>
      <point x="497" y="617" type="line"/>
      <point x="-23" y="17" type="line"/>
      <point x="-25" y="0" type="line"/>
      <point x="416" y="0" type="line"/>
      <point x="418" y="17" type="line"/>
      <point x="-2" y="17" type="line"/>
      <point x="519" y="617" type="line"/>
      <point x="522" y="635" type="line"/>
      <point x="97" y="635" type="line"/>
    </contour>
  </outline>
</glyph>
<glyph name="bracketleft" format="1">
  <advance width="316"/>
  <unicode hex="005B"/>
  <outline>
    <contour>
      <point x="306" y="741" type="line"/>
      <point x="160" y="741" type="line"/>
      <point x="11" y="-103" type="line"/>
      <point x="157" y="-103" type="line"/>
      <point x="160" y="-87" type="line"/>
      <point x="31" y="-86" type="line"/>
      <point x="174" y="724" type="line"/>
      <point x="303" y="725" type="line"/>
    </contour>
  </outline>
</glyph>
<glyph name="backslash" format="1">
  <advance width="184"/>
  <unicode hex="005C"/>
  <outline>
    <contour>
      <point x="30" y="741" type="line"/>
      <point x="11" y="741" type="line"/>
      <point x="156" y="-103" type="line"/>
      <point x="174" y="-103" type="line"/>
    </contour>
  </outline>
</glyph>
<glyph name="bracketright" format="1">
  <advance width="315"/>
  <unicode hex="005D"/>
  <outline>
    <contour>
      <point x="305" y="741" type="line"/>
      <point x="159" y="741" type="line"/>
      <point x="156" y="725" type="line"/>
      <point x="285" y="724" type="line"/>
      <point x="142" y="-86" type="line"/>
      <point x="14" y="-87" type="line"/>
      <point x="11" y="-103" type="line"/>
      <point x="156" y="-103" type="line"/>
    </contour>
  </outline>
</glyph>
<glyph name="asciicircum" format="1">
  <advance width="363"/>
  <unicode hex="005E"/>
  <outline>
    <contour>
      <point x="435" y="708" type="line"/>
      <point x="345" y="815" type="line"/>
      <point x="214" y="707" type="line"/>
      <point x="226" y="694" type="line"/>
      <point x="340" y="788" type="line"/>
      <point x="419" y="694" type="line"/>
    </contour>
  </outline>
</glyph>
<glyph name="grave" format="1">
  <advance width="199"/>
  <unicode hex="0060"/>
  <outline>
    <contour>
      <point x="200" y="661" type="line" smooth="yes"/>
      <point x="198" y="669"/>
      <point x="190" y="674"/>
      <point x="183" y="670" type="curve" smooth="yes"/>
      <point x="174" y="665"/>
      <point x="172" y="656"/>
      <point x="175" y="649" type="curve"/>
      <point x="210" y="557" type="line"/>
      <point x="229" y="557" type="line"/>
    </contour>
  </outline>
</glyph>
<glyph name="b" format="1">
  <advance width="392"/>
  <unicode hex="0062"/>
  <outline>
    <contour>
      <point x="78" y="427" type="curve"/>
      <point x="114" y="635" type="line"/>
      <point x="97" y="635" type="line"/>
      <point x="-15" y="-1" type="line"/>
      <point x="-15" y="-1"/>
      <point x="110" y="-10"/>
      <point x="147" y="-10" type="curve" smooth="yes"/>
      <point x="280" y="-10"/>
      <point x="342" y="45"/>
      <point x="361" y="153" type="curve"/>
      <point x="362" y="154"/>
      <point x="392" y="325"/>
      <point x="392" y="325" type="curve"/>
      <point x="402" y="383"/>
      <point x="376" y="462"/>
      <point x="254" y="462" type="curve" smooth="yes"/>
      <point x="188" y="462"/>
      <point x="128" y="447"/>
    </contour>
    <contour>
      <point x="5" y="16" type="curve"/>
      <point x="5" y="16"/>
      <point x="75" y="409"/>
      <point x="75" y="409" type="curve"/>
      <point x="126" y="431"/>
      <point x="186" y="446"/>
      <point x="252" y="446" type="curve" smooth="yes"/>
      <point x="346" y="446"/>
      <point x="386" y="390"/>
      <point x="374" y="322" type="curve" smooth="yes"/>
      <point x="370" y="300"/>
      <point x="347" y="165"/>
      <point x="343" y="146" type="curve" smooth="yes"/>
      <point x="332" y="81"/>
      <point x="291" y="4"/>
      <point x="150" y="6" type="curve" smooth="yes"/>
      <point x="108" y="7"/>
      <point x="5" y="16"/>
    </contour>
  </outline>
</glyph>
<glyph name="c" format="1">
  <advance width="320"/>
  <unicode hex="0063"/>
  <outline>
    <contour>
      <point x="325" y="415" type="curve"/>
      <point x="334" y="433" type="line"/>
      <point x="285" y="458"/>
      <point x="227" y="469"/>
      <point x="173" y="458" type="curve" smooth="yes"/>
      <point x="131" y="449"/>
      <point x="92" y="427"/>
      <point x="61" y="387" type="curve" smooth="yes"/>
      <point x="39" y="358"/>
      <point x="28" y="329"/>
      <point x="18" y="289" type="curve"/>
      <point x="-5" y="157" type="line" smooth="yes"/>
      <point x="-21" y="68"/>
      <point x="11" y="21"/>
      <point x="70" y="1" type="curve" smooth="yes"/>
      <point x="121" y="-16"/>
      <point x="196" y="-12"/>
      <point x="260" y="5" type="curve"/>
      <point x="260" y="23" type="line"/>
      <point x="260" y="23"/>
      <point x="150" y="-7"/>
      <point x="74" y="19" type="curve" smooth="yes"/>
      <point x="13" y="41"/>
      <point x="0" y="90"/>
      <point x="13" y="159" type="curve" smooth="yes"/>
      <point x="35" y="285" type="line" smooth="yes"/>
      <point x="41" y="323"/>
      <point x="56" y="354"/>
      <point x="75" y="379" type="curve" smooth="yes"/>
      <point x="101" y="412"/>
      <point x="137" y="433"/>
      <point x="176" y="441" type="curve" smooth="yes"/>
      <point x="224" y="451"/>
      <point x="276" y="442"/>
    </contour>
  </outline>
</glyph>
<glyph name="d" format="1">
  <advance width="410"/>
  <unicode hex="0064"/>
  <outline>
    <contour>
      <point x="318" y="-1" type="curve"/>
      <point x="430" y="635" type="line"/>
      <point x="413" y="635" type="line"/>
      <point x="377" y="427" type="line"/>
      <point x="333" y="447"/>
      <point x="280" y="462"/>
      <point x="214" y="462" type="curve" smooth="yes"/>
      <point x="92" y="462"/>
      <point x="37" y="383"/>
      <point x="27" y="325" type="curve"/>
      <point x="27" y="325"/>
      <point x="-3" y="154"/>
      <point x="-4" y="153" type="curve"/>
      <point x="-23" y="45"/>
      <point x="22" y="-10"/>
      <point x="154" y="-10" type="curve" smooth="yes"/>
      <point x="191" y="-10"/>
      <point x="318" y="-1"/>
    </contour>
    <contour>
      <point x="374" y="409" type="curve"/>
      <point x="374" y="409"/>
      <point x="304" y="16"/>
      <point x="304" y="16" type="curve"/>
      <point x="304" y="16"/>
      <point x="200" y="7"/>
      <point x="158" y="6" type="curve" smooth="yes"/>
      <point x="15" y="4"/>
      <point x="2" y="81"/>
      <point x="13" y="146" type="curve" smooth="yes"/>
      <point x="17" y="165"/>
      <point x="40" y="300"/>
      <point x="44" y="322" type="curve" smooth="yes"/>
      <point x="56" y="390"/>
      <point x="115" y="446"/>
      <point x="209" y="446" type="curve" smooth="yes"/>
      <point x="276" y="446"/>
      <point x="330" y="431"/>
    </contour>
  </outline>
</glyph>
<glyph name="f" format="1">
  <advance width="229"/>
  <unicode hex="0066"/>
  <outline>
    <contour>
      <point x="258" y="625" type="curve"/>
      <point x="264" y="641" type="line"/>
      <point x="254" y="644"/>
      <point x="243" y="644"/>
      <point x="232" y="644" type="curve" smooth="yes"/>
      <point x="168" y="644"/>
      <point x="91" y="609"/>
      <point x="71" y="498" type="curve" smooth="yes"/>
      <point x="-16" y="0" type="line"/>
      <point x="2" y="0" type="line"/>
      <point x="79" y="438" type="line"/>
      <point x="209" y="438" type="line"/>
      <point x="218" y="453" type="line"/>
      <point x="81" y="453" type="line"/>
      <point x="89" y="496"/>
      <point x="89" y="497"/>
      <point x="89" y="498" type="curve"/>
      <point x="108" y="602"/>
      <point x="179" y="630"/>
      <point x="234" y="628" type="curve" smooth="yes"/>
      <point x="242" y="628"/>
      <point x="250" y="626"/>
    </contour>
  </outline>
</glyph>
<glyph name="g" format="1">
  <advance width="374"/>
  <unicode hex="0067"/>
  <outline>
    <contour>
      <point x="294" y="-58" type="curve" smooth="yes"/>
      <point x="384" y="453" type="line"/>
      <point x="366" y="453" type="line"/>
      <point x="359" y="410" type="line"/>
      <point x="320" y="443"/>
      <point x="253" y="460"/>
      <point x="210" y="462" type="curve" smooth="yes"/>
      <point x="111" y="466"/>
      <point x="42" y="409"/>
      <point x="25" y="313" type="curve" smooth="yes"/>
      <point x="-2" y="159" type="line" smooth="yes"/>
      <point x="-22" y="48"/>
      <point x="25" y="-11"/>
      <point x="126" y="-11" type="curve" smooth="yes"/>
      <point x="182" y="-11"/>
      <point x="269" y="20"/>
      <point x="299" y="73" type="curve"/>
      <point x="276" y="-57" type="line" smooth="yes"/>
      <point x="260" y="-148"/>
      <point x="201" y="-164"/>
      <point x="171" y="-175" type="curve"/>
      <point x="173" y="-191" type="line"/>
      <point x="246" y="-169"/>
      <point x="281" y="-131"/>
    </contour>
    <contour>
      <point x="355" y="387" type="curve"/>
      <point x="310" y="134" type="line" smooth="yes"/>
      <point x="294" y="45"/>
      <point x="195" y="2"/>
      <point x="116" y="7" type="curve" smooth="yes"/>
      <point x="38" y="11"/>
      <point x="-2" y="61"/>
      <point x="14" y="153" type="curve" smooth="yes"/>
      <point x="43" y="315" type="line" smooth="yes"/>
      <point x="60" y="409"/>
      <point x="126" y="442"/>
      <point x="193" y="444" type="curve" smooth="yes"/>
      <point x="244" y="446"/>
      <point x="323" y="427"/>
    </contour>
  </outline>
</glyph>
<glyph name="h" format="1">
  <advance width="386"/>
  <unicode hex="0068"/>
  <outline>
    <contour>
      <point x="78" y="428" type="curve"/>
      <point x="114" y="635" type="line"/>
      <point x="96" y="635" type="line"/>
      <point x="-15" y="0" type="line"/>
      <point x="3" y="0" type="line"/>
      <point x="75" y="412" type="line"/>
      <point x="111" y="428"/>
      <point x="172" y="445"/>
      <point x="225" y="448" type="curve" smooth="yes"/>
      <point x="324" y="453"/>
      <point x="376" y="417"/>
      <point x="358" y="315" type="curve" smooth="yes"/>
      <point x="303" y="0" type="line"/>
      <point x="320" y="0" type="line"/>
      <point x="375" y="314" type="line" smooth="yes"/>
      <point x="400" y="455"/>
      <point x="296" y="467"/>
      <point x="216" y="462" type="curve" smooth="yes"/>
      <point x="168" y="459"/>
      <point x="109" y="441"/>
    </contour>
  </outline>
</glyph>
<glyph name="i" format="1">
  <advance width="99"/>
  <unicode hex="0069"/>
  <outline>
    <contour>
      <point x="83" y="454" type="line"/>
      <point x="66" y="454" type="line"/>
      <point x="-14" y="0" type="line"/>
      <point x="3" y="0" type="line"/>
    </contour>
    <contour>
      <point x="108" y="644" type="curve" smooth="yes"/>
      <point x="99" y="644"/>
      <point x="91" y="637"/>
      <point x="89" y="628" type="curve"/>
      <point x="88" y="620"/>
      <point x="94" y="613"/>
      <point x="103" y="613" type="curve" smooth="yes"/>
      <point x="111" y="613"/>
      <point x="119" y="620"/>
      <point x="120" y="628" type="curve"/>
      <point x="122" y="637"/>
      <point x="116" y="644"/>
    </contour>
  </outline>
</glyph>
<glyph name="j" format="1">
  <advance width="185"/>
  <unicode hex="006A"/>
  <outline>
    <contour>
      <point x="77" y="-62" type="curve" smooth="yes"/>
      <point x="168" y="454" type="line"/>
      <point x="75" y="454" type="line"/>
      <point x="72" y="437" type="line"/>
      <point x="149" y="437" type="line"/>
      <point x="61" y="-61" type="line" smooth="yes"/>
      <point x="54" y="-102"/>
      <point x="39" y="-130"/>
      <point x="17" y="-146" type="curve" smooth="yes"/>
      <point x="-7" y="-163"/>
      <point x="-16" y="-167"/>
      <point x="-45" y="-178" type="curve"/>
      <point x="-43" y="-194" type="line"/>
      <point x="-14" y="-185"/>
      <point x="9" y="-174"/>
      <point x="27" y="-159" type="curve" smooth="yes"/>
      <point x="54" y="-136"/>
      <point x="69" y="-105"/>
    </contour>
    <contour>
      <point x="205" y="628" type="curve"/>
      <point x="207" y="637"/>
      <point x="202" y="643"/>
      <point x="193" y="643" type="curve" smooth="yes"/>
      <point x="185" y="643"/>
      <point x="177" y="637"/>
      <point x="175" y="628" type="curve"/>
      <point x="174" y="620"/>
      <point x="180" y="613"/>
      <point x="188" y="613" type="curve" smooth="yes"/>
      <point x="197" y="613"/>
      <point x="204" y="620"/>
    </contour>
  </outline>
</glyph>
<glyph name="k" format="1">
  <advance width="326"/>
  <unicode hex="006B"/>
  <outline>
    <contour>
      <point x="165" y="344" type="curve"/>
      <point x="311" y="460" type="line"/>
      <point x="301" y="471" type="line"/>
      <point x="51" y="273" type="line"/>
      <point x="114" y="635" type="line"/>
      <point x="96" y="635" type="line"/>
      <point x="-15" y="0" type="line"/>
      <point x="3" y="0" type="line"/>
      <point x="47" y="251" type="line"/>
      <point x="150" y="332" type="line"/>
      <point x="297" y="0" type="line"/>
      <point x="318" y="0" type="line"/>
      <point x="261" y="123"/>
      <point x="210" y="238"/>
    </contour>
  </outline>
</glyph>
<glyph name="m" format="1">
  <advance width="633"/>
  <unicode hex="006D"/>
  <outline>
    <contour>
      <point x="606" y="313" type="curve" smooth="yes"/>
      <point x="551" y="0" type="line"/>
      <point x="566" y="0" type="line"/>
      <point x="621" y="312" type="line" smooth="yes"/>
      <point x="646" y="454"/>
      <point x="562" y="467"/>
      <point x="482" y="461" type="curve" smooth="yes"/>
      <point x="436" y="458"/>
      <point x="371" y="436"/>
      <point x="332" y="413" type="curve"/>
      <point x="310" y="460"/>
      <point x="253" y="465"/>
      <point x="199" y="461" type="curve" smooth="yes"/>
      <point x="151" y="457"/>
      <point x="105" y="442"/>
      <point x="76" y="427" type="curve"/>
      <point x="80" y="453" type="line"/>
      <point x="62" y="453" type="line"/>
      <point x="-17" y="0" type="line"/>
      <point x="1" y="0" type="line"/>
      <point x="73" y="410" type="line"/>
      <point x="109" y="427"/>
      <point x="146" y="443"/>
      <point x="200" y="447" type="curve" smooth="yes"/>
      <point x="299" y="454"/>
      <point x="340" y="416"/>
      <point x="322" y="313" type="curve" smooth="yes"/>
      <point x="267" y="0" type="line"/>
      <point x="285" y="0" type="line"/>
      <point x="340" y="312" type="line" smooth="yes"/>
      <point x="346" y="350"/>
      <point x="344" y="379"/>
      <point x="338" y="401" type="curve"/>
      <point x="378" y="422"/>
      <point x="432" y="443"/>
      <point x="483" y="447" type="curve" smooth="yes"/>
      <point x="583" y="454"/>
      <point x="624" y="416"/>
    </contour>
  </outline>
</glyph>
<glyph name="n" format="1">
  <advance width="384"/>
  <unicode hex="006E"/>
  <outline>
    <contour>
      <point x="356" y="314" type="curve" smooth="yes"/>
      <point x="301" y="0" type="line"/>
      <point x="318" y="0" type="line"/>
      <point x="373" y="313" type="line" smooth="yes"/>
      <point x="398" y="455"/>
      <point x="294" y="467"/>
      <point x="214" y="462" type="curve" smooth="yes"/>
      <point x="166" y="459"/>
      <point x="107" y="441"/>
      <point x="76" y="428" type="curve"/>
      <point x="81" y="454" type="line"/>
      <point x="63" y="454" type="line"/>
      <point x="-17" y="0" type="line"/>
      <point x="1" y="0" type="line"/>
      <point x="73" y="411" type="line"/>
      <point x="109" y="428"/>
      <point x="170" y="445"/>
      <point x="223" y="448" type="curve" smooth="yes"/>
      <point x="322" y="453"/>
      <point x="374" y="417"/>
    </contour>
  </outline>
</glyph>
<glyph name="o" format="1">
  <advance width="359"/>
  <unicode hex="006F"/>
  <outline>
    <contour>
      <point x="331" y="167" type="curve" smooth="yes"/>
      <point x="352" y="286" type="line" smooth="yes"/>
      <point x="371" y="396"/>
      <point x="325" y="464"/>
      <point x="217" y="464" type="curve" smooth="yes"/>
      <point x="109" y="464"/>
      <point x="36" y="402"/>
      <point x="16" y="286" type="curve" smooth="yes"/>
      <point x="-5" y="167" type="line" smooth="yes"/>
      <point x="-22" y="70"/>
      <point x="18" y="-9"/>
      <point x="134" y="-9" type="curve" smooth="yes"/>
      <point x="246" y="-9"/>
      <point x="313" y="65"/>
    </contour>
    <contour>
      <point x="335" y="290" type="curve" smooth="yes"/>
      <point x="313" y="167" type="line" smooth="yes"/>
      <point x="297" y="76"/>
      <point x="241" y="7"/>
      <point x="137" y="7" type="curve" smooth="yes"/>
      <point x="36" y="7"/>
      <point x="-3" y="77"/>
      <point x="13" y="167" type="curve" smooth="yes"/>
      <point x="35" y="290" type="line" smooth="yes"/>
      <point x="54" y="402"/>
      <point x="127" y="447"/>
      <point x="214" y="447" type="curve" smooth="yes"/>
      <point x="301" y="447"/>
      <point x="353" y="394"/>
    </contour>
  </outline>
</glyph>
<glyph name="p" format="1">
  <advance width="397"/>
  <unicode hex="0070"/>
  <outline>
    <contour>
      <point x="366" y="159" type="curve" smooth="yes"/>
      <point x="393" y="313" type="line" smooth="yes"/>
      <point x="410" y="409"/>
      <point x="360" y="466"/>
      <point x="260" y="462" type="curve" smooth="yes"/>
      <point x="216" y="460"/>
      <point x="144" y="443"/>
      <point x="92" y="410" type="curve"/>
      <point x="99" y="453" type="line"/>
      <point x="81" y="453" type="line"/>
      <point x="-30" y="-187" type="line"/>
      <point x="-15" y="-193" type="line"/>
      <point x="32" y="73" type="line"/>
      <point x="44" y="20"/>
      <point x="122" y="-11"/>
      <point x="177" y="-11" type="curve" smooth="yes"/>
      <point x="278" y="-11"/>
      <point x="346" y="48"/>
    </contour>
    <contour>
      <point x="377" y="315" type="curve" smooth="yes"/>
      <point x="348" y="153" type="line" smooth="yes"/>
      <point x="332" y="61"/>
      <point x="275" y="8"/>
      <point x="195" y="4" type="curve" smooth="yes"/>
      <point x="114" y="-1"/>
      <point x="27" y="45"/>
      <point x="43" y="134" type="curve" smooth="yes"/>
      <point x="88" y="387" type="line"/>
      <point x="135" y="427"/>
      <point x="223" y="449"/>
      <point x="273" y="448" type="curve" smooth="yes"/>
      <point x="339" y="445"/>
      <point x="394" y="409"/>
    </contour>
  </outline>
</glyph>
<glyph name="q" format="1">
  <advance width="374"/>
  <unicode hex="0071"/>
  <outline>
    <contour>
      <point x="300" y="74" type="curve"/>
      <point x="253" y="-188" type="line"/>
      <point x="271" y="-192" type="line"/>
      <point x="384" y="453" type="line"/>
      <point x="366" y="453" type="line"/>
      <point x="359" y="410" type="line"/>
      <point x="320" y="444"/>
      <point x="253" y="461"/>
      <point x="210" y="463" type="curve" smooth="yes"/>
      <point x="111" y="467"/>
      <point x="42" y="409"/>
      <point x="25" y="314" type="curve" smooth="yes"/>
      <point x="-2" y="160" type="line" smooth="yes"/>
      <point x="-22" y="49"/>
      <point x="25" y="-10"/>
      <point x="126" y="-10" type="curve" smooth="yes"/>
      <point x="182" y="-10"/>
      <point x="256" y="13"/>
    </contour>
    <contour>
      <point x="355" y="388" type="curve"/>
      <point x="310" y="135" type="line" smooth="yes"/>
      <point x="295" y="46"/>
      <point x="186" y="0"/>
      <point x="115" y="4" type="curve" smooth="yes"/>
      <point x="38" y="10"/>
      <point x="-2" y="62"/>
      <point x="15" y="154" type="curve" smooth="yes"/>
      <point x="43" y="316" type="line" smooth="yes"/>
      <point x="60" y="410"/>
      <point x="127" y="446"/>
      <point x="193" y="448" type="curve" smooth="yes"/>
      <point x="245" y="450"/>
      <point x="330" y="417"/>
    </contour>
  </outline>
</glyph>
<glyph name="s" format="1">
  <advance width="326"/>
  <unicode hex="0073"/>
  <outline>
    <contour>
      <point x="312" y="418" type="curve"/>
      <point x="324" y="431" type="line"/>
      <point x="323" y="432"/>
      <point x="284" y="464"/>
      <point x="216" y="464" type="curve" smooth="yes"/>
      <point x="184" y="464"/>
      <point x="147" y="456"/>
      <point x="116" y="439" type="curve" smooth="yes"/>
      <point x="87" y="422"/>
      <point x="63" y="396"/>
      <point x="54" y="359" type="curve" smooth="yes"/>
      <point x="45" y="320"/>
      <point x="57" y="294"/>
      <point x="83" y="273" type="curve" smooth="yes"/>
      <point x="106" y="255"/>
      <point x="140" y="241"/>
      <point x="180" y="226" type="curve" smooth="yes"/>
      <point x="224" y="209"/>
      <point x="254" y="193"/>
      <point x="271" y="176" type="curve" smooth="yes"/>
      <point x="292" y="153"/>
      <point x="295" y="130"/>
      <point x="289" y="104" type="curve" smooth="yes"/>
      <point x="284" y="82"/>
      <point x="271" y="58"/>
      <point x="247" y="39" type="curve" smooth="yes"/>
      <point x="222" y="18"/>
      <point x="183" y="2"/>
      <point x="129" y="2" type="curve" smooth="yes"/>
      <point x="95" y="2"/>
      <point x="68" y="9"/>
      <point x="47" y="20" type="curve" smooth="yes"/>
      <point x="20" y="34"/>
      <point x="4" y="54"/>
      <point x="-7" y="74" type="curve"/>
      <point x="-22" y="62" type="line"/>
      <point x="-8" y="40"/>
      <point x="10" y="19"/>
      <point x="39" y="4" type="curve" smooth="yes"/>
      <point x="61" y="-7"/>
      <point x="90" y="-14"/>
      <point x="126" y="-14" type="curve" smooth="yes"/>
      <point x="182" y="-14"/>
      <point x="224" y="1"/>
      <point x="254" y="24" type="curve" smooth="yes"/>
      <point x="283" y="47"/>
      <point x="299" y="76"/>
      <point x="306" y="103" type="curve"/>
      <point x="312" y="134"/>
      <point x="310" y="162"/>
      <point x="283" y="189" type="curve" smooth="yes"/>
      <point x="265" y="207"/>
      <point x="235" y="224"/>
      <point x="188" y="242" type="curve" smooth="yes"/>
      <point x="148" y="257"/>
      <point x="117" y="270"/>
      <point x="97" y="286" type="curve" smooth="yes"/>
      <point x="71" y="305"/>
      <point x="63" y="326"/>
      <point x="71" y="358" type="curve" smooth="yes"/>
      <point x="78" y="391"/>
      <point x="100" y="413"/>
      <point x="127" y="427" type="curve" smooth="yes"/>
      <point x="154" y="441"/>
      <point x="185" y="447"/>
      <point x="213" y="447" type="curve" smooth="yes"/>
      <point x="275" y="447"/>
      <point x="312" y="418"/>
    </contour>
  </outline>
</glyph>
<glyph name="t" format="1">
  <advance width="197"/>
  <unicode hex="0074"/>
  <outline>
    <contour>
      <point x="17" y="120" type="curve" smooth="yes"/>
      <point x="73" y="437" type="line"/>
      <point x="207" y="437" type="line"/>
      <point x="218" y="454" type="line"/>
      <point x="76" y="454" type="line"/>
      <point x="107" y="635" type="line"/>
      <point x="89" y="635" type="line"/>
      <point x="-1" y="120" type="line" smooth="yes"/>
      <point x="-14" y="48"/>
      <point x="7" y="7"/>
      <point x="71" y="-12" type="curve"/>
      <point x="80" y="4" type="line"/>
      <point x="23" y="24"/>
      <point x="5" y="53"/>
    </contour>
  </outline>
</glyph>
<glyph name="u" format="1">
  <advance width="383"/>
  <unicode hex="0075"/>
  <outline>
    <contour>
      <point x="309" y="88" type="curve"/>
      <point x="294" y="0" type="line"/>
      <point x="313" y="0" type="line"/>
      <point x="393" y="454" type="line"/>
      <point x="374" y="454" type="line"/>
      <point x="320" y="153" type="line" smooth="yes"/>
      <point x="307" y="79"/>
      <point x="242" y="14"/>
      <point x="154" y="8" type="curve" smooth="yes"/>
      <point x="55" y="1"/>
      <point x="1" y="39"/>
      <point x="19" y="141" type="curve" smooth="yes"/>
      <point x="75" y="454" type="line"/>
      <point x="57" y="454" type="line"/>
      <point x="2" y="142" type="line" smooth="yes"/>
      <point x="-23" y="0"/>
      <point x="83" y="-12"/>
      <point x="151" y="-8" type="curve" smooth="yes"/>
      <point x="208" y="-4"/>
      <point x="274" y="26"/>
    </contour>
  </outline>
</glyph>
<glyph name="w" format="1">
  <advance width="547"/>
  <unicode hex="0077"/>
  <outline>
    <contour>
      <point x="82" y="33" type="line"/>
      <point x="17" y="453" type="line"/>
      <point x="-1" y="453" type="line"/>
      <point x="73" y="0" type="line"/>
      <point x="84" y="0" type="line"/>
      <point x="276" y="412" type="line"/>
      <point x="326" y="0" type="line"/>
      <point x="338" y="0" type="line"/>
      <point x="569" y="453" type="line"/>
      <point x="551" y="453" type="line"/>
      <point x="337" y="33" type="line"/>
      <point x="288" y="453" type="line"/>
      <point x="278" y="453" type="line"/>
    </contour>
  </outline>
</glyph>
<glyph name="x" format="1">
  <advance width="342"/>
  <unicode hex="0078"/>
  <outline>
    <contour>
      <point x="62" y="453" type="line"/>
      <point x="161" y="227" type="line"/>
      <point x="-23" y="0" type="line"/>
      <point x="-3" y="0" type="line"/>
      <point x="168" y="212" type="line"/>
      <point x="258" y="0" type="line"/>
      <point x="277" y="0" type="line"/>
      <point x="180" y="226" type="line"/>
      <point x="359" y="453" type="line"/>
      <point x="339" y="453" type="line"/>
      <point x="173" y="240" type="line"/>
      <point x="83" y="453" type="line"/>
    </contour>
  </outline>
</glyph>
<glyph name="z" format="1">
  <advance width="361"/>
  <unicode hex="007A"/>
  <outline>
    <contour>
      <point x="63" y="437" type="line"/>
      <point x="348" y="437" type="line"/>
      <point x="-20" y="17" type="line"/>
      <point x="-22" y="0" type="line"/>
      <point x="311" y="0" type="line"/>
      <point x="313" y="17" type="line"/>
      <point x="1" y="17" type="line"/>
      <point x="369" y="437" type="line"/>
      <point x="372" y="454" type="line"/>
      <point x="66" y="454" type="line"/>
    </contour>
  </outline>
</glyph>
<glyph name="braceleft" format="1">
  <advance width="270"/>
  <unicode hex="007B"/>
  <outline>
    <contour>
      <point x="127" y="468" type="curve" smooth="yes"/>
      <point x="145" y="571" type="line" smooth="yes"/>
      <point x="168" y="703"/>
      <point x="257" y="727"/>
      <point x="260" y="728" type="curve"/>
      <point x="260" y="745" type="line"/>
      <point x="256" y="744"/>
      <point x="155" y="717"/>
      <point x="129" y="571" type="curve" smooth="yes"/>
      <point x="111" y="468" type="line" smooth="yes"/>
      <point x="102" y="417"/>
      <point x="89" y="371"/>
      <point x="23" y="327" type="curve" smooth="yes"/>
      <point x="12" y="320" type="line"/>
      <point x="21" y="313" type="line"/>
      <point x="71" y="268"/>
      <point x="68" y="223"/>
      <point x="59" y="172" type="curve" smooth="yes"/>
      <point x="41" y="69" type="line" smooth="yes"/>
      <point x="15" y="-77"/>
      <point x="106" y="-105"/>
      <point x="110" y="-106" type="curve"/>
      <point x="117" y="-89" type="line"/>
      <point x="113" y="-88"/>
      <point x="33" y="-63"/>
      <point x="57" y="69" type="curve" smooth="yes"/>
      <point x="75" y="172" type="line" smooth="yes"/>
      <point x="84" y="223"/>
      <point x="88" y="273"/>
      <point x="40" y="320" type="curve"/>
      <point x="104" y="367"/>
      <point x="118" y="417"/>
    </contour>
  </outline>
</glyph>
<glyph name="braceright" format="1">
  <advance width="268"/>
  <unicode hex="007D"/>
  <outline>
    <contour>
      <point x="161" y="745" type="curve"/>
      <point x="154" y="728" type="line"/>
      <point x="157" y="727"/>
      <point x="237" y="703"/>
      <point x="214" y="571" type="curve" smooth="yes"/>
      <point x="196" y="468" type="line" smooth="yes"/>
      <point x="187" y="417"/>
      <point x="183" y="367"/>
      <point x="231" y="320" type="curve"/>
      <point x="167" y="273"/>
      <point x="153" y="223"/>
      <point x="144" y="172" type="curve" smooth="yes"/>
      <point x="126" y="69" type="line" smooth="yes"/>
      <point x="102" y="-63"/>
      <point x="13" y="-88"/>
      <point x="11" y="-89" type="curve"/>
      <point x="11" y="-106" type="line"/>
      <point x="14" y="-105"/>
      <point x="115" y="-77"/>
      <point x="141" y="69" type="curve" smooth="yes"/>
      <point x="159" y="172" type="line" smooth="yes"/>
      <point x="168" y="223"/>
      <point x="181" y="268"/>
      <point x="247" y="313" type="curve" smooth="yes"/>
      <point x="258" y="320" type="line"/>
      <point x="249" y="327" type="line"/>
      <point x="199" y="371"/>
      <point x="202" y="417"/>
      <point x="211" y="468" type="curve" smooth="yes"/>
      <point x="229" y="571" type="line" smooth="yes"/>
      <point x="255" y="717"/>
      <point x="165" y="744"/>
    </contour>
  </outline>
</glyph>
<glyph name="asciitilde" format="1">
  <advance width="288"/>
  <unicode hex="007E"/>
  <outline>
    <contour>
      <point x="277" y="279" type="curve"/>
      <point x="270" y="293" type="line"/>
      <point x="247" y="275"/>
      <point x="227" y="269"/>
      <point x="208" y="270" type="curve" smooth="yes"/>
      <point x="167" y="272"/>
      <point x="133" y="306"/>
      <point x="87" y="306" type="curve" smooth="yes"/>
      <point x="65" y="306"/>
      <point x="41" y="299"/>
      <point x="12" y="276" type="curve"/>
      <point x="20" y="261" type="line"/>
      <point x="43" y="281"/>
      <point x="64" y="288"/>
      <point x="82" y="288" type="curve" smooth="yes"/>
      <point x="122" y="288"/>
      <point x="161" y="253"/>
      <point x="208" y="253" type="curve" smooth="yes"/>
      <point x="228" y="253"/>
      <point x="251" y="260"/>
    </contour>
  </outline>
</glyph>
<glyph name="exclamdown" format="1">
  <advance width="161"/>
  <unicode hex="00A1"/>
  <outline>
    <contour>
      <point x="41" y="16" type="curve"/>
      <point x="126" y="535" type="line"/>
      <point x="112" y="535" type="line"/>
      <point x="12" y="16" type="line"/>
      <point x="11" y="6"/>
      <point x="18" y="0"/>
      <point x="25" y="0" type="curve" smooth="yes"/>
      <point x="35" y="0"/>
      <point x="40" y="6"/>
    </contour>
    <contour>
      <point x="150" y="628" type="curve"/>
      <point x="152" y="637"/>
      <point x="146" y="644"/>
      <point x="138" y="644" type="curve" smooth="yes"/>
      <point x="129" y="644"/>
      <point x="121" y="637"/>
      <point x="119" y="628" type="curve"/>
      <point x="118" y="620"/>
      <point x="124" y="613"/>
      <point x="133" y="613" type="curve" smooth="yes"/>
      <point x="141" y="613"/>
      <point x="149" y="620"/>
    </contour>
  </outline>
</glyph>
<glyph name="cent" format="1">
  <advance width="370"/>
  <unicode hex="00A2"/>
  <outline>
    <contour>
      <point x="351" y="415" type="curve"/>
      <point x="360" y="433" type="line"/>
      <point x="311" y="458"/>
      <point x="253" y="469"/>
      <point x="199" y="458" type="curve" smooth="yes"/>
      <point x="157" y="449"/>
      <point x="118" y="427"/>
      <point x="88" y="387" type="curve" smooth="yes"/>
      <point x="65" y="358"/>
      <point x="54" y="329"/>
      <point x="44" y="289" type="curve"/>
      <point x="21" y="157" type="line" smooth="yes"/>
      <point x="5" y="68"/>
      <point x="37" y="21"/>
      <point x="96" y="1" type="curve" smooth="yes"/>
      <point x="147" y="-16"/>
      <point x="222" y="-12"/>
      <point x="286" y="5" type="curve"/>
      <point x="286" y="23" type="line"/>
      <point x="286" y="23"/>
      <point x="176" y="-8"/>
      <point x="100" y="19" type="curve" smooth="yes"/>
      <point x="39" y="41"/>
      <point x="26" y="89"/>
      <point x="39" y="159" type="curve" smooth="yes"/>
      <point x="61" y="284" type="line" smooth="yes"/>
      <point x="67" y="323"/>
      <point x="82" y="354"/>
      <point x="101" y="378" type="curve" smooth="yes"/>
      <point x="127" y="412"/>
      <point x="163" y="433"/>
      <point x="203" y="441" type="curve" smooth="yes"/>
      <point x="250" y="451"/>
      <point x="302" y="442"/>
    </contour>
    <contour>
      <point x="262" y="565" type="line"/>
      <point x="247" y="565" type="line"/>
      <point x="129" y="-103" type="line"/>
      <point x="144" y="-103" type="line"/>
    </contour>
  </outline>
</glyph>
<glyph name="sterling" format="1">
  <advance width="423"/>
  <unicode hex="00A3"/>
  <outline>
    <contour>
      <point x="107" y="15" type="curve" smooth="yes"/>
      <point x="13" y="15" type="line"/>
      <point x="11" y="0" type="line"/>
      <point x="337" y="0" type="line"/>
      <point x="339" y="15" type="line"/>
      <point x="187" y="15" type="line"/>
      <point x="218" y="26"/>
      <point x="248" y="46"/>
      <point x="268" y="78" type="curve" smooth="yes"/>
      <point x="316" y="152"/>
      <point x="303" y="228"/>
      <point x="252" y="299" type="curve"/>
      <point x="243" y="313"/>
      <point x="233" y="326"/>
      <point x="223" y="341" type="curve"/>
      <point x="397" y="341" type="line"/>
      <point x="400" y="360" type="line"/>
      <point x="209" y="360" type="line"/>
      <point x="202" y="368"/>
      <point x="198" y="376"/>
      <point x="194" y="382" type="curve" smooth="yes"/>
      <point x="135" y="463"/>
      <point x="133" y="510"/>
      <point x="163" y="561" type="curve" smooth="yes"/>
      <point x="189" y="603"/>
      <point x="238" y="624"/>
      <point x="276" y="626" type="curve" smooth="yes"/>
      <point x="325" y="629"/>
      <point x="370" y="614"/>
      <point x="405" y="591" type="curve"/>
      <point x="413" y="606" type="line"/>
      <point x="371" y="632"/>
      <point x="320" y="647"/>
      <point x="272" y="641" type="curve" smooth="yes"/>
      <point x="227" y="637"/>
      <point x="181" y="616"/>
      <point x="151" y="570" type="curve" smooth="yes"/>
      <point x="104" y="499"/>
      <point x="132" y="436"/>
      <point x="177" y="371" type="curve"/>
      <point x="179" y="367"/>
      <point x="183" y="364"/>
      <point x="185" y="360" type="curve"/>
      <point x="74" y="360" type="line"/>
      <point x="71" y="341" type="line"/>
      <point x="199" y="341" type="line"/>
      <point x="213" y="321"/>
      <point x="227" y="302"/>
      <point x="237" y="287" type="curve" smooth="yes"/>
      <point x="285" y="221"/>
      <point x="292" y="149"/>
      <point x="254" y="88" type="curve" smooth="yes"/>
      <point x="219" y="31"/>
      <point x="158" y="15"/>
    </contour>
  </outline>
</glyph>
<glyph name="currency" format="1">
  <advance width="423"/>
  <unicode hex="00A4"/>
  <outline>
    <contour>
      <point x="326" y="344" type="curve"/>
      <point x="413" y="417" type="line"/>
      <point x="403" y="429" type="line"/>
      <point x="317" y="356" type="line"/>
      <point x="298" y="376"/>
      <point x="269" y="389"/>
      <point x="236" y="389" type="curve" smooth="yes"/>
      <point x="202" y="389"/>
      <point x="169" y="377"/>
      <point x="142" y="356" type="curve"/>
      <point x="82" y="429" type="line"/>
      <point x="68" y="417" type="line"/>
      <point x="128" y="344" type="line"/>
      <point x="104" y="321"/>
      <point x="87" y="290"/>
      <point x="81" y="257" type="curve" smooth="yes"/>
      <point x="75" y="223"/>
      <point x="82" y="193"/>
      <point x="97" y="169" type="curve"/>
      <point x="11" y="96" type="line"/>
      <point x="21" y="84" type="line"/>
      <point x="107" y="157" type="line"/>
      <point x="128" y="137"/>
      <point x="156" y="125"/>
      <point x="190" y="125" type="curve" smooth="yes"/>
      <point x="223" y="125"/>
      <point x="255" y="137"/>
      <point x="281" y="157" type="curve"/>
      <point x="342" y="84" type="line"/>
      <point x="356" y="96" type="line"/>
      <point x="295" y="169" type="line"/>
      <point x="321" y="193"/>
      <point x="338" y="223"/>
      <point x="344" y="257" type="curve" smooth="yes"/>
      <point x="350" y="290"/>
      <point x="342" y="321"/>
    </contour>
    <contour>
      <point x="193" y="143" type="curve" smooth="yes"/>
      <point x="130" y="143"/>
      <point x="88" y="194"/>
      <point x="99" y="257" type="curve" smooth="yes"/>
      <point x="110" y="319"/>
      <point x="170" y="370"/>
      <point x="233" y="370" type="curve" smooth="yes"/>
      <point x="295" y="370"/>
      <point x="337" y="319"/>
      <point x="326" y="257" type="curve" smooth="yes"/>
      <point x="315" y="194"/>
      <point x="255" y="143"/>
    </contour>
  </outline>
</glyph>
<glyph name="yen" format="1">
  <advance width="474"/>
  <unicode hex="00A5"/>
  <outline>
    <contour>
      <point x="150" y="119" type="line"/>
      <point x="14" y="119" type="line"/>
      <point x="11" y="101" type="line"/>
      <point x="147" y="101" type="line"/>
      <point x="130" y="0" type="line"/>
      <point x="146" y="0" type="line"/>
      <point x="163" y="101" type="line"/>
      <point x="301" y="101" type="line"/>
      <point x="304" y="119" type="line"/>
      <point x="166" y="119" type="line"/>
      <point x="180" y="197" type="line"/>
      <point x="318" y="197" type="line"/>
      <point x="321" y="214" type="line"/>
      <point x="183" y="214" type="line"/>
      <point x="200" y="310" type="line"/>
      <point x="464" y="635" type="line"/>
      <point x="443" y="635" type="line"/>
      <point x="195" y="328" type="line"/>
      <point x="57" y="635" type="line"/>
      <point x="36" y="635" type="line"/>
      <point x="184" y="310" type="line"/>
      <point x="167" y="214" type="line"/>
      <point x="31" y="214" type="line"/>
      <point x="28" y="197" type="line"/>
      <point x="164" y="197" type="line"/>
    </contour>
  </outline>
</glyph>
<glyph name="dieresis" format="1">
  <advance width="312"/>
  <unicode hex="00A8"/>
  <outline>
    <contour>
      <point x="143" y="658" type="curve" smooth="yes"/>
      <point x="135" y="658"/>
      <point x="126" y="651"/>
      <point x="125" y="642" type="curve" smooth="yes"/>
      <point x="123" y="634"/>
      <point x="129" y="627"/>
      <point x="137" y="627" type="curve" smooth="yes"/>
      <point x="146" y="627"/>
      <point x="154" y="634"/>
      <point x="156" y="642" type="curve" smooth="yes"/>
      <point x="157" y="651"/>
      <point x="152" y="658"/>
    </contour>
    <contour>
      <point x="287" y="658" type="curve" smooth="yes"/>
      <point x="279" y="658"/>
      <point x="270" y="651"/>
      <point x="269" y="642" type="curve" smooth="yes"/>
      <point x="267" y="634"/>
      <point x="273" y="627"/>
      <point x="281" y="627" type="curve" smooth="yes"/>
      <point x="289" y="627"/>
      <point x="297" y="634"/>
      <point x="299" y="642" type="curve" smooth="yes"/>
      <point x="300" y="651"/>
      <point x="295" y="658"/>
    </contour>
  </outline>
</glyph>
<glyph name="copyright" format="1">
  <advance width="647"/>
  <unicode hex="00A9"/>
  <outline>
    <contour>
      <point x="600" y="174" type="curve" smooth="yes"/>
      <point x="621" y="290" type="line" smooth="yes"/>
      <point x="648" y="445"/>
      <point x="542" y="525"/>
      <point x="375" y="526" type="curve" smooth="yes"/>
      <point x="208" y="525"/>
      <point x="74" y="445"/>
      <point x="47" y="290" type="curve" smooth="yes"/>
      <point x="26" y="174" type="line" smooth="yes"/>
      <point x="-1" y="18"/>
      <point x="105" y="-61"/>
      <point x="272" y="-62" type="curve" smooth="yes"/>
      <point x="439" y="-61"/>
      <point x="573" y="18"/>
    </contour>
    <contour>
      <point x="605" y="287" type="curve" smooth="yes"/>
      <point x="586" y="176" type="line" smooth="yes"/>
      <point x="560" y="30"/>
      <point x="432" y="-46"/>
      <point x="274" y="-47" type="curve" smooth="yes"/>
      <point x="116" y="-46"/>
      <point x="16" y="30"/>
      <point x="42" y="176" type="curve" smooth="yes"/>
      <point x="61" y="287" type="line" smooth="yes"/>
      <point x="87" y="434"/>
      <point x="214" y="510"/>
      <point x="372" y="510" type="curve" smooth="yes"/>
      <point x="530" y="510"/>
      <point x="631" y="434"/>
    </contour>
    <contour>
      <point x="480" y="367" type="curve"/>
      <point x="491" y="382" type="line"/>
      <point x="456" y="402"/>
      <point x="416" y="412"/>
      <point x="367" y="412" type="curve" smooth="yes"/>
      <point x="329" y="412"/>
      <point x="295" y="405"/>
      <point x="266" y="389" type="curve" smooth="yes"/>
      <point x="207" y="357"/>
      <point x="175" y="318"/>
      <point x="158" y="226" type="curve" smooth="yes"/>
      <point x="145" y="150"/>
      <point x="166" y="100"/>
      <point x="206" y="75" type="curve"/>
      <point x="246" y="53"/>
      <point x="289" y="53"/>
      <point x="308" y="53" type="curve" smooth="yes"/>
      <point x="355" y="53"/>
      <point x="405" y="62"/>
      <point x="460" y="82" type="curve"/>
      <point x="458" y="99" type="line"/>
      <point x="400" y="78"/>
      <point x="351" y="68"/>
      <point x="316" y="68" type="curve" smooth="yes"/>
      <point x="281" y="68"/>
      <point x="243" y="73"/>
      <point x="217" y="90" type="curve" smooth="yes"/>
      <point x="184" y="114"/>
      <point x="165" y="158"/>
      <point x="178" y="231" type="curve" smooth="yes"/>
      <point x="188" y="287"/>
      <point x="214" y="331"/>
      <point x="241" y="353" type="curve" smooth="yes"/>
      <point x="267" y="376"/>
      <point x="312" y="395"/>
      <point x="367" y="395" type="curve" smooth="yes"/>
      <point x="404" y="395"/>
      <point x="442" y="386"/>
    </contour>
  </outline>
</glyph>
<glyph name="ordfeminine" format="1">
  <advance width="245"/>
  <unicode hex="00AA"/>
  <outline>
    <contour>
      <point x="231" y="354" type="curve"/>
      <point x="231" y="355"/>
      <point x="257" y="503"/>
      <point x="257" y="503" type="curve"/>
      <point x="266" y="551"/>
      <point x="262" y="586"/>
      <point x="245" y="608" type="curve" smooth="yes"/>
      <point x="228" y="631"/>
      <point x="190" y="643"/>
      <point x="132" y="643" type="curve"/>
      <point x="127" y="628" type="line"/>
      <point x="178" y="627"/>
      <point x="211" y="618"/>
      <point x="230" y="598" type="curve" smooth="yes"/>
      <point x="245" y="581"/>
      <point x="249" y="554"/>
      <point x="242" y="516" type="curve"/>
      <point x="198" y="553"/>
      <point x="155" y="571"/>
      <point x="114" y="571" type="curve" smooth="yes"/>
      <point x="48" y="571"/>
      <point x="15" y="513"/>
      <point x="7" y="468" type="curve" smooth="yes"/>
      <point x="-3" y="412"/>
      <point x="1" y="340"/>
      <point x="138" y="344" type="curve" smooth="yes"/>
      <point x="157" y="345"/>
      <point x="187" y="348"/>
    </contour>
    <contour>
      <point x="238" y="497" type="curve"/>
      <point x="215" y="367" type="line"/>
      <point x="156" y="359"/>
      <point x="81" y="354"/>
      <point x="50" y="376" type="curve" smooth="yes"/>
      <point x="19" y="396"/>
      <point x="16" y="425"/>
      <point x="23" y="465" type="curve" smooth="yes"/>
      <point x="29" y="499"/>
      <point x="54" y="556"/>
      <point x="113" y="556" type="curve" smooth="yes"/>
      <point x="152" y="556"/>
      <point x="193" y="536"/>
    </contour>
  </outline>
</glyph>
<glyph name="registered" format="1">
  <advance width="647"/>
  <unicode hex="00AE"/>
  <outline>
    <contour>
      <point x="600" y="174" type="curve" smooth="yes"/>
      <point x="621" y="290" type="line" smooth="yes"/>
      <point x="648" y="445"/>
      <point x="542" y="525"/>
      <point x="375" y="526" type="curve" smooth="yes"/>
      <point x="208" y="525"/>
      <point x="74" y="445"/>
      <point x="47" y="290" type="curve" smooth="yes"/>
      <point x="26" y="174" type="line" smooth="yes"/>
      <point x="-1" y="18"/>
      <point x="105" y="-61"/>
      <point x="272" y="-62" type="curve" smooth="yes"/>
      <point x="439" y="-61"/>
      <point x="573" y="18"/>
    </contour>
    <contour>
      <point x="605" y="287" type="curve" smooth="yes"/>
      <point x="586" y="176" type="line" smooth="yes"/>
      <point x="560" y="30"/>
      <point x="432" y="-46"/>
      <point x="274" y="-47" type="curve" smooth="yes"/>
      <point x="116" y="-46"/>
      <point x="16" y="30"/>
      <point x="42" y="176" type="curve" smooth="yes"/>
      <point x="61" y="287" type="line" smooth="yes"/>
      <point x="87" y="434"/>
      <point x="214" y="510"/>
      <point x="372" y="510" type="curve" smooth="yes"/>
      <point x="530" y="510"/>
      <point x="631" y="434"/>
    </contour>
    <contour>
      <point x="208" y="402" type="line"/>
      <point x="147" y="54" type="line"/>
      <point x="165" y="54" type="line"/>
      <point x="190" y="193" type="line"/>
      <point x="384" y="193" type="line"/>
      <point x="434" y="54" type="line"/>
      <point x="453" y="54" type="line"/>
      <point x="403" y="195" type="line"/>
      <point x="454" y="199"/>
      <point x="486" y="224"/>
      <point x="499" y="298" type="curve" smooth="yes"/>
      <point x="513" y="380"/>
      <point x="479" y="402"/>
      <point x="422" y="402" type="curve" smooth="yes"/>
    </contour>
    <contour>
      <point x="396" y="211" type="curve" smooth="yes"/>
      <point x="193" y="211" type="line"/>
      <point x="223" y="384" type="line"/>
      <point x="426" y="384" type="line" smooth="yes"/>
      <point x="478" y="384"/>
      <point x="492" y="357"/>
      <point x="483" y="297" type="curve" smooth="yes"/>
      <point x="472" y="238"/>
      <point x="451" y="211"/>
    </contour>
  </outline>
</glyph>
<glyph name="overscore" format="1">
  <advance width="340"/>
  <unicode hex="00AF"/>
  <outline>
    <contour>
      <point x="377" y="614" type="line"/>
      <point x="177" y="614" type="line"/>
      <point x="174" y="596" type="line"/>
      <point x="374" y="596" type="line"/>
    </contour>
  </outline>
</glyph>
<glyph name="degree" format="1">
  <advance width="302"/>
  <unicode hex="00B0"/>
  <outline>
    <contour>
      <point x="284" y="512" type="curve" smooth="yes"/>
      <point x="297" y="585"/>
      <point x="248" y="644"/>
      <point x="175" y="644" type="curve" smooth="yes"/>
      <point x="102" y="644"/>
      <point x="33" y="585"/>
      <point x="20" y="512" type="curve" smooth="yes"/>
      <point x="7" y="439"/>
      <point x="56" y="380"/>
      <point x="129" y="380" type="curve" smooth="yes"/>
      <point x="202" y="380"/>
      <point x="271" y="439"/>
    </contour>
    <contour>
      <point x="172" y="626" type="curve" smooth="yes"/>
      <point x="235" y="626"/>
      <point x="277" y="575"/>
      <point x="266" y="512" type="curve" smooth="yes"/>
      <point x="255" y="449"/>
      <point x="195" y="398"/>
      <point x="132" y="398" type="curve" smooth="yes"/>
      <point x="69" y="398"/>
      <point x="27" y="449"/>
      <point x="38" y="512" type="curve" smooth="yes"/>
      <point x="49" y="575"/>
      <point x="109" y="626"/>
    </contour>
  </outline>
</glyph>
<glyph name="plusminus" format="1">
  <advance width="342"/>
  <unicode hex="00B1"/>
  <outline>
    <contour>
      <point x="152" y="224" type="line"/>
      <point x="14" y="224" type="line"/>
      <point x="11" y="205" type="line"/>
      <point x="301" y="205" type="line"/>
      <point x="304" y="224" type="line"/>
      <point x="169" y="224" type="line"/>
      <point x="193" y="360" type="line"/>
      <point x="329" y="360" type="line"/>
      <point x="332" y="376" type="line"/>
      <point x="196" y="376" type="line"/>
      <point x="220" y="512" type="line"/>
      <point x="203" y="512" type="line"/>
      <point x="179" y="376" type="line"/>
      <point x="42" y="376" type="line"/>
      <point x="39" y="360" type="line"/>
      <point x="176" y="360" type="line"/>
    </contour>
  </outline>
</glyph>
<glyph name="acute" format="1">
  <advance width="199"/>
  <unicode hex="00B4"/>
  <outline>
    <contour>
      <point x="233" y="624" type="line" smooth="yes"/>
      <point x="238" y="631"/>
      <point x="240" y="641"/>
      <point x="232" y="645" type="curve" smooth="yes"/>
      <point x="226" y="649"/>
      <point x="216" y="645"/>
      <point x="212" y="637" type="curve" smooth="yes"/>
      <point x="146" y="533" type="line"/>
      <point x="165" y="533" type="line"/>
    </contour>
  </outline>
</glyph>
<glyph name="paragraph" format="1">
  <advance width="553"/>
  <unicode hex="00B6"/>
  <outline>
    <contour>
      <point x="369" y="256" type="line"/>
      <point x="324" y="1" type="line"/>
      <point x="341" y="1" type="line"/>
      <point x="450" y="619" type="line"/>
      <point x="521" y="617" type="line"/>
      <point x="413" y="1" type="line"/>
      <point x="431" y="1" type="line"/>
      <point x="543" y="636" type="line"/>
      <point x="227" y="636" type="line" smooth="yes"/>
      <point x="112" y="636"/>
      <point x="47" y="567"/>
      <point x="26" y="448" type="curve" smooth="yes"/>
      <point x="5" y="324"/>
      <point x="45" y="256"/>
      <point x="166" y="256" type="curve" smooth="yes"/>
    </contour>
    <contour>
      <point x="222" y="618" type="curve" smooth="yes"/>
      <point x="432" y="618" type="line"/>
      <point x="372" y="273" type="line"/>
      <point x="171" y="273" type="line" smooth="yes"/>
      <point x="59" y="273"/>
      <point x="24" y="336"/>
      <point x="43" y="448" type="curve" smooth="yes"/>
      <point x="63" y="556"/>
      <point x="117" y="618"/>
    </contour>
  </outline>
</glyph>
<glyph name="cedilla" format="1">
  <advance width="310"/>
  <unicode hex="00B8"/>
  <outline>
    <contour>
      <point x="86" y="0" type="line"/>
      <point x="67" y="0" type="line"/>
      <point x="33" y="-42" type="line"/>
      <point x="30" y="-61" type="line"/>
      <point x="49" y="-61"/>
      <point x="67" y="-61"/>
      <point x="82" y="-61" type="curve" smooth="yes"/>
      <point x="120" y="-61"/>
      <point x="142" y="-87"/>
      <point x="136" y="-124" type="curve" smooth="yes"/>
      <point x="126" y="-181"/>
      <point x="75" y="-187"/>
      <point x="59" y="-188" type="curve" smooth="yes"/>
      <point x="12" y="-191"/>
      <point x="-24" y="-178"/>
      <point x="-24" y="-178" type="curve"/>
      <point x="-27" y="-185"/>
      <point x="-28" y="-187"/>
      <point x="-32" y="-194" type="curve"/>
      <point x="-3" y="-201"/>
      <point x="16" y="-206"/>
      <point x="57" y="-205" type="curve" smooth="yes"/>
      <point x="97" y="-203"/>
      <point x="143" y="-180"/>
      <point x="153" y="-124" type="curve" smooth="yes"/>
      <point x="161" y="-78"/>
      <point x="132" y="-42"/>
      <point x="85" y="-42" type="curve"/>
      <point x="80" y="-42"/>
      <point x="75" y="-42"/>
      <point x="54" y="-42" type="curve"/>
    </contour>
  </outline>
</glyph>
<glyph name="guillemotright" format="1">
  <advance width="430"/>
  <unicode hex="00BB"/>
  <outline>
    <contour>
      <point x="21" y="72" type="line"/>
      <point x="221" y="242" type="line"/>
      <point x="81" y="412" type="line"/>
      <point x="65" y="400" type="line"/>
      <point x="195" y="242" type="line"/>
      <point x="11" y="87" type="line"/>
    </contour>
    <contour>
      <point x="221" y="72" type="line"/>
      <point x="420" y="242" type="line"/>
      <point x="281" y="412" type="line"/>
      <point x="264" y="400" type="line"/>
      <point x="394" y="242" type="line"/>
      <point x="210" y="87" type="line"/>
    </contour>
  </outline>
</glyph>
<glyph name="questiondown" format="1">
  <advance width="354"/>
  <unicode hex="00BF"/>
  <outline>
    <contour>
      <point x="342" y="147" type="curve"/>
      <point x="324" y="147" type="line"/>
      <point x="307" y="48"/>
      <point x="226" y="3"/>
      <point x="156" y="3" type="curve" smooth="yes"/>
      <point x="69" y="3"/>
      <point x="24" y="69"/>
      <point x="37" y="143" type="curve" smooth="yes"/>
      <point x="45" y="191"/>
      <point x="68" y="224"/>
      <point x="116" y="272" type="curve" smooth="yes"/>
      <point x="194" y="347"/>
      <point x="238" y="362"/>
      <point x="255" y="459" type="curve" smooth="yes"/>
      <point x="266" y="521" type="line"/>
      <point x="249" y="521" type="line"/>
      <point x="249" y="521"/>
      <point x="241" y="475"/>
      <point x="238" y="454" type="curve" smooth="yes"/>
      <point x="225" y="383"/>
      <point x="200" y="367"/>
      <point x="114" y="290" type="curve" smooth="yes"/>
      <point x="67" y="248"/>
      <point x="32" y="208"/>
      <point x="21" y="142" type="curve" smooth="yes"/>
      <point x="3" y="42"/>
      <point x="73" y="-12"/>
      <point x="153" y="-14" type="curve" smooth="yes"/>
      <point x="233" y="-16"/>
      <point x="323" y="36"/>
    </contour>
    <contour>
      <point x="277" y="632" type="curve" smooth="yes"/>
      <point x="269" y="632"/>
      <point x="261" y="626"/>
      <point x="259" y="617" type="curve"/>
      <point x="258" y="609"/>
      <point x="264" y="602"/>
      <point x="272" y="602" type="curve" smooth="yes"/>
      <point x="281" y="602"/>
      <point x="289" y="609"/>
      <point x="290" y="617" type="curve"/>
      <point x="292" y="626"/>
      <point x="286" y="632"/>
    </contour>
  </outline>
</glyph>
<glyph name="Agrave" format="1">
  <advance width="440"/>
  <unicode hex="00C0"/>
  <outline>
    <contour>
      <point x="305" y="635" type="line"/>
      <point x="-28" y="0" type="line"/>
      <point x="-10" y="0" type="line"/>
      <point x="123" y="255" type="line"/>
      <point x="366" y="255" type="line"/>
      <point x="411" y="0" type="line"/>
      <point x="430" y="0" type="line"/>
      <point x="318" y="635" type="line"/>
    </contour>
    <contour>
      <point x="363" y="272" type="line"/>
      <point x="133" y="272" type="line"/>
      <point x="306" y="598" type="line"/>
    </contour>
    <contour>
      <point x="271" y="764" type="curve" smooth="yes"/>
      <point x="305" y="673" type="line"/>
      <point x="324" y="673" type="line"/>
      <point x="297" y="777" type="line"/>
      <point x="294" y="785"/>
      <point x="287" y="790"/>
      <point x="278" y="785" type="curve"/>
      <point x="269" y="781"/>
      <point x="268" y="772"/>
    </contour>
  </outline>
</glyph>
<glyph name="Aacute" format="1">
  <advance width="440"/>
  <unicode hex="00C1"/>
  <outline>
    <contour>
      <point x="305" y="635" type="line"/>
      <point x="-28" y="0" type="line"/>
      <point x="-10" y="0" type="line"/>
      <point x="123" y="255" type="line"/>
      <point x="366" y="255" type="line"/>
      <point x="411" y="0" type="line"/>
      <point x="430" y="0" type="line"/>
      <point x="318" y="635" type="line"/>
    </contour>
    <contour>
      <point x="363" y="272" type="line"/>
      <point x="133" y="272" type="line"/>
      <point x="306" y="598" type="line"/>
    </contour>
    <contour>
      <point x="385" y="792" type="curve" smooth="yes"/>
      <point x="311" y="674" type="line"/>
      <point x="333" y="674" type="line"/>
      <point x="409" y="778" type="line" smooth="yes"/>
      <point x="415" y="786"/>
      <point x="417" y="797"/>
      <point x="409" y="802" type="curve" smooth="yes"/>
      <point x="402" y="806"/>
      <point x="391" y="801"/>
    </contour>
  </outline>
</glyph>
<glyph name="Acircumflex" format="1">
  <advance width="444"/>
  <unicode hex="00C2"/>
  <outline>
    <contour>
      <point x="305" y="635" type="line"/>
      <point x="-28" y="0" type="line"/>
      <point x="-10" y="0" type="line"/>
      <point x="123" y="255" type="line"/>
      <point x="366" y="255" type="line"/>
      <point x="411" y="0" type="line"/>
      <point x="430" y="0" type="line"/>
      <point x="318" y="635" type="line"/>
    </contour>
    <contour>
      <point x="363" y="272" type="line"/>
      <point x="133" y="272" type="line"/>
      <point x="306" y="598" type="line"/>
    </contour>
    <contour>
      <point x="341" y="769" type="line"/>
      <point x="420" y="674" type="line"/>
      <point x="437" y="688" type="line"/>
      <point x="346" y="795" type="line"/>
      <point x="216" y="687" type="line"/>
      <point x="226" y="674" type="line"/>
    </contour>
  </outline>
</glyph>
<glyph name="Atilde" format="1">
  <advance width="445"/>
  <unicode hex="00C3"/>
  <outline>
    <contour>
      <point x="305" y="635" type="line"/>
      <point x="-28" y="0" type="line"/>
      <point x="-10" y="0" type="line"/>
      <point x="123" y="255" type="line"/>
      <point x="366" y="255" type="line"/>
      <point x="411" y="0" type="line"/>
      <point x="430" y="0" type="line"/>
      <point x="318" y="635" type="line"/>
    </contour>
    <contour>
      <point x="363" y="272" type="line"/>
      <point x="133" y="272" type="line"/>
      <point x="306" y="598" type="line"/>
    </contour>
    <contour>
      <point x="438" y="715" type="curve"/>
      <point x="432" y="731" type="line"/>
      <point x="408" y="714"/>
      <point x="394" y="710"/>
      <point x="384" y="710" type="curve" smooth="yes"/>
      <point x="353" y="709"/>
      <point x="323" y="739"/>
      <point x="284" y="739" type="curve"/>
      <point x="266" y="738"/>
      <point x="246" y="732"/>
      <point x="223" y="712" type="curve"/>
      <point x="230" y="696" type="line"/>
      <point x="236" y="701"/>
      <point x="255" y="718"/>
      <point x="278" y="719" type="curve" smooth="yes"/>
      <point x="313" y="719"/>
      <point x="341" y="690"/>
      <point x="379" y="690" type="curve"/>
      <point x="396" y="691"/>
      <point x="415" y="697"/>
    </contour>
  </outline>
</glyph>
<glyph name="Adieresis" format="1">
  <advance width="440"/>
  <unicode hex="00C4"/>
  <outline>
    <contour>
      <point x="305" y="635" type="line"/>
      <point x="-28" y="0" type="line"/>
      <point x="-10" y="0" type="line"/>
      <point x="123" y="255" type="line"/>
      <point x="366" y="255" type="line"/>
      <point x="411" y="0" type="line"/>
      <point x="430" y="0" type="line"/>
      <point x="318" y="635" type="line"/>
    </contour>
    <contour>
      <point x="363" y="272" type="line"/>
      <point x="133" y="272" type="line"/>
      <point x="306" y="598" type="line"/>
    </contour>
    <contour>
      <point x="408" y="743" type="curve" smooth="yes"/>
      <point x="400" y="743"/>
      <point x="391" y="736"/>
      <point x="390" y="728" type="curve"/>
      <point x="388" y="719"/>
      <point x="394" y="712"/>
      <point x="402" y="712" type="curve" smooth="yes"/>
      <point x="411" y="712"/>
      <point x="418" y="719"/>
      <point x="420" y="728" type="curve"/>
      <point x="421" y="736"/>
      <point x="417" y="743"/>
    </contour>
    <contour>
      <point x="277" y="728" type="curve"/>
      <point x="278" y="736"/>
      <point x="273" y="743"/>
      <point x="265" y="743" type="curve" smooth="yes"/>
      <point x="256" y="743"/>
      <point x="247" y="736"/>
      <point x="246" y="728" type="curve"/>
      <point x="244" y="719"/>
      <point x="250" y="712"/>
      <point x="259" y="712" type="curve" smooth="yes"/>
      <point x="267" y="712"/>
      <point x="275" y="719"/>
    </contour>
  </outline>
</glyph>
<glyph name="Aring" format="1">
  <advance width="444"/>
  <unicode hex="00C5"/>
  <outline>
    <contour>
      <point x="295" y="613" type="line"/>
      <point x="-28" y="0" type="line"/>
      <point x="-10" y="0" type="line"/>
      <point x="123" y="254" type="line"/>
      <point x="366" y="254" type="line"/>
      <point x="411" y="0" type="line"/>
      <point x="430" y="0" type="line"/>
      <point x="323" y="613" type="line"/>
    </contour>
    <contour>
      <point x="363" y="272" type="line"/>
      <point x="133" y="272" type="line"/>
      <point x="306" y="598" type="line"/>
    </contour>
    <contour>
      <point x="305" y="600" type="curve" smooth="yes"/>
      <point x="363" y="600"/>
      <point x="417" y="646"/>
      <point x="427" y="703" type="curve" smooth="yes"/>
      <point x="438" y="760"/>
      <point x="400" y="807"/>
      <point x="342" y="807" type="curve" smooth="yes"/>
      <point x="285" y="807"/>
      <point x="231" y="760"/>
      <point x="220" y="703" type="curve" smooth="yes"/>
      <point x="210" y="646"/>
      <point x="248" y="600"/>
    </contour>
    <contour>
      <point x="409" y="703" type="curve" smooth="yes"/>
      <point x="401" y="656"/>
      <point x="356" y="618"/>
      <point x="308" y="618" type="curve" smooth="yes"/>
      <point x="261" y="618"/>
      <point x="230" y="656"/>
      <point x="238" y="703" type="curve" smooth="yes"/>
      <point x="247" y="751"/>
      <point x="292" y="789"/>
      <point x="339" y="789" type="curve" smooth="yes"/>
      <point x="387" y="789"/>
      <point x="418" y="751"/>
    </contour>
  </outline>
</glyph>
<glyph name="AE" format="1">
  <advance width="683"/>
  <unicode hex="00C6"/>
  <outline>
    <contour>
      <point x="606" y="18" type="line"/>
      <point x="322" y="18" type="line"/>
      <point x="381" y="357" type="line"/>
      <point x="581" y="357" type="line"/>
      <point x="592" y="375" type="line"/>
      <point x="385" y="375" type="line"/>
      <point x="427" y="616" type="line"/>
      <point x="711" y="616" type="line"/>
      <point x="714" y="635" type="line"/>
      <point x="328" y="635" type="line"/>
      <point x="-29" y="0" type="line"/>
      <point x="-9" y="0" type="line"/>
      <point x="133" y="254" type="line"/>
      <point x="345" y="254" type="line"/>
      <point x="301" y="0" type="line"/>
      <point x="603" y="0" type="line"/>
    </contour>
    <contour>
      <point x="409" y="616" type="line"/>
      <point x="348" y="272" type="line"/>
      <point x="142" y="272" type="line"/>
      <point x="336" y="616" type="line"/>
    </contour>
  </outline>
</glyph>
<glyph name="Ccedilla" format="1">
  <advance width="361"/>
  <unicode hex="00C7"/>
  <outline>
    <contour>
      <point x="373" y="598" type="curve"/>
      <point x="383" y="614" type="line"/>
      <point x="349" y="634"/>
      <point x="308" y="644"/>
      <point x="259" y="644" type="curve" smooth="yes"/>
      <point x="221" y="644"/>
      <point x="187" y="636"/>
      <point x="158" y="621" type="curve" smooth="yes"/>
      <point x="99" y="588"/>
      <point x="66" y="548"/>
      <point x="50" y="457" type="curve" smooth="yes"/>
      <point x="-1" y="166" type="line" smooth="yes"/>
      <point x="-15" y="90"/>
      <point x="6" y="38"/>
      <point x="46" y="14" type="curve" smooth="yes"/>
      <point x="86" y="-9"/>
      <point x="130" y="-9"/>
      <point x="149" y="-9" type="curve" smooth="yes"/>
      <point x="195" y="-9"/>
      <point x="246" y="1"/>
      <point x="301" y="21" type="curve"/>
      <point x="298" y="37" type="line"/>
      <point x="241" y="16"/>
      <point x="193" y="6"/>
      <point x="157" y="6" type="curve" smooth="yes"/>
      <point x="122" y="6"/>
      <point x="82" y="11"/>
      <point x="58" y="29" type="curve" smooth="yes"/>
      <point x="24" y="53"/>
      <point x="2" y="96"/>
      <point x="16" y="168" type="curve" smooth="yes"/>
      <point x="68" y="465" type="line" smooth="yes"/>
      <point x="78" y="520"/>
      <point x="106" y="563"/>
      <point x="132" y="585" type="curve" smooth="yes"/>
      <point x="159" y="607"/>
      <point x="204" y="626"/>
      <point x="259" y="626" type="curve" smooth="yes"/>
      <point x="296" y="626"/>
      <point x="333" y="617"/>
    </contour>
    <contour>
      <point x="156" y="-48" type="curve" smooth="yes"/>
      <point x="152" y="-48"/>
      <point x="146" y="-48"/>
      <point x="125" y="-48" type="curve"/>
      <point x="156" y="-6" type="line"/>
      <point x="137" y="-6" type="line"/>
      <point x="104" y="-48" type="line"/>
      <point x="101" y="-66" type="line"/>
      <point x="120" y="-66"/>
      <point x="138" y="-66"/>
      <point x="153" y="-66" type="curve" smooth="yes"/>
      <point x="191" y="-66"/>
      <point x="214" y="-93"/>
      <point x="208" y="-130" type="curve" smooth="yes"/>
      <point x="198" y="-187"/>
      <point x="146" y="-193"/>
      <point x="130" y="-194" type="curve" smooth="yes"/>
      <point x="84" y="-196"/>
      <point x="47" y="-184"/>
      <point x="46" y="-184" type="curve"/>
      <point x="43" y="-191"/>
      <point x="41" y="-193"/>
      <point x="38" y="-199" type="curve"/>
      <point x="67" y="-207"/>
      <point x="87" y="-212"/>
      <point x="128" y="-210" type="curve" smooth="yes"/>
      <point x="168" y="-209"/>
      <point x="214" y="-186"/>
      <point x="224" y="-129" type="curve" smooth="yes"/>
      <point x="232" y="-83"/>
      <point x="203" y="-48"/>
    </contour>
  </outline>
</glyph>
<glyph name="Egrave" format="1">
  <advance width="367"/>
  <unicode hex="00C8"/>
  <outline>
    <contour>
      <point x="288" y="17" type="line"/>
      <point x="4" y="17" type="line"/>
      <point x="64" y="357" type="line"/>
      <point x="265" y="357" type="line"/>
      <point x="274" y="374" type="line"/>
      <point x="67" y="374" type="line"/>
      <point x="110" y="617" type="line"/>
      <point x="396" y="617" type="line"/>
      <point x="399" y="635" type="line"/>
      <point x="96" y="635" type="line"/>
      <point x="-15" y="0" type="line"/>
      <point x="286" y="0" type="line"/>
    </contour>
    <contour>
      <point x="210" y="766" type="curve" smooth="yes"/>
      <point x="244" y="675" type="line"/>
      <point x="264" y="675" type="line"/>
      <point x="235" y="779" type="line" smooth="yes"/>
      <point x="233" y="787"/>
      <point x="225" y="792"/>
      <point x="217" y="787" type="curve"/>
      <point x="209" y="783"/>
      <point x="207" y="774"/>
    </contour>
  </outline>
</glyph>
<glyph name="Ecircumflex" format="1">
  <advance width="367"/>
  <unicode hex="00CA"/>
  <outline>
    <contour>
      <point x="288" y="17" type="line"/>
      <point x="4" y="17" type="line"/>
      <point x="64" y="357" type="line"/>
      <point x="265" y="357" type="line"/>
      <point x="274" y="374" type="line"/>
      <point x="67" y="374" type="line"/>
      <point x="110" y="617" type="line"/>
      <point x="396" y="617" type="line"/>
      <point x="399" y="635" type="line"/>
      <point x="96" y="635" type="line"/>
      <point x="-15" y="0" type="line"/>
      <point x="286" y="0" type="line"/>
    </contour>
    <contour>
      <point x="273" y="770" type="line"/>
      <point x="352" y="675" type="line"/>
      <point x="368" y="689" type="line"/>
      <point x="278" y="796" type="line"/>
      <point x="147" y="689" type="line"/>
      <point x="158" y="676" type="line"/>
    </contour>
  </outline>
</glyph>
<glyph name="Edieresis" format="1">
  <advance width="367"/>
  <unicode hex="00CB"/>
  <outline>
    <contour>
      <point x="288" y="17" type="line"/>
      <point x="4" y="17" type="line"/>
      <point x="64" y="357" type="line"/>
      <point x="265" y="357" type="line"/>
      <point x="274" y="374" type="line"/>
      <point x="67" y="374" type="line"/>
      <point x="110" y="617" type="line"/>
      <point x="396" y="617" type="line"/>
      <point x="399" y="635" type="line"/>
      <point x="96" y="635" type="line"/>
      <point x="-15" y="0" type="line"/>
      <point x="286" y="0" type="line"/>
    </contour>
    <contour>
      <point x="352" y="729" type="curve"/>
      <point x="353" y="737"/>
      <point x="348" y="744"/>
      <point x="339" y="744" type="curve" smooth="yes"/>
      <point x="331" y="744"/>
      <point x="322" y="737"/>
      <point x="321" y="729" type="curve"/>
      <point x="319" y="720"/>
      <point x="325" y="713"/>
      <point x="333" y="713" type="curve" smooth="yes"/>
      <point x="342" y="713"/>
      <point x="350" y="720"/>
    </contour>
    <contour>
      <point x="208" y="729" type="curve"/>
      <point x="209" y="737"/>
      <point x="204" y="744"/>
      <point x="196" y="744" type="curve" smooth="yes"/>
      <point x="187" y="744"/>
      <point x="178" y="737"/>
      <point x="177" y="729" type="curve"/>
      <point x="175" y="720"/>
      <point x="181" y="713"/>
      <point x="190" y="713" type="curve" smooth="yes"/>
      <point x="198" y="713"/>
      <point x="206" y="720"/>
    </contour>
  </outline>
</glyph>
<glyph name="Iacute" format="1">
  <advance width="153"/>
  <unicode hex="00CD"/>
  <outline>
    <contour>
      <point x="-3" y="0" type="line"/>
      <point x="14" y="0" type="line"/>
      <point x="125" y="635" type="line"/>
      <point x="30" y="635" type="line"/>
      <point x="27" y="617" type="line"/>
      <point x="105" y="615" type="line"/>
    </contour>
    <contour>
      <point x="179" y="777" type="curve"/>
      <point x="113" y="673" type="line"/>
      <point x="133" y="673" type="line"/>
      <point x="199" y="764" type="line" smooth="yes"/>
      <point x="205" y="772"/>
      <point x="206" y="781"/>
      <point x="200" y="785" type="curve" smooth="yes"/>
      <point x="193" y="790"/>
      <point x="183" y="785"/>
    </contour>
  </outline>
</glyph>
<glyph name="Icircumflex" format="1">
  <advance width="181"/>
  <unicode hex="00CE"/>
  <outline>
    <contour>
      <point x="-2" y="0" type="line"/>
      <point x="15" y="0" type="line"/>
      <point x="126" y="635" type="line"/>
      <point x="31" y="635" type="line"/>
      <point x="28" y="617" type="line"/>
      <point x="106" y="615" type="line"/>
    </contour>
    <contour>
      <point x="142" y="766" type="line"/>
      <point x="220" y="671" type="line"/>
      <point x="236" y="685" type="line"/>
      <point x="146" y="792" type="line"/>
      <point x="16" y="685" type="line"/>
      <point x="27" y="672" type="line"/>
    </contour>
  </outline>
</glyph>
<glyph name="Idieresis" format="1">
  <advance width="148"/>
  <unicode hex="00CF"/>
  <outline>
    <contour>
      <point x="-2" y="0" type="line"/>
      <point x="15" y="0" type="line"/>
      <point x="126" y="635" type="line"/>
      <point x="31" y="635" type="line"/>
      <point x="28" y="617" type="line"/>
      <point x="106" y="615" type="line"/>
    </contour>
    <contour>
      <point x="182" y="743" type="curve" smooth="yes"/>
      <point x="174" y="743"/>
      <point x="165" y="736"/>
      <point x="164" y="727" type="curve"/>
      <point x="162" y="719"/>
      <point x="168" y="712"/>
      <point x="176" y="712" type="curve" smooth="yes"/>
      <point x="185" y="712"/>
      <point x="193" y="719"/>
      <point x="195" y="727" type="curve"/>
      <point x="196" y="736"/>
      <point x="191" y="743"/>
    </contour>
    <contour>
      <point x="39" y="743" type="curve" smooth="yes"/>
      <point x="30" y="743"/>
      <point x="21" y="736"/>
      <point x="20" y="727" type="curve"/>
      <point x="18" y="719"/>
      <point x="24" y="712"/>
      <point x="33" y="712" type="curve" smooth="yes"/>
      <point x="41" y="712"/>
      <point x="49" y="719"/>
      <point x="51" y="727" type="curve"/>
      <point x="52" y="736"/>
      <point x="47" y="743"/>
    </contour>
  </outline>
</glyph>
<glyph name="Ntilde" format="1">
  <advance width="522"/>
  <unicode hex="00D1"/>
  <outline>
    <contour>
      <point x="421" y="29" type="line"/>
      <point x="112" y="635" type="line"/>
      <point x="96" y="635" type="line"/>
      <point x="-15" y="0" type="line"/>
      <point x="1" y="0" type="line"/>
      <point x="108" y="607" type="line"/>
      <point x="416" y="0" type="line"/>
      <point x="431" y="0" type="line"/>
      <point x="542" y="635" type="line"/>
      <point x="527" y="635" type="line"/>
    </contour>
    <contour>
      <point x="442" y="722" type="curve"/>
      <point x="437" y="738" type="line"/>
      <point x="413" y="721"/>
      <point x="398" y="717"/>
      <point x="388" y="717" type="curve" smooth="yes"/>
      <point x="357" y="716"/>
      <point x="327" y="747"/>
      <point x="288" y="746" type="curve" smooth="yes"/>
      <point x="270" y="745"/>
      <point x="250" y="739"/>
      <point x="227" y="719" type="curve"/>
      <point x="234" y="703" type="line"/>
      <point x="240" y="708"/>
      <point x="259" y="725"/>
      <point x="283" y="726" type="curve" smooth="yes"/>
      <point x="318" y="726"/>
      <point x="345" y="697"/>
      <point x="384" y="698" type="curve" smooth="yes"/>
      <point x="401" y="698"/>
      <point x="420" y="704"/>
    </contour>
  </outline>
</glyph>
<glyph name="Ograve" format="1">
  <advance width="432"/>
  <unicode hex="00D2"/>
  <outline>
    <contour>
      <point x="54" y="460" type="curve" smooth="yes"/>
      <point x="2" y="168" type="line" smooth="yes"/>
      <point x="-19" y="51"/>
      <point x="55" y="-10"/>
      <point x="162" y="-10" type="curve" smooth="yes"/>
      <point x="275" y="-10"/>
      <point x="363" y="57"/>
      <point x="382" y="168" type="curve" smooth="yes"/>
      <point x="433" y="459" type="line" smooth="yes"/>
      <point x="454" y="577"/>
      <point x="398" y="649"/>
      <point x="279" y="649" type="curve" smooth="yes"/>
      <point x="159" y="649"/>
      <point x="75" y="584"/>
    </contour>
    <contour>
      <point x="19" y="167" type="curve" smooth="yes"/>
      <point x="71" y="460" type="line" smooth="yes"/>
      <point x="89" y="565"/>
      <point x="159" y="630"/>
      <point x="274" y="630" type="curve" smooth="yes"/>
      <point x="389" y="630"/>
      <point x="435" y="567"/>
      <point x="417" y="462" type="curve" smooth="yes"/>
      <point x="365" y="167" type="line" smooth="yes"/>
      <point x="346" y="60"/>
      <point x="262" y="7"/>
      <point x="165" y="7" type="curve" smooth="yes"/>
      <point x="67" y="7"/>
      <point x="2" y="70"/>
    </contour>
    <contour>
      <point x="240" y="774" type="curve"/>
      <point x="274" y="683" type="line"/>
      <point x="293" y="683" type="line"/>
      <point x="264" y="787" type="line"/>
      <point x="263" y="795"/>
      <point x="256" y="800"/>
      <point x="247" y="795" type="curve"/>
      <point x="238" y="791"/>
      <point x="236" y="782"/>
    </contour>
  </outline>
</glyph>
<glyph name="Otilde" format="1">
  <advance width="432"/>
  <unicode hex="00D5"/>
  <outline>
    <contour>
      <point x="54" y="460" type="curve" smooth="yes"/>
      <point x="2" y="168" type="line" smooth="yes"/>
      <point x="-19" y="51"/>
      <point x="55" y="-10"/>
      <point x="162" y="-10" type="curve" smooth="yes"/>
      <point x="275" y="-10"/>
      <point x="363" y="57"/>
      <point x="382" y="168" type="curve" smooth="yes"/>
      <point x="433" y="459" type="line" smooth="yes"/>
      <point x="454" y="577"/>
      <point x="398" y="649"/>
      <point x="279" y="649" type="curve" smooth="yes"/>
      <point x="159" y="649"/>
      <point x="75" y="584"/>
    </contour>
    <contour>
      <point x="19" y="167" type="curve" smooth="yes"/>
      <point x="71" y="460" type="line" smooth="yes"/>
      <point x="89" y="565"/>
      <point x="159" y="630"/>
      <point x="274" y="630" type="curve" smooth="yes"/>
      <point x="389" y="630"/>
      <point x="435" y="567"/>
      <point x="417" y="462" type="curve" smooth="yes"/>
      <point x="365" y="167" type="line" smooth="yes"/>
      <point x="346" y="60"/>
      <point x="262" y="7"/>
      <point x="165" y="7" type="curve" smooth="yes"/>
      <point x="67" y="7"/>
      <point x="2" y="70"/>
    </contour>
    <contour>
      <point x="396" y="715" type="curve"/>
      <point x="390" y="731" type="line"/>
      <point x="366" y="714"/>
      <point x="352" y="710"/>
      <point x="342" y="710" type="curve" smooth="yes"/>
      <point x="311" y="709"/>
      <point x="281" y="739"/>
      <point x="242" y="738" type="curve" smooth="yes"/>
      <point x="224" y="738"/>
      <point x="204" y="732"/>
      <point x="181" y="712" type="curve"/>
      <point x="188" y="695" type="line"/>
      <point x="194" y="701"/>
      <point x="213" y="718"/>
      <point x="236" y="718" type="curve" smooth="yes"/>
      <point x="271" y="719"/>
      <point x="299" y="689"/>
      <point x="337" y="690" type="curve" smooth="yes"/>
      <point x="354" y="690"/>
      <point x="372" y="696"/>
    </contour>
  </outline>
</glyph>
<glyph name="Odieresis" format="1">
  <advance width="432"/>
  <unicode hex="00D6"/>
  <outline>
    <contour>
      <point x="54" y="460" type="curve" smooth="yes"/>
      <point x="2" y="168" type="line" smooth="yes"/>
      <point x="-19" y="51"/>
      <point x="55" y="-10"/>
      <point x="162" y="-10" type="curve" smooth="yes"/>
      <point x="275" y="-10"/>
      <point x="363" y="57"/>
      <point x="382" y="168" type="curve" smooth="yes"/>
      <point x="433" y="459" type="line" smooth="yes"/>
      <point x="454" y="577"/>
      <point x="398" y="649"/>
      <point x="279" y="649" type="curve" smooth="yes"/>
      <point x="159" y="649"/>
      <point x="75" y="584"/>
    </contour>
    <contour>
      <point x="19" y="167" type="curve" smooth="yes"/>
      <point x="71" y="460" type="line" smooth="yes"/>
      <point x="89" y="565"/>
      <point x="159" y="630"/>
      <point x="274" y="630" type="curve" smooth="yes"/>
      <point x="389" y="630"/>
      <point x="435" y="567"/>
      <point x="417" y="462" type="curve" smooth="yes"/>
      <point x="365" y="167" type="line" smooth="yes"/>
      <point x="346" y="60"/>
      <point x="262" y="7"/>
      <point x="165" y="7" type="curve" smooth="yes"/>
      <point x="67" y="7"/>
      <point x="2" y="70"/>
    </contour>
    <contour>
      <point x="367" y="752" type="curve" smooth="yes"/>
      <point x="358" y="752"/>
      <point x="350" y="745"/>
      <point x="348" y="736" type="curve"/>
      <point x="347" y="728"/>
      <point x="353" y="721"/>
      <point x="362" y="721" type="curve" smooth="yes"/>
      <point x="370" y="721"/>
      <point x="378" y="728"/>
      <point x="379" y="736" type="curve"/>
      <point x="381" y="745"/>
      <point x="375" y="752"/>
    </contour>
    <contour>
      <point x="223" y="752" type="curve" smooth="yes"/>
      <point x="215" y="752"/>
      <point x="207" y="745"/>
      <point x="205" y="736" type="curve"/>
      <point x="204" y="728"/>
      <point x="210" y="721"/>
      <point x="218" y="721" type="curve" smooth="yes"/>
      <point x="227" y="721"/>
      <point x="235" y="728"/>
      <point x="236" y="736" type="curve"/>
      <point x="238" y="745"/>
      <point x="232" y="752"/>
    </contour>
  </outline>
</glyph>
<glyph name="multiply" format="1">
  <advance width="300"/>
  <unicode hex="00D7"/>
  <outline>
    <contour>
      <point x="54" y="429" type="line"/>
      <point x="138" y="299" type="line"/>
      <point x="11" y="173" type="line"/>
      <point x="22" y="163" type="line"/>
      <point x="147" y="286" type="line"/>
      <point x="226" y="163" type="line"/>
      <point x="243" y="175" type="line"/>
      <point x="161" y="300" type="line"/>
      <point x="290" y="427" type="line"/>
      <point x="279" y="439" type="line"/>
      <point x="153" y="312" type="line"/>
      <point x="68" y="440" type="line"/>
    </contour>
  </outline>
</glyph>
<glyph name="Ucircumflex" format="1">
  <advance width="440"/>
  <unicode hex="00DB"/>
  <outline>
    <contour>
      <point x="380" y="168" type="curve" smooth="yes"/>
      <point x="462" y="635" type="line"/>
      <point x="445" y="635" type="line"/>
      <point x="363" y="167" type="line" smooth="yes"/>
      <point x="353" y="111"/>
      <point x="330" y="71"/>
      <point x="291" y="45" type="curve" smooth="yes"/>
      <point x="254" y="20"/>
      <point x="211" y="7"/>
      <point x="163" y="7" type="curve" smooth="yes"/>
      <point x="115" y="7"/>
      <point x="75" y="21"/>
      <point x="47" y="47" type="curve" smooth="yes"/>
      <point x="18" y="74"/>
      <point x="8" y="114"/>
      <point x="17" y="167" type="curve" smooth="yes"/>
      <point x="99" y="635" type="line"/>
      <point x="82" y="635" type="line"/>
      <point x="0" y="168" type="line" smooth="yes"/>
      <point x="-11" y="107"/>
      <point x="0" y="62"/>
      <point x="32" y="33" type="curve" smooth="yes"/>
      <point x="65" y="4"/>
      <point x="108" y="-10"/>
      <point x="160" y="-10" type="curve" smooth="yes"/>
      <point x="211" y="-10"/>
      <point x="258" y="4"/>
      <point x="300" y="33" type="curve" smooth="yes"/>
      <point x="342" y="62"/>
      <point x="369" y="107"/>
    </contour>
    <contour>
      <point x="297" y="770" type="line"/>
      <point x="376" y="676" type="line"/>
      <point x="392" y="690" type="line"/>
      <point x="302" y="797" type="line"/>
      <point x="171" y="689" type="line"/>
      <point x="183" y="676" type="line"/>
    </contour>
  </outline>
</glyph>
<glyph name="Udieresis" format="1">
  <advance width="440"/>
  <unicode hex="00DC"/>
  <outline>
    <contour>
      <point x="380" y="168" type="curve" smooth="yes"/>
      <point x="462" y="635" type="line"/>
      <point x="445" y="635" type="line"/>
      <point x="363" y="167" type="line" smooth="yes"/>
      <point x="353" y="111"/>
      <point x="330" y="71"/>
      <point x="291" y="45" type="curve" smooth="yes"/>
      <point x="254" y="20"/>
      <point x="211" y="7"/>
      <point x="163" y="7" type="curve" smooth="yes"/>
      <point x="115" y="7"/>
      <point x="75" y="21"/>
      <point x="47" y="47" type="curve" smooth="yes"/>
      <point x="18" y="74"/>
      <point x="8" y="114"/>
      <point x="17" y="167" type="curve" smooth="yes"/>
      <point x="99" y="635" type="line"/>
      <point x="82" y="635" type="line"/>
      <point x="0" y="168" type="line" smooth="yes"/>
      <point x="-11" y="107"/>
      <point x="0" y="62"/>
      <point x="32" y="33" type="curve" smooth="yes"/>
      <point x="65" y="4"/>
      <point x="108" y="-10"/>
      <point x="160" y="-10" type="curve" smooth="yes"/>
      <point x="211" y="-10"/>
      <point x="258" y="4"/>
      <point x="300" y="33" type="curve" smooth="yes"/>
      <point x="342" y="62"/>
      <point x="369" y="107"/>
    </contour>
    <contour>
      <point x="376" y="730" type="curve"/>
      <point x="378" y="738"/>
      <point x="372" y="745"/>
      <point x="364" y="745" type="curve" smooth="yes"/>
      <point x="355" y="745"/>
      <point x="347" y="738"/>
      <point x="345" y="730" type="curve"/>
      <point x="344" y="721"/>
      <point x="350" y="715"/>
      <point x="359" y="715" type="curve" smooth="yes"/>
      <point x="367" y="715"/>
      <point x="375" y="721"/>
    </contour>
    <contour>
      <point x="232" y="730" type="curve"/>
      <point x="234" y="738"/>
      <point x="229" y="745"/>
      <point x="220" y="745" type="curve" smooth="yes"/>
      <point x="212" y="745"/>
      <point x="204" y="738"/>
      <point x="202" y="730" type="curve"/>
      <point x="201" y="721"/>
      <point x="207" y="715"/>
      <point x="215" y="715" type="curve" smooth="yes"/>
      <point x="224" y="715"/>
      <point x="231" y="721"/>
    </contour>
  </outline>
</glyph>
<glyph name="Thorn" format="1">
  <advance width="342"/>
  <unicode hex="00DE"/>
  <outline>
    <contour>
      <point x="328" y="263" type="curve" smooth="yes"/>
      <point x="351" y="395" type="line" smooth="yes"/>
      <point x="356" y="435"/>
      <point x="355" y="464"/>
      <point x="343" y="493" type="curve" smooth="yes"/>
      <point x="327" y="533"/>
      <point x="295" y="555"/>
      <point x="257" y="564" type="curve" smooth="yes"/>
      <point x="210" y="574"/>
      <point x="151" y="565"/>
      <point x="97" y="543" type="curve"/>
      <point x="113" y="635" type="line"/>
      <point x="96" y="635" type="line"/>
      <point x="-15" y="0" type="line"/>
      <point x="2" y="0" type="line"/>
      <point x="21" y="108" type="line"/>
      <point x="76" y="93"/>
      <point x="146" y="91"/>
      <point x="199" y="107" type="curve" smooth="yes"/>
      <point x="264" y="127"/>
      <point x="312" y="174"/>
    </contour>
    <contour>
      <point x="247" y="547" type="curve" smooth="yes"/>
      <point x="284" y="539"/>
      <point x="312" y="518"/>
      <point x="327" y="484" type="curve" smooth="yes"/>
      <point x="338" y="460"/>
      <point x="340" y="428"/>
      <point x="333" y="390" type="curve" smooth="yes"/>
      <point x="311" y="265" type="line" smooth="yes"/>
      <point x="299" y="195"/>
      <point x="269" y="146"/>
      <point x="201" y="125" type="curve" smooth="yes"/>
      <point x="127" y="102"/>
      <point x="45" y="119"/>
      <point x="24" y="125" type="curve"/>
      <point x="94" y="522" type="line"/>
      <point x="149" y="548"/>
      <point x="204" y="556"/>
    </contour>
  </outline>
</glyph>
<glyph name="germandbls" format="1">
  <advance width="377"/>
  <unicode hex="00DF"/>
  <outline>
    <contour>
      <point x="2" y="0" type="curve"/>
      <point x="88" y="490" type="line" smooth="yes"/>
      <point x="103" y="576"/>
      <point x="143" y="618"/>
      <point x="208" y="618" type="curve" smooth="yes"/>
      <point x="266" y="618"/>
      <point x="290" y="571"/>
      <point x="284" y="529" type="curve" smooth="yes"/>
      <point x="278" y="493"/>
      <point x="250" y="459"/>
      <point x="201" y="459" type="curve"/>
      <point x="188" y="439"/>
      <point x="181" y="421"/>
      <point x="178" y="405" type="curve" smooth="yes"/>
      <point x="167" y="345"/>
      <point x="221" y="308"/>
      <point x="272" y="267" type="curve" smooth="yes"/>
      <point x="317" y="230"/>
      <point x="363" y="200"/>
      <point x="350" y="125" type="curve" smooth="yes"/>
      <point x="341" y="77"/>
      <point x="305" y="8"/>
      <point x="200" y="8" type="curve" smooth="yes"/>
      <point x="129" y="8"/>
      <point x="91" y="50"/>
      <point x="91" y="50" type="curve"/>
      <point x="86" y="45"/>
      <point x="80" y="39"/>
      <point x="75" y="33" type="curve"/>
      <point x="75" y="33"/>
      <point x="111" y="-10"/>
      <point x="203" y="-10" type="curve" smooth="yes"/>
      <point x="294" y="-10"/>
      <point x="356" y="53"/>
      <point x="367" y="123" type="curve" smooth="yes"/>
      <point x="374" y="166"/>
      <point x="362" y="212"/>
      <point x="325" y="247" type="curve" smooth="yes"/>
      <point x="261" y="303"/>
      <point x="187" y="343"/>
      <point x="194" y="403" type="curve" smooth="yes"/>
      <point x="195" y="416"/>
      <point x="200" y="431"/>
      <point x="211" y="447" type="curve"/>
      <point x="214" y="447"/>
      <point x="218" y="447"/>
      <point x="221" y="447" type="curve"/>
      <point x="267" y="454"/>
      <point x="293" y="491"/>
      <point x="300" y="530" type="curve" smooth="yes"/>
      <point x="308" y="578"/>
      <point x="276" y="635"/>
      <point x="210" y="635" type="curve" smooth="yes"/>
      <point x="155" y="635"/>
      <point x="90" y="605"/>
      <point x="70" y="492" type="curve" smooth="yes"/>
      <point x="39" y="312"/>
      <point x="11" y="155"/>
      <point x="-16" y="0" type="curve"/>
      <point x="-10" y="0"/>
      <point x="-4" y="0"/>
    </contour>
  </outline>
</glyph>
<glyph name="aacute" format="1">
  <advance width="374"/>
  <unicode hex="00E1"/>
  <outline>
    <contour>
      <point x="355" y="314" type="curve"/>
      <point x="305" y="340"/>
      <point x="245" y="366"/>
      <point x="179" y="366" type="curve" smooth="yes"/>
      <point x="57" y="366"/>
      <point x="18" y="286"/>
      <point x="8" y="228" type="curve"/>
      <point x="8" y="228"/>
      <point x="-6" y="153"/>
      <point x="-6" y="153" type="curve"/>
      <point x="-25" y="45"/>
      <point x="20" y="-9"/>
      <point x="152" y="-9" type="curve" smooth="yes"/>
      <point x="189" y="-9"/>
      <point x="317" y="0"/>
      <point x="317" y="0" type="curve"/>
      <point x="317" y="0"/>
      <point x="351" y="193"/>
      <point x="370" y="305" type="curve" smooth="yes"/>
      <point x="380" y="359"/>
      <point x="369" y="401"/>
      <point x="337" y="427" type="curve" smooth="yes"/>
      <point x="310" y="450"/>
      <point x="268" y="461"/>
      <point x="209" y="461" type="curve"/>
      <point x="205" y="444" type="line"/>
      <point x="267" y="444"/>
      <point x="299" y="434"/>
      <point x="323" y="415" type="curve" smooth="yes"/>
      <point x="352" y="392"/>
      <point x="362" y="356"/>
    </contour>
    <contour>
      <point x="351" y="293" type="curve"/>
      <point x="351" y="293"/>
      <point x="302" y="16"/>
      <point x="302" y="16" type="curve"/>
      <point x="302" y="16"/>
      <point x="197" y="7"/>
      <point x="155" y="7" type="curve" smooth="yes"/>
      <point x="12" y="4"/>
      <point x="-1" y="82"/>
      <point x="10" y="147" type="curve" smooth="yes"/>
      <point x="14" y="168"/>
      <point x="20" y="201"/>
      <point x="24" y="226" type="curve" smooth="yes"/>
      <point x="36" y="294"/>
      <point x="81" y="348"/>
      <point x="175" y="348" type="curve" smooth="yes"/>
      <point x="241" y="348"/>
      <point x="293" y="325"/>
    </contour>
    <contour>
      <point x="284" y="602" type="curve"/>
      <point x="219" y="498" type="line"/>
      <point x="238" y="498" type="line"/>
      <point x="304" y="589" type="line"/>
      <point x="311" y="596"/>
      <point x="312" y="606"/>
      <point x="305" y="610" type="curve" smooth="yes"/>
      <point x="298" y="614"/>
      <point x="289" y="609"/>
    </contour>
  </outline>
</glyph>
<glyph name="acircumflex" format="1">
  <advance width="375"/>
  <unicode hex="00E2"/>
  <outline>
    <contour>
      <point x="356" y="314" type="curve"/>
      <point x="306" y="340"/>
      <point x="246" y="366"/>
      <point x="180" y="366" type="curve" smooth="yes"/>
      <point x="58" y="366"/>
      <point x="19" y="286"/>
      <point x="9" y="228" type="curve"/>
      <point x="9" y="228"/>
      <point x="-5" y="153"/>
      <point x="-5" y="153" type="curve"/>
      <point x="-24" y="45"/>
      <point x="21" y="-9"/>
      <point x="153" y="-9" type="curve" smooth="yes"/>
      <point x="190" y="-9"/>
      <point x="318" y="0"/>
      <point x="318" y="0" type="curve"/>
      <point x="318" y="0"/>
      <point x="352" y="193"/>
      <point x="371" y="305" type="curve" smooth="yes"/>
      <point x="381" y="359"/>
      <point x="370" y="401"/>
      <point x="338" y="427" type="curve" smooth="yes"/>
      <point x="311" y="450"/>
      <point x="269" y="461"/>
      <point x="210" y="461" type="curve"/>
      <point x="206" y="444" type="line"/>
      <point x="268" y="444"/>
      <point x="300" y="434"/>
      <point x="324" y="415" type="curve" smooth="yes"/>
      <point x="353" y="392"/>
      <point x="363" y="356"/>
    </contour>
    <contour>
      <point x="352" y="293" type="curve"/>
      <point x="352" y="293"/>
      <point x="303" y="16"/>
      <point x="303" y="16" type="curve"/>
      <point x="303" y="16"/>
      <point x="198" y="7"/>
      <point x="156" y="7" type="curve" smooth="yes"/>
      <point x="13" y="4"/>
      <point x="0" y="82"/>
      <point x="11" y="147" type="curve" smooth="yes"/>
      <point x="15" y="168"/>
      <point x="21" y="201"/>
      <point x="25" y="226" type="curve" smooth="yes"/>
      <point x="37" y="294"/>
      <point x="82" y="348"/>
      <point x="176" y="348" type="curve" smooth="yes"/>
      <point x="242" y="348"/>
      <point x="294" y="325"/>
    </contour>
    <contour>
      <point x="249" y="591" type="line"/>
      <point x="327" y="496" type="line"/>
      <point x="343" y="510" type="line"/>
      <point x="253" y="617" type="line"/>
      <point x="122" y="510" type="line"/>
      <point x="133" y="497" type="line"/>
    </contour>
  </outline>
</glyph>
<glyph name="aring" format="1">
  <advance width="376"/>
  <unicode hex="00E5"/>
  <outline>
    <contour>
      <point x="357" y="314" type="curve"/>
      <point x="307" y="340"/>
      <point x="247" y="366"/>
      <point x="181" y="366" type="curve" smooth="yes"/>
      <point x="59" y="366"/>
      <point x="20" y="286"/>
      <point x="10" y="228" type="curve"/>
      <point x="10" y="228"/>
      <point x="-4" y="153"/>
      <point x="-4" y="153" type="curve"/>
      <point x="-23" y="45"/>
      <point x="22" y="-9"/>
      <point x="154" y="-9" type="curve" smooth="yes"/>
      <point x="191" y="-9"/>
      <point x="319" y="0"/>
      <point x="319" y="0" type="curve"/>
      <point x="319" y="0"/>
      <point x="353" y="193"/>
      <point x="372" y="305" type="curve" smooth="yes"/>
      <point x="382" y="359"/>
      <point x="371" y="401"/>
      <point x="339" y="427" type="curve" smooth="yes"/>
      <point x="312" y="450"/>
      <point x="270" y="461"/>
      <point x="211" y="461" type="curve"/>
      <point x="207" y="444" type="line"/>
      <point x="269" y="444"/>
      <point x="301" y="434"/>
      <point x="325" y="415" type="curve" smooth="yes"/>
      <point x="354" y="392"/>
      <point x="364" y="356"/>
    </contour>
    <contour>
      <point x="353" y="293" type="curve"/>
      <point x="353" y="293"/>
      <point x="304" y="16"/>
      <point x="304" y="16" type="curve"/>
      <point x="304" y="16"/>
      <point x="199" y="7"/>
      <point x="157" y="7" type="curve" smooth="yes"/>
      <point x="14" y="4"/>
      <point x="1" y="82"/>
      <point x="12" y="147" type="curve" smooth="yes"/>
      <point x="16" y="168"/>
      <point x="22" y="201"/>
      <point x="26" y="226" type="curve" smooth="yes"/>
      <point x="38" y="294"/>
      <point x="83" y="348"/>
      <point x="177" y="348" type="curve" smooth="yes"/>
      <point x="243" y="348"/>
      <point x="295" y="325"/>
    </contour>
    <contour>
      <point x="211" y="445" type="curve" smooth="yes"/>
      <point x="268" y="445"/>
      <point x="322" y="491"/>
      <point x="332" y="548" type="curve" smooth="yes"/>
      <point x="342" y="605"/>
      <point x="304" y="651"/>
      <point x="247" y="651" type="curve" smooth="yes"/>
      <point x="190" y="651"/>
      <point x="136" y="605"/>
      <point x="126" y="548" type="curve" smooth="yes"/>
      <point x="116" y="491"/>
      <point x="154" y="445"/>
    </contour>
    <contour>
      <point x="315" y="548" type="curve" smooth="yes"/>
      <point x="307" y="501"/>
      <point x="261" y="463"/>
      <point x="214" y="463" type="curve" smooth="yes"/>
      <point x="167" y="463"/>
      <point x="135" y="501"/>
      <point x="143" y="548" type="curve" smooth="yes"/>
      <point x="151" y="595"/>
      <point x="197" y="634"/>
      <point x="244" y="634" type="curve" smooth="yes"/>
      <point x="291" y="634"/>
      <point x="323" y="595"/>
    </contour>
  </outline>
</glyph>
<glyph name="ae" format="1">
  <advance width="691"/>
  <unicode hex="00E6"/>
  <outline>
    <contour>
      <point x="343" y="120" type="curve" smooth="yes"/>
      <point x="358" y="208" type="line"/>
      <point x="671" y="224" type="line"/>
      <point x="686" y="310" type="line" smooth="yes"/>
      <point x="703" y="407"/>
      <point x="653" y="462"/>
      <point x="553" y="462" type="curve" smooth="yes"/>
      <point x="471" y="462"/>
      <point x="403" y="423"/>
      <point x="373" y="355" type="curve"/>
      <point x="367" y="423"/>
      <point x="314" y="461"/>
      <point x="209" y="461" type="curve"/>
      <point x="208" y="455"/>
      <point x="206" y="450"/>
      <point x="205" y="444" type="curve"/>
      <point x="335" y="444"/>
      <point x="368" y="387"/>
      <point x="355" y="314" type="curve"/>
      <point x="305" y="340"/>
      <point x="245" y="366"/>
      <point x="179" y="366" type="curve" smooth="yes"/>
      <point x="57" y="366"/>
      <point x="18" y="286"/>
      <point x="8" y="228" type="curve" smooth="yes"/>
      <point x="-6" y="153" type="line" smooth="yes"/>
      <point x="-25" y="45"/>
      <point x="20" y="-9"/>
      <point x="152" y="-9" type="curve" smooth="yes"/>
      <point x="188" y="-9"/>
      <point x="317" y="0"/>
      <point x="317" y="0" type="curve"/>
      <point x="327" y="58" type="line"/>
      <point x="341" y="12"/>
      <point x="386" y="-11"/>
      <point x="461" y="-11" type="curve" smooth="yes"/>
      <point x="512" y="-11"/>
      <point x="563" y="4"/>
      <point x="614" y="32" type="curve"/>
      <point x="609" y="47" type="line"/>
      <point x="552" y="18"/>
      <point x="511" y="6"/>
      <point x="462" y="6" type="curve" smooth="yes"/>
      <point x="382" y="6"/>
      <point x="328" y="37"/>
    </contour>
    <contour>
      <point x="351" y="293" type="curve"/>
      <point x="302" y="16" type="line"/>
      <point x="302" y="16"/>
      <point x="197" y="7"/>
      <point x="155" y="7" type="curve" smooth="yes"/>
      <point x="12" y="4"/>
      <point x="-1" y="82"/>
      <point x="10" y="147" type="curve" smooth="yes"/>
      <point x="24" y="226" type="line" smooth="yes"/>
      <point x="36" y="294"/>
      <point x="81" y="348"/>
      <point x="175" y="348" type="curve" smooth="yes"/>
      <point x="241" y="348"/>
      <point x="293" y="325"/>
    </contour>
    <contour>
      <point x="668" y="311" type="curve" smooth="yes"/>
      <point x="656" y="240" type="line"/>
      <point x="361" y="225" type="line"/>
      <point x="375" y="302" type="line" smooth="yes"/>
      <point x="396" y="420"/>
      <point x="485" y="446"/>
      <point x="547" y="446" type="curve" smooth="yes"/>
      <point x="612" y="446"/>
      <point x="688" y="420"/>
    </contour>
  </outline>
</glyph>
<glyph name="ccedilla" format="1">
  <advance width="320"/>
  <unicode hex="00E7"/>
  <outline>
    <contour>
      <point x="325" y="415" type="curve"/>
      <point x="334" y="433" type="line"/>
      <point x="285" y="458"/>
      <point x="227" y="469"/>
      <point x="173" y="458" type="curve" smooth="yes"/>
      <point x="131" y="449"/>
      <point x="92" y="427"/>
      <point x="61" y="387" type="curve" smooth="yes"/>
      <point x="39" y="358"/>
      <point x="28" y="329"/>
      <point x="18" y="289" type="curve"/>
      <point x="-5" y="157" type="line" smooth="yes"/>
      <point x="-21" y="68"/>
      <point x="11" y="21"/>
      <point x="70" y="1" type="curve" smooth="yes"/>
      <point x="121" y="-16"/>
      <point x="196" y="-12"/>
      <point x="260" y="5" type="curve"/>
      <point x="260" y="23" type="line"/>
      <point x="260" y="23"/>
      <point x="150" y="-8"/>
      <point x="74" y="19" type="curve" smooth="yes"/>
      <point x="13" y="41"/>
      <point x="0" y="89"/>
      <point x="13" y="159" type="curve" smooth="yes"/>
      <point x="35" y="284" type="line" smooth="yes"/>
      <point x="41" y="323"/>
      <point x="56" y="354"/>
      <point x="75" y="378" type="curve" smooth="yes"/>
      <point x="101" y="412"/>
      <point x="137" y="433"/>
      <point x="176" y="441" type="curve" smooth="yes"/>
      <point x="224" y="451"/>
      <point x="276" y="442"/>
    </contour>
    <contour>
      <point x="115" y="-43" type="curve" smooth="yes"/>
      <point x="111" y="-43"/>
      <point x="107" y="-43"/>
      <point x="84" y="-43" type="curve"/>
      <point x="116" y="0" type="line"/>
      <point x="97" y="0" type="line"/>
      <point x="63" y="-43" type="line"/>
      <point x="60" y="-61" type="line"/>
      <point x="79" y="-61"/>
      <point x="97" y="-61"/>
      <point x="112" y="-61" type="curve" smooth="yes"/>
      <point x="150" y="-61"/>
      <point x="172" y="-87"/>
      <point x="166" y="-124" type="curve" smooth="yes"/>
      <point x="156" y="-181"/>
      <point x="105" y="-188"/>
      <point x="89" y="-188" type="curve"/>
      <point x="43" y="-191"/>
      <point x="6" y="-178"/>
      <point x="5" y="-178" type="curve"/>
      <point x="2" y="-185"/>
      <point x="1" y="-187"/>
      <point x="-3" y="-194" type="curve"/>
      <point x="26" y="-201"/>
      <point x="46" y="-206"/>
      <point x="87" y="-205" type="curve" smooth="yes"/>
      <point x="127" y="-203"/>
      <point x="173" y="-180"/>
      <point x="183" y="-124" type="curve" smooth="yes"/>
      <point x="191" y="-78"/>
      <point x="162" y="-43"/>
    </contour>
  </outline>
</glyph>
<glyph name="ecircumflex" format="1">
  <advance width="351"/>
  <unicode hex="00EA"/>
  <outline>
    <contour>
      <point x="7" y="120" type="curve" smooth="yes"/>
      <point x="22" y="208" type="line"/>
      <point x="335" y="224" type="line"/>
      <point x="350" y="310" type="line" smooth="yes"/>
      <point x="360" y="365"/>
      <point x="347" y="407"/>
      <point x="317" y="433" type="curve" smooth="yes"/>
      <point x="293" y="452"/>
      <point x="260" y="462"/>
      <point x="217" y="462" type="curve" smooth="yes"/>
      <point x="167" y="462"/>
      <point x="122" y="448"/>
      <point x="89" y="421" type="curve" smooth="yes"/>
      <point x="55" y="395"/>
      <point x="31" y="356"/>
      <point x="23" y="307" type="curve" smooth="yes"/>
      <point x="-10" y="121" type="line" smooth="yes"/>
      <point x="-19" y="73"/>
      <point x="-9" y="38"/>
      <point x="18" y="17" type="curve" smooth="yes"/>
      <point x="41" y="-2"/>
      <point x="77" y="-11"/>
      <point x="125" y="-11" type="curve" smooth="yes"/>
      <point x="176" y="-11"/>
      <point x="227" y="4"/>
      <point x="278" y="32" type="curve"/>
      <point x="273" y="47" type="line"/>
      <point x="216" y="18"/>
      <point x="175" y="6"/>
      <point x="126" y="6" type="curve" smooth="yes"/>
      <point x="85" y="6"/>
      <point x="54" y="13"/>
      <point x="30" y="32" type="curve" smooth="yes"/>
      <point x="7" y="51"/>
      <point x="0" y="80"/>
    </contour>
    <contour>
      <point x="332" y="311" type="curve" smooth="yes"/>
      <point x="329" y="293"/>
      <point x="323" y="256"/>
      <point x="320" y="240" type="curve"/>
      <point x="25" y="225" type="line"/>
      <point x="29" y="244"/>
      <point x="35" y="283"/>
      <point x="39" y="302" type="curve" smooth="yes"/>
      <point x="48" y="355"/>
      <point x="71" y="389"/>
      <point x="99" y="411" type="curve" smooth="yes"/>
      <point x="134" y="438"/>
      <point x="177" y="446"/>
      <point x="211" y="446" type="curve" smooth="yes"/>
      <point x="244" y="446"/>
      <point x="279" y="440"/>
      <point x="303" y="419" type="curve" smooth="yes"/>
      <point x="328" y="399"/>
      <point x="342" y="365"/>
    </contour>
    <contour>
      <point x="237" y="593" type="line"/>
      <point x="315" y="498" type="line"/>
      <point x="332" y="512" type="line"/>
      <point x="242" y="619" type="line"/>
      <point x="111" y="511" type="line"/>
      <point x="121" y="498" type="line"/>
    </contour>
  </outline>
</glyph>
<glyph name="edieresis" format="1">
  <advance width="351"/>
  <unicode hex="00EB"/>
  <outline>
    <contour>
      <point x="7" y="120" type="curve" smooth="yes"/>
      <point x="22" y="208" type="line"/>
      <point x="335" y="224" type="line"/>
      <point x="350" y="310" type="line" smooth="yes"/>
      <point x="360" y="365"/>
      <point x="347" y="407"/>
      <point x="317" y="433" type="curve" smooth="yes"/>
      <point x="293" y="452"/>
      <point x="260" y="462"/>
      <point x="217" y="462" type="curve" smooth="yes"/>
      <point x="167" y="462"/>
      <point x="122" y="448"/>
      <point x="89" y="421" type="curve" smooth="yes"/>
      <point x="55" y="395"/>
      <point x="31" y="356"/>
      <point x="23" y="307" type="curve" smooth="yes"/>
      <point x="-10" y="121" type="line" smooth="yes"/>
      <point x="-19" y="73"/>
      <point x="-9" y="38"/>
      <point x="18" y="17" type="curve" smooth="yes"/>
      <point x="41" y="-2"/>
      <point x="77" y="-11"/>
      <point x="125" y="-11" type="curve" smooth="yes"/>
      <point x="176" y="-11"/>
      <point x="227" y="4"/>
      <point x="278" y="32" type="curve"/>
      <point x="273" y="47" type="line"/>
      <point x="216" y="18"/>
      <point x="175" y="6"/>
      <point x="126" y="6" type="curve" smooth="yes"/>
      <point x="85" y="6"/>
      <point x="54" y="13"/>
      <point x="30" y="32" type="curve" smooth="yes"/>
      <point x="7" y="51"/>
      <point x="0" y="80"/>
    </contour>
    <contour>
      <point x="332" y="311" type="curve" smooth="yes"/>
      <point x="329" y="293"/>
      <point x="323" y="256"/>
      <point x="320" y="240" type="curve"/>
      <point x="25" y="225" type="line"/>
      <point x="29" y="244"/>
      <point x="35" y="283"/>
      <point x="39" y="302" type="curve" smooth="yes"/>
      <point x="48" y="355"/>
      <point x="71" y="389"/>
      <point x="99" y="411" type="curve" smooth="yes"/>
      <point x="134" y="438"/>
      <point x="177" y="446"/>
      <point x="211" y="446" type="curve" smooth="yes"/>
      <point x="244" y="446"/>
      <point x="279" y="440"/>
      <point x="303" y="419" type="curve" smooth="yes"/>
      <point x="328" y="399"/>
      <point x="342" y="365"/>
    </contour>
    <contour>
      <point x="304" y="568" type="curve" smooth="yes"/>
      <point x="296" y="568"/>
      <point x="287" y="561"/>
      <point x="286" y="552" type="curve"/>
      <point x="284" y="544"/>
      <point x="290" y="537"/>
      <point x="298" y="537" type="curve" smooth="yes"/>
      <point x="307" y="537"/>
      <point x="314" y="544"/>
      <point x="316" y="552" type="curve"/>
      <point x="317" y="561"/>
      <point x="313" y="568"/>
    </contour>
    <contour>
      <point x="161" y="568" type="curve" smooth="yes"/>
      <point x="152" y="568"/>
      <point x="143" y="561"/>
      <point x="142" y="552" type="curve"/>
      <point x="140" y="544"/>
      <point x="146" y="537"/>
      <point x="155" y="537" type="curve" smooth="yes"/>
      <point x="163" y="537"/>
      <point x="171" y="544"/>
      <point x="173" y="552" type="curve"/>
      <point x="174" y="561"/>
      <point x="169" y="568"/>
    </contour>
  </outline>
</glyph>
<glyph name="igrave" format="1">
  <advance width="83"/>
  <unicode hex="00EC"/>
  <outline>
    <contour>
      <point x="92" y="454" type="line"/>
      <point x="74" y="454" type="line"/>
      <point x="-6" y="0" type="line"/>
      <point x="12" y="0" type="line"/>
    </contour>
    <contour>
      <point x="39" y="586" type="curve"/>
      <point x="73" y="494" type="line"/>
      <point x="92" y="494" type="line"/>
      <point x="64" y="598" type="line" smooth="yes"/>
      <point x="62" y="606"/>
      <point x="54" y="611"/>
      <point x="46" y="607" type="curve"/>
      <point x="38" y="602"/>
      <point x="35" y="593"/>
    </contour>
  </outline>
</glyph>
<glyph name="icircumflex" format="1">
  <advance width="189"/>
  <unicode hex="00EE"/>
  <outline>
    <contour>
      <point x="108" y="454" type="line"/>
      <point x="91" y="454" type="line"/>
      <point x="11" y="0" type="line"/>
      <point x="28" y="0" type="line"/>
    </contour>
    <contour>
      <point x="123" y="589" type="line"/>
      <point x="203" y="494" type="line"/>
      <point x="219" y="508" type="line"/>
      <point x="128" y="615" type="line"/>
      <point x="-2" y="508" type="line"/>
      <point x="9" y="495" type="line"/>
    </contour>
  </outline>
</glyph>
<glyph name="idieresis" format="1">
  <advance width="158"/>
  <unicode hex="00EF"/>
  <outline>
    <contour>
      <point x="94" y="454" type="line"/>
      <point x="77" y="454" type="line"/>
      <point x="-3" y="0" type="line"/>
      <point x="14" y="0" type="line"/>
    </contour>
    <contour>
      <point x="189" y="548" type="curve"/>
      <point x="191" y="556"/>
      <point x="185" y="563"/>
      <point x="176" y="563" type="curve" smooth="yes"/>
      <point x="168" y="563"/>
      <point x="160" y="556"/>
      <point x="158" y="548" type="curve"/>
      <point x="157" y="539"/>
      <point x="162" y="532"/>
      <point x="170" y="532" type="curve" smooth="yes"/>
      <point x="179" y="532"/>
      <point x="188" y="539"/>
    </contour>
    <contour>
      <point x="45" y="548" type="curve"/>
      <point x="47" y="556"/>
      <point x="41" y="563"/>
      <point x="33" y="563" type="curve" smooth="yes"/>
      <point x="24" y="563"/>
      <point x="16" y="556"/>
      <point x="14" y="548" type="curve"/>
      <point x="13" y="539"/>
      <point x="18" y="532"/>
      <point x="27" y="532" type="curve" smooth="yes"/>
      <point x="35" y="532"/>
      <point x="44" y="539"/>
    </contour>
  </outline>
</glyph>
<glyph name="ntilde" format="1">
  <advance width="385"/>
  <unicode hex="00F1"/>
  <outline>
    <contour>
      <point x="355" y="315" type="curve" smooth="yes"/>
      <point x="300" y="0" type="line"/>
      <point x="318" y="0" type="line"/>
      <point x="373" y="314" type="line" smooth="yes"/>
      <point x="398" y="455"/>
      <point x="294" y="467"/>
      <point x="214" y="462" type="curve" smooth="yes"/>
      <point x="166" y="459"/>
      <point x="107" y="442"/>
      <point x="75" y="428" type="curve"/>
      <point x="80" y="454" type="line"/>
      <point x="63" y="454" type="line"/>
      <point x="-17" y="0" type="line"/>
      <point x="0" y="0" type="line"/>
      <point x="72" y="412" type="line"/>
      <point x="108" y="428"/>
      <point x="170" y="445"/>
      <point x="223" y="448" type="curve" smooth="yes"/>
      <point x="322" y="453"/>
      <point x="373" y="417"/>
    </contour>
    <contour>
      <point x="352" y="539" type="curve"/>
      <point x="346" y="555" type="line"/>
      <point x="322" y="538"/>
      <point x="308" y="534"/>
      <point x="298" y="534" type="curve" smooth="yes"/>
      <point x="266" y="533"/>
      <point x="237" y="563"/>
      <point x="199" y="562" type="curve" smooth="yes"/>
      <point x="180" y="562"/>
      <point x="160" y="556"/>
      <point x="137" y="536" type="curve"/>
      <point x="144" y="519" type="line"/>
      <point x="150" y="525"/>
      <point x="169" y="542"/>
      <point x="192" y="542" type="curve" smooth="yes"/>
      <point x="227" y="543"/>
      <point x="255" y="513"/>
      <point x="293" y="514" type="curve" smooth="yes"/>
      <point x="310" y="514"/>
      <point x="329" y="520"/>
    </contour>
  </outline>
</glyph>
<glyph name="ograve" format="1">
  <advance width="359"/>
  <unicode hex="00F2"/>
  <outline>
    <contour>
      <point x="331" y="167" type="curve" smooth="yes"/>
      <point x="352" y="286" type="line" smooth="yes"/>
      <point x="371" y="396"/>
      <point x="325" y="464"/>
      <point x="217" y="464" type="curve" smooth="yes"/>
      <point x="110" y="464"/>
      <point x="37" y="402"/>
      <point x="17" y="286" type="curve" smooth="yes"/>
      <point x="-4" y="167" type="line" smooth="yes"/>
      <point x="-21" y="70"/>
      <point x="19" y="-9"/>
      <point x="134" y="-9" type="curve" smooth="yes"/>
      <point x="247" y="-9"/>
      <point x="313" y="65"/>
    </contour>
    <contour>
      <point x="336" y="290" type="curve" smooth="yes"/>
      <point x="314" y="167" type="line" smooth="yes"/>
      <point x="298" y="76"/>
      <point x="242" y="7"/>
      <point x="137" y="7" type="curve" smooth="yes"/>
      <point x="37" y="7"/>
      <point x="-3" y="77"/>
      <point x="13" y="167" type="curve" smooth="yes"/>
      <point x="35" y="290" type="line" smooth="yes"/>
      <point x="54" y="402"/>
      <point x="127" y="447"/>
      <point x="214" y="447" type="curve" smooth="yes"/>
      <point x="301" y="447"/>
      <point x="354" y="394"/>
    </contour>
    <contour>
      <point x="175" y="589" type="curve" smooth="yes"/>
      <point x="209" y="498" type="line"/>
      <point x="228" y="498" type="line"/>
      <point x="201" y="602" type="line" smooth="yes"/>
      <point x="199" y="609"/>
      <point x="191" y="614"/>
      <point x="182" y="610" type="curve" smooth="yes"/>
      <point x="174" y="606"/>
      <point x="172" y="596"/>
    </contour>
  </outline>
</glyph>
<glyph name="oacute" format="1">
  <advance width="358"/>
  <unicode hex="00F3"/>
  <outline>
    <contour>
      <point x="330" y="167" type="curve" smooth="yes"/>
      <point x="351" y="286" type="line" smooth="yes"/>
      <point x="370" y="396"/>
      <point x="324" y="464"/>
      <point x="216" y="464" type="curve" smooth="yes"/>
      <point x="109" y="464"/>
      <point x="36" y="402"/>
      <point x="16" y="286" type="curve" smooth="yes"/>
      <point x="-5" y="167" type="line" smooth="yes"/>
      <point x="-22" y="70"/>
      <point x="18" y="-9"/>
      <point x="133" y="-9" type="curve" smooth="yes"/>
      <point x="246" y="-9"/>
      <point x="312" y="65"/>
    </contour>
    <contour>
      <point x="335" y="290" type="curve" smooth="yes"/>
      <point x="313" y="167" type="line" smooth="yes"/>
      <point x="297" y="76"/>
      <point x="241" y="7"/>
      <point x="136" y="7" type="curve" smooth="yes"/>
      <point x="36" y="7"/>
      <point x="-4" y="77"/>
      <point x="12" y="167" type="curve" smooth="yes"/>
      <point x="34" y="290" type="line" smooth="yes"/>
      <point x="53" y="402"/>
      <point x="126" y="447"/>
      <point x="213" y="447" type="curve" smooth="yes"/>
      <point x="300" y="447"/>
      <point x="353" y="394"/>
    </contour>
    <contour>
      <point x="278" y="602" type="curve" smooth="yes"/>
      <point x="212" y="498" type="line"/>
      <point x="232" y="498" type="line"/>
      <point x="298" y="589" type="line"/>
      <point x="304" y="596"/>
      <point x="305" y="606"/>
      <point x="298" y="610" type="curve"/>
      <point x="292" y="614"/>
      <point x="282" y="609"/>
    </contour>
  </outline>
</glyph>
<glyph name="ocircumflex" format="1">
  <advance width="360"/>
  <unicode hex="00F4"/>
  <outline>
    <contour>
      <point x="331" y="167" type="curve" smooth="yes"/>
      <point x="352" y="286" type="line" smooth="yes"/>
      <point x="371" y="396"/>
      <point x="325" y="464"/>
      <point x="217" y="464" type="curve" smooth="yes"/>
      <point x="110" y="464"/>
      <point x="37" y="402"/>
      <point x="17" y="286" type="curve" smooth="yes"/>
      <point x="-4" y="167" type="line" smooth="yes"/>
      <point x="-21" y="70"/>
      <point x="19" y="-9"/>
      <point x="134" y="-9" type="curve" smooth="yes"/>
      <point x="247" y="-9"/>
      <point x="313" y="65"/>
    </contour>
    <contour>
      <point x="336" y="290" type="curve" smooth="yes"/>
      <point x="314" y="167" type="line" smooth="yes"/>
      <point x="298" y="76"/>
      <point x="242" y="7"/>
      <point x="137" y="7" type="curve" smooth="yes"/>
      <point x="37" y="7"/>
      <point x="-3" y="77"/>
      <point x="13" y="167" type="curve" smooth="yes"/>
      <point x="35" y="290" type="line" smooth="yes"/>
      <point x="54" y="402"/>
      <point x="127" y="447"/>
      <point x="214" y="447" type="curve" smooth="yes"/>
      <point x="301" y="447"/>
      <point x="354" y="394"/>
    </contour>
    <contour>
      <point x="248" y="625" type="line"/>
      <point x="341" y="510" type="line"/>
      <point x="359" y="525" type="line"/>
      <point x="253" y="653" type="line"/>
      <point x="96" y="525" type="line"/>
      <point x="108" y="510" type="line"/>
    </contour>
  </outline>
</glyph>
<glyph name="otilde" format="1">
  <advance width="359"/>
  <unicode hex="00F5"/>
  <outline>
    <contour>
      <point x="331" y="167" type="curve" smooth="yes"/>
      <point x="352" y="286" type="line" smooth="yes"/>
      <point x="371" y="396"/>
      <point x="325" y="464"/>
      <point x="217" y="464" type="curve" smooth="yes"/>
      <point x="110" y="464"/>
      <point x="37" y="402"/>
      <point x="17" y="286" type="curve" smooth="yes"/>
      <point x="-4" y="167" type="line" smooth="yes"/>
      <point x="-21" y="70"/>
      <point x="19" y="-9"/>
      <point x="134" y="-9" type="curve" smooth="yes"/>
      <point x="247" y="-9"/>
      <point x="313" y="65"/>
    </contour>
    <contour>
      <point x="336" y="290" type="curve" smooth="yes"/>
      <point x="314" y="167" type="line" smooth="yes"/>
      <point x="298" y="76"/>
      <point x="242" y="7"/>
      <point x="137" y="7" type="curve" smooth="yes"/>
      <point x="37" y="7"/>
      <point x="-3" y="77"/>
      <point x="13" y="167" type="curve" smooth="yes"/>
      <point x="35" y="290" type="line" smooth="yes"/>
      <point x="54" y="402"/>
      <point x="127" y="447"/>
      <point x="214" y="447" type="curve" smooth="yes"/>
      <point x="301" y="447"/>
      <point x="354" y="394"/>
    </contour>
    <contour>
      <point x="337" y="539" type="curve"/>
      <point x="331" y="555" type="line"/>
      <point x="307" y="538"/>
      <point x="292" y="534"/>
      <point x="283" y="534" type="curve" smooth="yes"/>
      <point x="251" y="533"/>
      <point x="221" y="563"/>
      <point x="183" y="563" type="curve"/>
      <point x="164" y="562"/>
      <point x="144" y="556"/>
      <point x="122" y="536" type="curve"/>
      <point x="129" y="520" type="line"/>
      <point x="135" y="525"/>
      <point x="154" y="542"/>
      <point x="177" y="543" type="curve" smooth="yes"/>
      <point x="212" y="543"/>
      <point x="240" y="514"/>
      <point x="277" y="514" type="curve"/>
      <point x="294" y="515"/>
      <point x="313" y="520"/>
    </contour>
  </outline>
</glyph>
<glyph name="odieresis" format="1">
  <advance width="359"/>
  <unicode hex="00F6"/>
  <outline>
    <contour>
      <point x="331" y="167" type="curve" smooth="yes"/>
      <point x="352" y="286" type="line" smooth="yes"/>
      <point x="371" y="396"/>
      <point x="325" y="464"/>
      <point x="217" y="464" type="curve" smooth="yes"/>
      <point x="110" y="464"/>
      <point x="37" y="402"/>
      <point x="17" y="286" type="curve" smooth="yes"/>
      <point x="-4" y="167" type="line" smooth="yes"/>
      <point x="-21" y="70"/>
      <point x="19" y="-9"/>
      <point x="134" y="-9" type="curve" smooth="yes"/>
      <point x="247" y="-9"/>
      <point x="313" y="65"/>
    </contour>
    <contour>
      <point x="336" y="290" type="curve" smooth="yes"/>
      <point x="314" y="167" type="line" smooth="yes"/>
      <point x="298" y="76"/>
      <point x="242" y="7"/>
      <point x="137" y="7" type="curve" smooth="yes"/>
      <point x="37" y="7"/>
      <point x="-3" y="77"/>
      <point x="13" y="167" type="curve" smooth="yes"/>
      <point x="35" y="290" type="line" smooth="yes"/>
      <point x="54" y="402"/>
      <point x="127" y="447"/>
      <point x="214" y="447" type="curve" smooth="yes"/>
      <point x="301" y="447"/>
      <point x="354" y="394"/>
    </contour>
    <contour>
      <point x="302" y="566" type="curve" smooth="yes"/>
      <point x="293" y="566"/>
      <point x="286" y="559"/>
      <point x="285" y="551" type="curve"/>
      <point x="283" y="542"/>
      <point x="288" y="535"/>
      <point x="297" y="535" type="curve" smooth="yes"/>
      <point x="305" y="535"/>
      <point x="313" y="542"/>
      <point x="315" y="551" type="curve"/>
      <point x="316" y="559"/>
      <point x="310" y="566"/>
    </contour>
    <contour>
      <point x="172" y="551" type="curve"/>
      <point x="173" y="559"/>
      <point x="167" y="566"/>
      <point x="158" y="566" type="curve" smooth="yes"/>
      <point x="150" y="566"/>
      <point x="142" y="559"/>
      <point x="141" y="551" type="curve"/>
      <point x="139" y="542"/>
      <point x="145" y="535"/>
      <point x="153" y="535" type="curve" smooth="yes"/>
      <point x="162" y="535"/>
      <point x="170" y="542"/>
    </contour>
  </outline>
</glyph>
<glyph name="divide" format="1">
  <advance width="317"/>
  <unicode hex="00F7"/>
  <outline>
    <contour>
      <point x="306" y="357" type="line"/>
      <point x="16" y="357" type="line"/>
      <point x="13" y="338" type="line"/>
      <point x="303" y="338" type="line"/>
    </contour>
    <contour>
      <point x="184" y="480" type="curve" smooth="yes"/>
      <point x="176" y="480"/>
      <point x="168" y="473"/>
      <point x="166" y="464" type="curve"/>
      <point x="165" y="456"/>
      <point x="171" y="449"/>
      <point x="179" y="449" type="curve" smooth="yes"/>
      <point x="188" y="449"/>
      <point x="196" y="456"/>
      <point x="197" y="464" type="curve"/>
      <point x="199" y="473"/>
      <point x="193" y="480"/>
    </contour>
    <contour>
      <point x="143" y="246" type="curve" smooth="yes"/>
      <point x="135" y="246"/>
      <point x="127" y="240"/>
      <point x="125" y="231" type="curve"/>
      <point x="124" y="223"/>
      <point x="130" y="216"/>
      <point x="138" y="216" type="curve" smooth="yes"/>
      <point x="147" y="216"/>
      <point x="155" y="223"/>
      <point x="156" y="231" type="curve"/>
      <point x="158" y="240"/>
      <point x="152" y="246"/>
    </contour>
  </outline>
</glyph>
<glyph name="oslash" format="1">
  <advance width="363"/>
  <unicode hex="00F8"/>
  <outline>
    <contour>
      <point x="328" y="167" type="curve" smooth="yes"/>
      <point x="349" y="286" type="line" smooth="yes"/>
      <point x="361" y="352"/>
      <point x="349" y="403"/>
      <point x="314" y="433" type="curve"/>
      <point x="375" y="532" type="line"/>
      <point x="356" y="532" type="line"/>
      <point x="300" y="442" type="line"/>
      <point x="279" y="456"/>
      <point x="250" y="464"/>
      <point x="214" y="464" type="curve" smooth="yes"/>
      <point x="107" y="464"/>
      <point x="34" y="402"/>
      <point x="14" y="286" type="curve" smooth="yes"/>
      <point x="-7" y="167" type="line" smooth="yes"/>
      <point x="-18" y="104"/>
      <point x="-5" y="49"/>
      <point x="37" y="18" type="curve"/>
      <point x="-12" y="-60" type="line"/>
      <point x="7" y="-60" type="line"/>
      <point x="50" y="9" type="line"/>
      <point x="71" y="-2"/>
      <point x="98" y="-9"/>
      <point x="131" y="-9" type="curve" smooth="yes"/>
      <point x="244" y="-9"/>
      <point x="310" y="65"/>
    </contour>
    <contour>
      <point x="10" y="167" type="curve" smooth="yes"/>
      <point x="32" y="290" type="line" smooth="yes"/>
      <point x="51" y="402"/>
      <point x="124" y="447"/>
      <point x="211" y="447" type="curve" smooth="yes"/>
      <point x="242" y="447"/>
      <point x="270" y="440"/>
      <point x="291" y="426" type="curve"/>
      <point x="46" y="34" type="line"/>
      <point x="11" y="62"/>
      <point x="0" y="110"/>
    </contour>
    <contour>
      <point x="333" y="290" type="curve" smooth="yes"/>
      <point x="311" y="167" type="line" smooth="yes"/>
      <point x="295" y="76"/>
      <point x="239" y="7"/>
      <point x="134" y="7" type="curve" smooth="yes"/>
      <point x="104" y="7"/>
      <point x="79" y="13"/>
      <point x="60" y="24" type="curve"/>
      <point x="303" y="416" type="line"/>
      <point x="330" y="390"/>
      <point x="343" y="348"/>
    </contour>
  </outline>
</glyph>
<glyph name="uacute" format="1">
  <advance width="381"/>
  <unicode hex="00FA"/>
  <outline>
    <contour>
      <point x="308" y="88" type="curve"/>
      <point x="293" y="0" type="line"/>
      <point x="312" y="0" type="line"/>
      <point x="392" y="454" type="line"/>
      <point x="373" y="454" type="line"/>
      <point x="319" y="153" type="line" smooth="yes"/>
      <point x="306" y="79"/>
      <point x="241" y="14"/>
      <point x="153" y="8" type="curve" smooth="yes"/>
      <point x="54" y="1"/>
      <point x="0" y="39"/>
      <point x="18" y="141" type="curve" smooth="yes"/>
      <point x="74" y="454" type="line"/>
      <point x="56" y="454" type="line"/>
      <point x="1" y="142" type="line" smooth="yes"/>
      <point x="-24" y="0"/>
      <point x="82" y="-12"/>
      <point x="150" y="-8" type="curve" smooth="yes"/>
      <point x="207" y="-4"/>
      <point x="273" y="26"/>
    </contour>
    <contour>
      <point x="291" y="597" type="curve"/>
      <point x="225" y="493" type="line"/>
      <point x="245" y="493" type="line"/>
      <point x="311" y="584" type="line"/>
      <point x="317" y="591"/>
      <point x="318" y="601"/>
      <point x="311" y="605" type="curve"/>
      <point x="305" y="609"/>
      <point x="295" y="605"/>
    </contour>
  </outline>
</glyph>
<glyph name="ucircumflex" format="1">
  <advance width="383"/>
  <unicode hex="00FB"/>
  <outline>
    <contour>
      <point x="309" y="88" type="curve"/>
      <point x="294" y="0" type="line"/>
      <point x="313" y="0" type="line"/>
      <point x="393" y="454" type="line"/>
      <point x="374" y="454" type="line"/>
      <point x="320" y="153" type="line" smooth="yes"/>
      <point x="307" y="79"/>
      <point x="242" y="14"/>
      <point x="154" y="8" type="curve" smooth="yes"/>
      <point x="55" y="1"/>
      <point x="1" y="39"/>
      <point x="19" y="141" type="curve" smooth="yes"/>
      <point x="75" y="454" type="line"/>
      <point x="57" y="454" type="line"/>
      <point x="2" y="142" type="line" smooth="yes"/>
      <point x="-23" y="0"/>
      <point x="83" y="-12"/>
      <point x="151" y="-8" type="curve" smooth="yes"/>
      <point x="208" y="-4"/>
      <point x="274" y="26"/>
    </contour>
    <contour>
      <point x="249" y="588" type="line"/>
      <point x="328" y="494" type="line"/>
      <point x="344" y="508" type="line"/>
      <point x="254" y="615" type="line"/>
      <point x="123" y="507" type="line"/>
      <point x="135" y="494" type="line"/>
    </contour>
  </outline>
</glyph>
<glyph name="udieresis" format="1">
  <advance width="383"/>
  <unicode hex="00FC"/>
  <outline>
    <contour>
      <point x="309" y="88" type="curve"/>
      <point x="294" y="0" type="line"/>
      <point x="313" y="0" type="line"/>
      <point x="393" y="454" type="line"/>
      <point x="374" y="454" type="line"/>
      <point x="320" y="153" type="line" smooth="yes"/>
      <point x="307" y="79"/>
      <point x="242" y="14"/>
      <point x="154" y="8" type="curve" smooth="yes"/>
      <point x="55" y="1"/>
      <point x="1" y="39"/>
      <point x="19" y="141" type="curve" smooth="yes"/>
      <point x="75" y="454" type="line"/>
      <point x="57" y="454" type="line"/>
      <point x="2" y="142" type="line" smooth="yes"/>
      <point x="-23" y="0"/>
      <point x="83" y="-12"/>
      <point x="151" y="-8" type="curve" smooth="yes"/>
      <point x="208" y="-4"/>
      <point x="274" y="26"/>
    </contour>
    <contour>
      <point x="316" y="563" type="curve" smooth="yes"/>
      <point x="307" y="563"/>
      <point x="299" y="556"/>
      <point x="297" y="547" type="curve"/>
      <point x="296" y="539"/>
      <point x="301" y="532"/>
      <point x="310" y="532" type="curve" smooth="yes"/>
      <point x="318" y="532"/>
      <point x="327" y="539"/>
      <point x="328" y="547" type="curve"/>
      <point x="330" y="556"/>
      <point x="324" y="563"/>
    </contour>
    <contour>
      <point x="172" y="563" type="curve" smooth="yes"/>
      <point x="164" y="563"/>
      <point x="156" y="556"/>
      <point x="154" y="547" type="curve"/>
      <point x="153" y="539"/>
      <point x="158" y="532"/>
      <point x="166" y="532" type="curve" smooth="yes"/>
      <point x="175" y="532"/>
      <point x="183" y="539"/>
      <point x="184" y="547" type="curve"/>
      <point x="186" y="556"/>
      <point x="181" y="563"/>
    </contour>
  </outline>
</glyph>
<glyph name="yacute" format="1">
  <advance width="400"/>
  <unicode hex="00FD"/>
  <outline>
    <contour>
      <point x="415" y="454" type="curve"/>
      <point x="404" y="464" type="line"/>
      <point x="378" y="441"/>
      <point x="370" y="423"/>
      <point x="363" y="380" type="curve" smooth="yes"/>
      <point x="323" y="154" type="line" smooth="yes"/>
      <point x="310" y="80"/>
      <point x="241" y="15"/>
      <point x="153" y="9" type="curve" smooth="yes"/>
      <point x="55" y="2"/>
      <point x="1" y="40"/>
      <point x="19" y="142" type="curve" smooth="yes"/>
      <point x="74" y="454" type="line"/>
      <point x="56" y="454" type="line"/>
      <point x="1" y="143" type="line" smooth="yes"/>
      <point x="-24" y="1"/>
      <point x="84" y="-11"/>
      <point x="151" y="-7" type="curve" smooth="yes"/>
      <point x="208" y="-3"/>
      <point x="276" y="27"/>
      <point x="311" y="90" type="curve"/>
      <point x="285" y="-60" type="line" smooth="yes"/>
      <point x="278" y="-100"/>
      <point x="263" y="-129"/>
      <point x="241" y="-145" type="curve" smooth="yes"/>
      <point x="217" y="-162"/>
      <point x="208" y="-166"/>
      <point x="178" y="-177" type="curve"/>
      <point x="181" y="-193" type="line"/>
      <point x="210" y="-184"/>
      <point x="233" y="-173"/>
      <point x="251" y="-158" type="curve" smooth="yes"/>
      <point x="278" y="-135"/>
      <point x="292" y="-104"/>
      <point x="300" y="-61" type="curve" smooth="yes"/>
      <point x="377" y="379" type="line" smooth="yes"/>
      <point x="384" y="419"/>
      <point x="393" y="438"/>
    </contour>
    <contour>
      <point x="306" y="597" type="curve"/>
      <point x="241" y="494" type="line"/>
      <point x="260" y="494" type="line"/>
      <point x="327" y="585" type="line" smooth="yes"/>
      <point x="332" y="592"/>
      <point x="334" y="602"/>
      <point x="326" y="606" type="curve"/>
      <point x="319" y="610"/>
      <point x="310" y="605"/>
    </contour>
  </outline>
</glyph>
<glyph name="thorn" format="1">
  <advance width="382"/>
  <unicode hex="00FE"/>
  <outline>
    <contour>
      <point x="67" y="363" type="curve"/>
      <point x="114" y="635" type="line"/>
      <point x="96" y="635" type="line"/>
      <point x="-15" y="0" type="line"/>
      <point x="3" y="0" type="line"/>
      <point x="40" y="213" type="line"/>
      <point x="54" y="141"/>
      <point x="107" y="105"/>
      <point x="176" y="105" type="curve" smooth="yes"/>
      <point x="277" y="105"/>
      <point x="361" y="186"/>
      <point x="378" y="281" type="curve" smooth="yes"/>
      <point x="397" y="387"/>
      <point x="341" y="463"/>
      <point x="238" y="463" type="curve" smooth="yes"/>
      <point x="172" y="463"/>
      <point x="109" y="429"/>
    </contour>
    <contour>
      <point x="237" y="448" type="curve" smooth="yes"/>
      <point x="329" y="445"/>
      <point x="377" y="373"/>
      <point x="362" y="286" type="curve" smooth="yes"/>
      <point x="346" y="193"/>
      <point x="269" y="121"/>
      <point x="178" y="121" type="curve" smooth="yes"/>
      <point x="73" y="121"/>
      <point x="41" y="205"/>
      <point x="56" y="290" type="curve" smooth="yes"/>
      <point x="71" y="379"/>
      <point x="151" y="448"/>
    </contour>
  </outline>
</glyph>
<glyph name="ydieresis" format="1">
  <advance width="401"/>
  <unicode hex="00FF"/>
  <outline>
    <contour>
      <point x="416" y="454" type="curve"/>
      <point x="405" y="464" type="line"/>
      <point x="379" y="441"/>
      <point x="371" y="423"/>
      <point x="364" y="380" type="curve" smooth="yes"/>
      <point x="324" y="154" type="line" smooth="yes"/>
      <point x="311" y="80"/>
      <point x="242" y="15"/>
      <point x="154" y="9" type="curve" smooth="yes"/>
      <point x="56" y="2"/>
      <point x="2" y="40"/>
      <point x="20" y="142" type="curve" smooth="yes"/>
      <point x="75" y="454" type="line"/>
      <point x="57" y="454" type="line"/>
      <point x="2" y="143" type="line" smooth="yes"/>
      <point x="-23" y="1"/>
      <point x="85" y="-11"/>
      <point x="152" y="-7" type="curve" smooth="yes"/>
      <point x="209" y="-3"/>
      <point x="277" y="27"/>
      <point x="312" y="90" type="curve"/>
      <point x="286" y="-60" type="line" smooth="yes"/>
      <point x="279" y="-100"/>
      <point x="264" y="-129"/>
      <point x="242" y="-145" type="curve" smooth="yes"/>
      <point x="218" y="-162"/>
      <point x="209" y="-166"/>
      <point x="179" y="-177" type="curve"/>
      <point x="182" y="-193" type="line"/>
      <point x="211" y="-184"/>
      <point x="234" y="-173"/>
      <point x="252" y="-158" type="curve" smooth="yes"/>
      <point x="279" y="-135"/>
      <point x="293" y="-104"/>
      <point x="301" y="-61" type="curve" smooth="yes"/>
      <point x="378" y="379" type="line" smooth="yes"/>
      <point x="385" y="419"/>
      <point x="394" y="438"/>
    </contour>
    <contour>
      <point x="328" y="563" type="curve" smooth="yes"/>
      <point x="320" y="563"/>
      <point x="312" y="556"/>
      <point x="310" y="547" type="curve"/>
      <point x="309" y="539"/>
      <point x="314" y="532"/>
      <point x="322" y="532" type="curve" smooth="yes"/>
      <point x="331" y="532"/>
      <point x="340" y="539"/>
      <point x="341" y="547" type="curve"/>
      <point x="343" y="556"/>
      <point x="337" y="563"/>
    </contour>
    <contour>
      <point x="185" y="563" type="curve" smooth="yes"/>
      <point x="176" y="563"/>
      <point x="168" y="556"/>
      <point x="166" y="547" type="curve"/>
      <point x="165" y="539"/>
      <point x="170" y="532"/>
      <point x="179" y="532" type="curve" smooth="yes"/>
      <point x="187" y="532"/>
      <point x="196" y="539"/>
      <point x="197" y="547" type="curve"/>
      <point x="199" y="556"/>
      <point x="193" y="563"/>
    </contour>
  </outline>
</glyph>
<glyph name="Amacron" format="1">
  <advance width="443"/>
  <unicode hex="0100"/>
  <outline>
    <contour>
      <point x="305" y="635" type="line"/>
      <point x="-28" y="0" type="line"/>
      <point x="-10" y="0" type="line"/>
      <point x="123" y="255" type="line"/>
      <point x="366" y="255" type="line"/>
      <point x="411" y="0" type="line"/>
      <point x="430" y="0" type="line"/>
      <point x="318" y="635" type="line"/>
    </contour>
    <contour>
      <point x="363" y="272" type="line"/>
      <point x="133" y="272" type="line"/>
      <point x="306" y="598" type="line"/>
    </contour>
    <contour>
      <point x="435" y="726" type="line"/>
      <point x="235" y="726" type="line"/>
      <point x="232" y="709" type="line"/>
      <point x="432" y="709" type="line"/>
    </contour>
  </outline>
</glyph>
<glyph name="Abreve" format="1">
  <advance width="447"/>
  <unicode hex="0102"/>
  <outline>
    <contour>
      <point x="305" y="635" type="line"/>
      <point x="-28" y="0" type="line"/>
      <point x="-10" y="0" type="line"/>
      <point x="123" y="255" type="line"/>
      <point x="366" y="255" type="line"/>
      <point x="411" y="0" type="line"/>
      <point x="430" y="0" type="line"/>
      <point x="318" y="635" type="line"/>
    </contour>
    <contour>
      <point x="363" y="272" type="line"/>
      <point x="133" y="272" type="line"/>
      <point x="306" y="598" type="line"/>
    </contour>
    <contour>
      <point x="257" y="777" type="curve" smooth="yes"/>
      <point x="258" y="783" type="line"/>
      <point x="237" y="783" type="line"/>
      <point x="236" y="777" type="line" smooth="yes"/>
      <point x="225" y="720"/>
      <point x="263" y="674"/>
      <point x="320" y="674" type="curve" smooth="yes"/>
      <point x="377" y="674"/>
      <point x="431" y="720"/>
      <point x="442" y="777" type="curve" smooth="yes"/>
      <point x="443" y="783" type="line"/>
      <point x="423" y="783" type="line"/>
      <point x="422" y="777" type="line" smooth="yes"/>
      <point x="413" y="731"/>
      <point x="370" y="694"/>
      <point x="324" y="694" type="curve" smooth="yes"/>
      <point x="279" y="694"/>
      <point x="248" y="731"/>
    </contour>
  </outline>
</glyph>
<glyph name="abreve" format="1">
  <advance width="376"/>
  <unicode hex="0103"/>
  <outline>
    <contour>
      <point x="356" y="314" type="curve"/>
      <point x="306" y="340"/>
      <point x="246" y="366"/>
      <point x="180" y="366" type="curve" smooth="yes"/>
      <point x="58" y="366"/>
      <point x="19" y="286"/>
      <point x="9" y="228" type="curve"/>
      <point x="9" y="228"/>
      <point x="-5" y="153"/>
      <point x="-5" y="153" type="curve"/>
      <point x="-24" y="45"/>
      <point x="21" y="-9"/>
      <point x="153" y="-9" type="curve" smooth="yes"/>
      <point x="190" y="-9"/>
      <point x="318" y="0"/>
      <point x="318" y="0" type="curve"/>
      <point x="318" y="0"/>
      <point x="352" y="193"/>
      <point x="371" y="305" type="curve" smooth="yes"/>
      <point x="381" y="359"/>
      <point x="370" y="401"/>
      <point x="338" y="427" type="curve" smooth="yes"/>
      <point x="311" y="450"/>
      <point x="269" y="461"/>
      <point x="210" y="461" type="curve"/>
      <point x="206" y="444" type="line"/>
      <point x="268" y="444"/>
      <point x="300" y="434"/>
      <point x="324" y="415" type="curve" smooth="yes"/>
      <point x="353" y="392"/>
      <point x="363" y="356"/>
    </contour>
    <contour>
      <point x="352" y="293" type="curve"/>
      <point x="352" y="293"/>
      <point x="303" y="16"/>
      <point x="303" y="16" type="curve"/>
      <point x="303" y="16"/>
      <point x="198" y="7"/>
      <point x="156" y="7" type="curve" smooth="yes"/>
      <point x="13" y="4"/>
      <point x="0" y="82"/>
      <point x="11" y="147" type="curve" smooth="yes"/>
      <point x="15" y="168"/>
      <point x="21" y="201"/>
      <point x="25" y="226" type="curve" smooth="yes"/>
      <point x="37" y="294"/>
      <point x="82" y="348"/>
      <point x="176" y="348" type="curve" smooth="yes"/>
      <point x="242" y="348"/>
      <point x="294" y="325"/>
    </contour>
    <contour>
      <point x="352" y="601" type="curve"/>
      <point x="354" y="607" type="line"/>
      <point x="334" y="607" type="line"/>
      <point x="332" y="601" type="line"/>
      <point x="324" y="555"/>
      <point x="281" y="518"/>
      <point x="235" y="518" type="curve" smooth="yes"/>
      <point x="189" y="518"/>
      <point x="158" y="555"/>
      <point x="166" y="601" type="curve"/>
      <point x="168" y="607" type="line"/>
      <point x="148" y="607" type="line"/>
      <point x="146" y="601" type="line"/>
      <point x="136" y="544"/>
      <point x="174" y="498"/>
      <point x="231" y="498" type="curve" smooth="yes"/>
      <point x="287" y="498"/>
      <point x="342" y="544"/>
    </contour>
  </outline>
</glyph>
<glyph name="Aogonek" format="1">
  <advance width="465"/>
  <unicode hex="0104"/>
  <outline>
    <contour>
      <point x="305" y="635" type="line"/>
      <point x="-28" y="0" type="line"/>
      <point x="-10" y="0" type="line"/>
      <point x="123" y="255" type="line"/>
      <point x="366" y="255" type="line"/>
      <point x="411" y="0" type="line"/>
      <point x="430" y="0" type="line"/>
      <point x="318" y="635" type="line"/>
    </contour>
    <contour>
      <point x="363" y="272" type="line"/>
      <point x="133" y="272" type="line"/>
      <point x="306" y="598" type="line"/>
    </contour>
    <contour>
      <point x="339" y="-116" type="curve" smooth="yes"/>
      <point x="426" y="-2" type="line"/>
      <point x="428" y="6" type="line"/>
      <point x="412" y="4" type="line"/>
      <point x="411" y="-1" type="line"/>
      <point x="326" y="-108" type="line" smooth="yes"/>
      <point x="283" y="-165"/>
      <point x="316" y="-221"/>
      <point x="383" y="-211" type="curve" smooth="yes"/>
      <point x="396" y="-209"/>
      <point x="470" y="-184"/>
      <point x="470" y="-184" type="curve"/>
      <point x="467" y="-167" type="line"/>
      <point x="467" y="-167"/>
      <point x="431" y="-179"/>
      <point x="398" y="-189" type="curve" smooth="yes"/>
      <point x="336" y="-209"/>
      <point x="302" y="-166"/>
    </contour>
  </outline>
</glyph>
<glyph name="aogonek" format="1">
  <advance width="376"/>
  <unicode hex="0105"/>
  <outline>
    <contour>
      <point x="355" y="314" type="curve"/>
      <point x="305" y="340"/>
      <point x="245" y="366"/>
      <point x="179" y="366" type="curve" smooth="yes"/>
      <point x="57" y="366"/>
      <point x="18" y="286"/>
      <point x="8" y="228" type="curve"/>
      <point x="8" y="228"/>
      <point x="-6" y="153"/>
      <point x="-6" y="153" type="curve"/>
      <point x="-25" y="45"/>
      <point x="20" y="-9"/>
      <point x="152" y="-9" type="curve" smooth="yes"/>
      <point x="189" y="-9"/>
      <point x="317" y="0"/>
      <point x="317" y="0" type="curve"/>
      <point x="317" y="0"/>
      <point x="351" y="193"/>
      <point x="370" y="305" type="curve" smooth="yes"/>
      <point x="380" y="359"/>
      <point x="369" y="401"/>
      <point x="337" y="427" type="curve" smooth="yes"/>
      <point x="310" y="450"/>
      <point x="268" y="461"/>
      <point x="209" y="461" type="curve"/>
      <point x="205" y="444" type="line"/>
      <point x="267" y="444"/>
      <point x="299" y="434"/>
      <point x="323" y="415" type="curve" smooth="yes"/>
      <point x="352" y="392"/>
      <point x="362" y="356"/>
    </contour>
    <contour>
      <point x="351" y="293" type="curve"/>
      <point x="351" y="293"/>
      <point x="302" y="16"/>
      <point x="302" y="16" type="curve"/>
      <point x="302" y="16"/>
      <point x="197" y="7"/>
      <point x="155" y="7" type="curve" smooth="yes"/>
      <point x="12" y="4"/>
      <point x="-1" y="82"/>
      <point x="10" y="147" type="curve" smooth="yes"/>
      <point x="14" y="168"/>
      <point x="20" y="201"/>
      <point x="24" y="226" type="curve" smooth="yes"/>
      <point x="36" y="294"/>
      <point x="81" y="348"/>
      <point x="175" y="348" type="curve" smooth="yes"/>
      <point x="241" y="348"/>
      <point x="293" y="325"/>
    </contour>
    <contour>
      <point x="227" y="-120" type="curve" smooth="yes"/>
      <point x="245" y="-97"/>
      <point x="312" y="-7"/>
      <point x="313" y="-6" type="curve"/>
      <point x="315" y="2" type="line"/>
      <point x="315" y="2"/>
      <point x="304" y="1"/>
      <point x="300" y="1" type="curve"/>
      <point x="299" y="-1"/>
      <point x="299" y="-3"/>
      <point x="299" y="-5" type="curve"/>
      <point x="214" y="-112" type="line" smooth="yes"/>
      <point x="172" y="-169"/>
      <point x="203" y="-225"/>
      <point x="271" y="-214" type="curve" smooth="yes"/>
      <point x="284" y="-212"/>
      <point x="358" y="-188"/>
      <point x="358" y="-188" type="curve"/>
      <point x="356" y="-170" type="line"/>
      <point x="356" y="-170"/>
      <point x="318" y="-182"/>
      <point x="286" y="-193" type="curve" smooth="yes"/>
      <point x="223" y="-212"/>
      <point x="191" y="-169"/>
    </contour>
  </outline>
</glyph>
<glyph name="cacute" format="1">
  <advance width="320"/>
  <unicode hex="0107"/>
  <outline>
    <contour>
      <point x="324" y="415" type="curve"/>
      <point x="333" y="433" type="line"/>
      <point x="284" y="458"/>
      <point x="226" y="469"/>
      <point x="172" y="458" type="curve" smooth="yes"/>
      <point x="130" y="449"/>
      <point x="91" y="427"/>
      <point x="61" y="387" type="curve" smooth="yes"/>
      <point x="38" y="358"/>
      <point x="27" y="329"/>
      <point x="17" y="289" type="curve"/>
      <point x="-6" y="157" type="line" smooth="yes"/>
      <point x="-22" y="68"/>
      <point x="10" y="21"/>
      <point x="69" y="1" type="curve" smooth="yes"/>
      <point x="120" y="-16"/>
      <point x="195" y="-12"/>
      <point x="259" y="5" type="curve"/>
      <point x="259" y="23" type="line"/>
      <point x="259" y="23"/>
      <point x="149" y="-8"/>
      <point x="73" y="19" type="curve" smooth="yes"/>
      <point x="12" y="41"/>
      <point x="-1" y="89"/>
      <point x="12" y="159" type="curve" smooth="yes"/>
      <point x="34" y="284" type="line" smooth="yes"/>
      <point x="40" y="323"/>
      <point x="55" y="354"/>
      <point x="74" y="378" type="curve" smooth="yes"/>
      <point x="100" y="412"/>
      <point x="136" y="433"/>
      <point x="176" y="441" type="curve" smooth="yes"/>
      <point x="223" y="451"/>
      <point x="275" y="442"/>
    </contour>
    <contour>
      <point x="275" y="602" type="curve" smooth="yes"/>
      <point x="209" y="498" type="line"/>
      <point x="228" y="498" type="line"/>
      <point x="295" y="589" type="line"/>
      <point x="301" y="596"/>
      <point x="302" y="606"/>
      <point x="295" y="610" type="curve"/>
      <point x="289" y="614"/>
      <point x="279" y="609"/>
    </contour>
  </outline>
</glyph>
<glyph name="ccircumflex" format="1">
  <advance width="326"/>
  <unicode hex="0109"/>
  <outline>
    <contour>
      <point x="325" y="415" type="curve"/>
      <point x="334" y="433" type="line"/>
      <point x="285" y="458"/>
      <point x="227" y="469"/>
      <point x="173" y="458" type="curve" smooth="yes"/>
      <point x="131" y="449"/>
      <point x="92" y="427"/>
      <point x="62" y="387" type="curve" smooth="yes"/>
      <point x="39" y="358"/>
      <point x="28" y="329"/>
      <point x="18" y="289" type="curve"/>
      <point x="-5" y="157" type="line" smooth="yes"/>
      <point x="-21" y="68"/>
      <point x="11" y="21"/>
      <point x="70" y="1" type="curve" smooth="yes"/>
      <point x="121" y="-16"/>
      <point x="196" y="-12"/>
      <point x="260" y="5" type="curve"/>
      <point x="260" y="23" type="line"/>
      <point x="260" y="23"/>
      <point x="150" y="-8"/>
      <point x="74" y="19" type="curve" smooth="yes"/>
      <point x="13" y="41"/>
      <point x="0" y="89"/>
      <point x="13" y="159" type="curve" smooth="yes"/>
      <point x="35" y="284" type="line" smooth="yes"/>
      <point x="41" y="323"/>
      <point x="56" y="354"/>
      <point x="75" y="378" type="curve" smooth="yes"/>
      <point x="101" y="412"/>
      <point x="137" y="433"/>
      <point x="177" y="441" type="curve" smooth="yes"/>
      <point x="224" y="451"/>
      <point x="276" y="442"/>
    </contour>
    <contour>
      <point x="247" y="592" type="line"/>
      <point x="325" y="497" type="line"/>
      <point x="342" y="511" type="line"/>
      <point x="251" y="618" type="line"/>
      <point x="122" y="511" type="line"/>
      <point x="132" y="498" type="line"/>
    </contour>
  </outline>
</glyph>
<glyph name="Cdotaccent" format="1">
  <advance width="361"/>
  <unicode hex="010A"/>
  <outline>
    <contour>
      <point x="373" y="598" type="curve"/>
      <point x="383" y="614" type="line"/>
      <point x="349" y="634"/>
      <point x="308" y="644"/>
      <point x="259" y="644" type="curve" smooth="yes"/>
      <point x="221" y="644"/>
      <point x="187" y="636"/>
      <point x="158" y="621" type="curve" smooth="yes"/>
      <point x="99" y="588"/>
      <point x="66" y="548"/>
      <point x="50" y="457" type="curve" smooth="yes"/>
      <point x="-1" y="166" type="line" smooth="yes"/>
      <point x="-15" y="90"/>
      <point x="6" y="38"/>
      <point x="46" y="14" type="curve" smooth="yes"/>
      <point x="86" y="-9"/>
      <point x="130" y="-9"/>
      <point x="149" y="-9" type="curve" smooth="yes"/>
      <point x="195" y="-9"/>
      <point x="246" y="1"/>
      <point x="301" y="21" type="curve"/>
      <point x="298" y="37" type="line"/>
      <point x="241" y="16"/>
      <point x="193" y="6"/>
      <point x="157" y="6" type="curve" smooth="yes"/>
      <point x="122" y="6"/>
      <point x="82" y="11"/>
      <point x="58" y="29" type="curve" smooth="yes"/>
      <point x="24" y="53"/>
      <point x="2" y="96"/>
      <point x="16" y="168" type="curve" smooth="yes"/>
      <point x="68" y="465" type="line" smooth="yes"/>
      <point x="78" y="520"/>
      <point x="106" y="563"/>
      <point x="132" y="585" type="curve" smooth="yes"/>
      <point x="159" y="607"/>
      <point x="204" y="626"/>
      <point x="259" y="626" type="curve" smooth="yes"/>
      <point x="296" y="626"/>
      <point x="333" y="617"/>
    </contour>
    <contour>
      <point x="268" y="744" type="curve" smooth="yes"/>
      <point x="259" y="744"/>
      <point x="250" y="737"/>
      <point x="249" y="728" type="curve"/>
      <point x="247" y="720"/>
      <point x="253" y="713"/>
      <point x="262" y="713" type="curve" smooth="yes"/>
      <point x="270" y="713"/>
      <point x="278" y="720"/>
      <point x="280" y="728" type="curve"/>
      <point x="281" y="737"/>
      <point x="276" y="744"/>
    </contour>
  </outline>
</glyph>
